<svg width="90" height="86" viewBox="0 0 90 86" fill="none" xmlns="http://www.w3.org/2000/svg">
<path fill-rule="evenodd" clip-rule="evenodd" d="M65.7811 83.1459C55.6616 87.6921 44.5492 83.1311 33.8499 80.1498C24.4809 77.5397 15.0128 74.8343 8.93608 67.3068C2.37698 59.1816 0.0336852 48.9438 0.265785 38.5473C0.556085 25.5428 -0.716714 9.32776 10.3858 2.37395C21.4528 -4.55759 34.9477 5.56792 47.6082 8.89561C58.7545 11.8252 71.1815 11.7956 78.811 20.3583C87.249 29.829 91.581 43.0028 89.015 55.3696C86.475 67.6118 77.2771 77.9822 65.7811 83.1459Z" fill="#FFDEDE"/>
<path d="M45.3932 62.0615C57.0702 62.0615 66.5362 52.6921 66.5362 41.1343C66.5362 29.5765 57.0702 20.207 45.3932 20.207C33.7163 20.207 24.2502 29.5765 24.2502 41.1343C24.2502 52.6921 33.7163 62.0615 45.3932 62.0615Z" fill="#CE2126"/>
<path fill-rule="evenodd" clip-rule="evenodd" d="M56.1798 33.7155L52.626 30.1953L45.2334 37.6584L37.7704 30.266L34.2501 33.8198L41.7131 41.2122L34.3208 48.6751L37.8746 52.1953L45.2669 44.7325L52.7299 52.125L56.2501 48.5712L48.7872 41.1787L56.1798 33.7155Z" fill="white"/>
</svg>
