<svg width="60" height="67" viewBox="0 0 60 67" fill="none" xmlns="http://www.w3.org/2000/svg">
<path d="M43.3333 30.334H16.6667C14.8333 30.334 13.3333 31.834 13.3333 33.6673C13.3333 35.5006 14.8333 37.0006 16.6667 37.0006H43.3333C45.1667 37.0006 46.6667 35.5006 46.6667 33.6673C46.6667 31.834 45.1667 30.334 43.3333 30.334ZM53.3333 7.00065H50V3.66732C50 1.83398 48.5 0.333984 46.6667 0.333984C44.8333 0.333984 43.3333 1.83398 43.3333 3.66732V7.00065H16.6667V3.66732C16.6667 1.83398 15.1667 0.333984 13.3333 0.333984C11.5 0.333984 10 1.83398 10 3.66732V7.00065H6.66667C4.89856 7.00065 3.20286 7.70303 1.95262 8.95327C0.702379 10.2035 0 11.8992 0 13.6673V60.334C0 62.1021 0.702379 63.7978 1.95262 65.048C3.20286 66.2983 4.89856 67.0006 6.66667 67.0006H53.3333C57 67.0006 60 64.0006 60 60.334V13.6673C60 10.0007 57 7.00065 53.3333 7.00065ZM50 60.334H10C8.16667 60.334 6.66667 58.834 6.66667 57.0006V23.6673H53.3333V57.0006C53.3333 58.834 51.8333 60.334 50 60.334ZM33.3333 43.6673H16.6667C14.8333 43.6673 13.3333 45.1673 13.3333 47.0006C13.3333 48.834 14.8333 50.334 16.6667 50.334H33.3333C35.1667 50.334 36.6667 48.834 36.6667 47.0006C36.6667 45.1673 35.1667 43.6673 33.3333 43.6673Z" fill="#E0580C"/>
</svg>
