<svg xmlns="http://www.w3.org/2000/svg" width="24" height="25" fill="none" viewBox="0 0 24 25">
  <path stroke="#FEFEFE" stroke-linecap="round" stroke-miterlimit="10" stroke-width="1.5" d="M12 6.94v3.33m.02-7.77c-3.68 0-6.66 2.98-6.66 6.66v2.1c0 .68-.28 1.7-.63 2.28l-1.27 2.12c-.78 1.31-.24 2.77 1.2 3.25a23.34 23.34 0 0 0 14.73 0 2.22 2.22 0 0 0 1.2-3.25l-1.27-2.12c-.35-.58-.63-1.61-.63-2.28v-2.1c-.01-3.66-3.01-6.66-6.67-6.66Z"/>
  <path stroke="#FEFEFE" stroke-miterlimit="10" stroke-width="1.5" d="M15.33 19.32c0 1.83-1.5 3.33-3.33 3.33-.91 0-1.75-.38-2.35-.98-.6-.6-.98-1.44-.98-2.35"/>
</svg>
