<svg xmlns="http://www.w3.org/2000/svg" width="312" height="201" fill="none" viewBox="0 0 312 201">
  <path fill="#ED9E72" d="m308.205 148.266-8.737-31.411c-1.024-3.681-2.051-7.381-2.525-11.187-1.566-12.614 5.379-22.452 8.269-34.041 2.309-9.26 4.343-20.71 3.275-30.242-.41-3.667-1.26-7.338-3.019-10.518-2.209-3.995-5.718-6.986-9.416-9.415-12.665-8.313-27.085-9.735-41.548-6.958-14.799 2.842-27.687 8.824-43.219 5.987-12.624-2.306-23.799-8.895-35.64-13.468C162.579 1.966 147.81.407 133.918.443c-12.002.031-24.783.332-35.935 5.252-6.287 2.773-12.1 6.576-17.218 11.15-4.553 4.07-8.83 8.48-14.488 11.035-13.188 5.952-22.42-7.36-34.856-7.863C20.401 19.57 8.91 26.04 5.51 36.923 1.638 49.31 6.24 63.73 9.763 75.63c4.207 14.213 7.928 28.519 5.32 43.502-1.425 8.194-4.344 16.023-7.12 23.851-4.21 11.87-8.441 23.135-2.753 35.424 5.837 12.609 18.956 13.62 31.505 14.145 14.747.616 29.493-.378 44.241-.378h189.255c8.862 0 19.664-2.095 27.539-6.142 9.64-4.955 12.136-13.494 12.64-23.389.257-5.082-.84-9.539-2.185-14.378Z" opacity=".4"/>
  <path fill="#F2BB9B" d="M308.079 85.993c-5.355-12.515-16.963-16.865-27.651-19.04-12.945-2.635-26.505-3.737-37.905-12-9.309-6.747-16.424-17.761-25.017-26.014-19.074-18.32-45.714-21.686-68.063-8.6-9.83 5.755-19.108 14.543-29.609 16.171-15.974 2.479-29.81-12.03-45.09-17.473a41.483 41.483 0 0 0-21.799-1.676c-5.338 1.02-10.672 3.119-15.343 6.998-9.337 7.755-15.259 22.793-14.676 37.266.622 15.421 7.763 31.375 2.104 45.201-1.453 3.551-3.627 6.474-5.375 9.784-9.718 18.415-1.143 36.293 6.807 51.177 11.775 22.041 34.826 25.378 54.024 27.476 32.481 3.551 65.399-.373 98.109-.288 18.192.047 36.404 1.33 54.586-1.392 18.182-2.721 36.617-9.75 51.669-24.666 15.054-14.915 26.269-38.635 26.463-63.349.054-6.838-.757-13.786-3.234-19.575Z" opacity=".5"/>
  <path fill="url(#a)" d="M239.407 196.749s-9.313-10.405-7.799-20.242c1.515-9.837 9.072-8.664 12.435-2.846 3.363 5.816 6.386 5.018 4.388-.451-1.999-5.468-4.503-9.028-.362-14.471 4.141-5.444 4.57-7.756 2.244-12.614-2.326-4.857-5.248-11.74 4.009-14.195 9.256-2.455 18.478 5.089 16.319 14.965-2.159 9.875-3.455 10.95-.482 14.607 2.973 3.658 1.734 5.161 1.313 7.541-.422 2.38 4.12 2.938 4.025-.416-.098-3.354-5.875-11.268-1.931-14.96 3.944-3.693 11.674-3.733 13.653 4.806 1.979 8.539-4.363 12.375-4.047 15.463.316 3.088 3.723-1.595 6.689 1.553 2.967 3.149-1.028 5.621-3.968 7.326-2.939 1.707-7.373 4.764-3.155 6.984 4.218 2.22 8.212.095 5.628 6.952h-48.959v-.002Z"/>
  <path fill="#fff" d="M258.422 139.012c.304.144.571.324.83.518a7.157 7.157 0 0 1 1.854 2.146c.62 1.088.95 2.301 1.06 3.513.019.152.025.305.034.456.006.152.016.305.013.456l-.003.456-.025.454-.013.228-.025.227-.051.453c-.052.298-.087.601-.152.897-.062.297-.123.596-.202.888l-.114.441-.118.427-.476 1.703c-.629 2.269-1.235 4.537-1.713 6.818-.464 2.278-.784 4.583-.711 6.858.016.568.058 1.134.141 1.693.08.559.189 1.113.349 1.653.158.54.354 1.069.602 1.575.275.574.492 1.168.66 1.756.318 1.182.506 2.365.65 3.543.139 1.178.248 2.351.333 3.524.182 2.341.336 4.676.715 6.978.047.288.099.575.159.86.053.287.123.57.189.855.06.285.149.563.223.847.041.14.088.278.132.418.046.139.087.279.142.414l.156.411c.052.137.118.269.177.403.113.272.261.528.396.791.303.51.658.997 1.09 1.432l-.106.093a7.597 7.597 0 0 1-1.245-1.394 10.525 10.525 0 0 1-.877-1.605c-.495-1.107-.822-2.262-1.089-3.421-.535-2.32-.788-4.672-1.077-7.001-.146-1.165-.277-2.329-.457-3.479-.179-1.15-.401-2.29-.733-3.381a10.61 10.61 0 0 0-.626-1.566 11.103 11.103 0 0 1-.706-1.741 12.376 12.376 0 0 1-.417-1.798 15.863 15.863 0 0 1-.189-1.811c-.114-2.42.224-4.801.676-7.136.463-2.337 1.09-4.634 1.788-6.905.177-.568.354-1.134.538-1.699l.139-.423.127-.412c.09-.274.157-.552.231-.828.078-.277.127-.556.193-.834l.072-.421a11.848 11.848 0 0 0 .18-2.112 8.711 8.711 0 0 0-.157-1.682 8.3 8.3 0 0 0-.488-1.633 7.901 7.901 0 0 0-.389-.775 6.599 6.599 0 0 0-.482-.736 5.99 5.99 0 0 0-1.281-1.277l.073-.115ZM238.69 174.1a50.54 50.54 0 0 0 1.951 8.185c.071.225.153.444.229.666.075.222.157.441.24.662.157.443.333.878.506 1.314.185.433.366.866.569 1.293.188.43.402.851.61 1.274.437.838.898 1.665 1.409 2.466a26.592 26.592 0 0 0 1.674 2.331 26.417 26.417 0 0 0 1.984 2.142l-.1.097a17.404 17.404 0 0 1-2.263-1.972 21.522 21.522 0 0 1-1.872-2.289 24.825 24.825 0 0 1-1.514-2.493c-.218-.431-.442-.859-.639-1.297-.204-.435-.383-.881-.568-1.322-.172-.447-.349-.891-.504-1.342-.082-.224-.156-.45-.228-.677-.07-.227-.148-.453-.213-.682a33.163 33.163 0 0 1-.709-2.752c-.391-1.848-.664-3.717-.709-5.598l.147-.006Z" opacity=".62"/>
  <path fill="url(#b)" d="m134.85 148.343-4.59 41.304h53.252l-6.937-41.304H134.85Z"/>
  <path fill="url(#c)" d="M45.059 46.931v94.261c0 7.754 6.193 14.095 13.962 14.295 34.507.888 155.192 3.04 188.041 2.557 5.647-.084 10.22-4.591 10.382-10.222.634-21.898 1.662-74.557-2.145-99.003a10.846 10.846 0 0 0-10.376-9.166c-28.913-.921-156.849-3.851-189.681-3.116-5.663.127-10.183 4.743-10.183 10.394Z"/>
  <path fill="url(#d)" d="M50.827 46.369v89.643a8.296 8.296 0 0 0 8.172 8.293l183.02 2.259a8.07 8.07 0 0 0 8.195-8.039l.306-88.843a5.904 5.904 0 0 0-5.762-5.923L57.381 39.974a6.398 6.398 0 0 0-6.554 6.395Z"/>
  <path fill="#fff" d="M55.264 51.88v79.178c0 3.962 3.419 7.205 7.677 7.286l172.611 2.89c4.255.081 7.819-3.068 7.928-7.01l2.156-78.753c.08-2.877-2.318-5.244-5.394-5.323l-178.75-3.955c-3.415-.09-6.228 2.481-6.228 5.687Z" opacity=".3"/>
  <path fill="#fff" d="M252.014 150.563h-.004l-200.907-3.434a.282.282 0 0 1 .004-.564h.005l200.907 3.434a.283.283 0 0 1-.005.564Z" opacity=".65"/>
  <path fill="url(#e)" d="M194.792 198.087h-78.027c-2.12 0-3.711-1.509-3.301-3.129l1.001-3.958c.301-1.19 1.61-2.064 3.167-2.112l75.22-2.346c1.625-.05 3.064.812 3.418 2.049l1.805 6.304c.471 1.638-1.13 3.192-3.283 3.192Z"/>
  <path fill="#fff" d="M158.959 189.647c-.162 0-.295-.09-.297-.201-.003-.114.129-.206.292-.208l3.401-.035c.162 0 .3.089.301.202.003.114-.129.207-.291.208l-3.402.034h-.004Zm-42.617 6.217a.274.274 0 0 1-.278-.313l.46-2.781c.251-1.508 1.58-2.618 3.163-2.641l34.251-.482a.283.283 0 0 1 .286.266.277.277 0 0 1-.277.276l-34.251.482c-1.309.019-2.409.937-2.615 2.182l-.461 2.781a.278.278 0 0 1-.278.23Z"/>
  <path fill="url(#f)" d="M47.386 190.757c-9.807 1.85-22.33-8.239-26.364-19.263-4.152-11.344 3.461-16.096 3.402-31.837-.066-17.881-9.923-20.577-16.441-44.68C6.513 89.539-2 58.068 8.55 52.17c9.754-5.453 37.153 10.198 41.955 30.232 3.424 14.285-7.16 20.283-3.118 36.921 3.548 14.598 12.87 14.81 16.442 28.894 4.348 17.148-3.567 40.111-16.443 42.54Z"/>
  <path fill="#fff" d="M46.56 194.975c2.643-19.222-2.513-48.877-7.303-70.371-5.187-23.27-11.073-42.25-11.132-42.44l-.816.227c.059.19 5.938 19.144 11.117 42.385 4.777 21.43 9.918 50.987 7.292 70.098l.842.101Z"/>
  <path fill="url(#g)" d="M40.675 190.911c9.263-4.525 12.434-20.064 7.168-25.115-3.558-3.412-8.66.177-13.582-3.361-6.285-4.516-1.66-13.022-6.602-24.053-4.205-9.388-14.29-18.271-20.184-16.448-6.17 1.908-9.42 16.064-4.15 24.584 3.427 5.54 8.67 5.813 9.81 10.966 1.319 5.98-5.059 8.706-5.094 14.502-.064 10.414 20.378 24.912 32.634 18.925Z"/>
  <path fill="#fff" d="M35.805 194.977a.405.405 0 0 0 .166-.035.344.344 0 0 0 .176-.474c-12.395-23.754-16.03-51.311-16.065-51.587-.026-.193-.215-.333-.424-.309-.208.023-.357.199-.333.393.035.277 3.685 27.953 16.135 51.813a.391.391 0 0 0 .345.199Z"/>
  <path fill="#F0F0F0" d="M10.704 149.674a.2.2 0 0 0 .113-.035.158.158 0 0 0 .032-.236c-3.982-4.648-8.394-11.63-6.806-18.501.946-4.092 3.61-6.225 3.635-6.247a.158.158 0 0 0 .018-.238.198.198 0 0 0-.26-.018c-.115.089-2.785 2.23-3.757 6.433-.894 3.862-.425 10.255 6.876 18.776.04.043.094.066.149.066Zm30.984 39.529a.185.185 0 0 0 .149-.074c5.97-8.233 8.006-14.594 6.052-18.907-1.739-3.835-6.128-4.548-6.172-4.556a.18.18 0 0 0-.207.141c-.016.093.05.18.15.195.04.006 4.242.694 5.899 4.358 1.9 4.199-.126 10.448-6.02 18.576a.163.163 0 0 0 .048.236c.03.021.065.031.1.031Z"/>
  <path fill="#fff" d="M279.3 24.73c-1.4-2.055-3.521-2.924-5.622-2.347-2.29.63-3.616 3.148-5.752 4.13-3.729 1.714-8.794-1.859-11.674 2.662-3.523 5.528-6.116 1.303-6.173 5.09-.057 3.786 23.74 1.352 35.458 1.726 1.693.054 9.048.02 5.944-4.12-.964-1.286-2.362-1.52-3.665-1.836-1.698-.414-5.748-.687-6.959-2.249-.652-.84-.889-2.038-1.476-2.937l-.081-.119Zm-52.375 1.511c-1.017-1.477-2.559-2.101-4.084-1.687-1.662.452-2.626 2.263-4.178 2.969-2.707 1.232-6.387-1.337-8.478 1.913-2.559 3.974-4.442.938-4.483 3.658-.042 2.723 17.242.972 25.753 1.241 1.229.04 6.571.015 4.318-2.961-.7-.923-1.715-1.091-2.661-1.32-1.234-.298-4.175-.493-5.055-1.617-.473-.604-.646-1.465-1.073-2.11a2.188 2.188 0 0 1-.059-.086Z" opacity=".58"/>
  <path fill="#fff" d="m43.972 151.621-29.316-.174c-1.2-.008-1.946 1.392-1.328 2.492l.147.262c.278.495.778.799 1.319.799h29.168c.85 0 1.539-.736 1.539-1.645v-.088c.001-.905-.682-1.64-1.529-1.646Zm4.191 1.575v.055c0 .966.701 1.749 1.567 1.749h6.628c.71 0 1.332-.533 1.514-1.297.264-1.106-.478-2.192-1.504-2.201l-6.627-.055c-.87-.008-1.578.778-1.578 1.749Zm-11.29 3.756-22.22-.174c-1.198-.008-1.942 1.391-1.325 2.492l.146.261c.278.496.777.8 1.317.8h22.074c.848 0 1.536-.737 1.536-1.646v-.088c0-.904-.684-1.639-1.528-1.645Zm4.191 1.575v.055c0 .966.701 1.749 1.567 1.749h6.628c.71 0 1.332-.533 1.514-1.298.264-1.106-.478-2.192-1.503-2.2l-6.628-.055c-.87-.009-1.578.778-1.578 1.749ZM277.39 50.806l-29.316-.174c-1.201-.008-1.947 1.392-1.328 2.492l.147.262c.278.495.778.8 1.319.8h29.168c.85 0 1.538-.737 1.538-1.647v-.087c.002-.906-.683-1.641-1.528-1.646Zm4.19 1.575v.055c0 .966.702 1.75 1.568 1.75h6.628c.709 0 1.331-.534 1.513-1.298.265-1.106-.477-2.193-1.503-2.2l-6.628-.056c-.869-.006-1.578.778-1.578 1.75Zm-11.289 3.754-22.22-.174c-1.198-.008-1.943 1.391-1.325 2.492l.146.261c.278.496.777.8 1.316.8h22.074c.849 0 1.536-.737 1.536-1.646v-.088c0-.906-.681-1.64-1.527-1.645Zm4.19 1.575v.055c0 .966.702 1.749 1.568 1.749h6.628c.709 0 1.331-.533 1.513-1.298.265-1.106-.477-2.192-1.503-2.2l-6.628-.055c-.868-.007-1.578.778-1.578 1.749Z" opacity=".54"/>
  <path fill="url(#h)" d="M173.831 142.004a8.322 8.322 0 0 1-6.038-10.107l17.336-68.625a7.34 7.34 0 0 1 8.548-5.396l100.858 20.047a5.407 5.407 0 0 1 4.214 6.53l-18.439 79.014a5.136 5.136 0 0 1-6.259 3.811l-100.22-25.274Z"/>
  <path fill="url(#i)" d="M168.499 134.812a2.42 2.42 0 0 1-1.671-3.252c3.647-9.061 15.746-40.33 20.44-67.52a2.242 2.242 0 0 1 2.641-1.82l101.576 19.934a2.575 2.575 0 0 1 2.037 3.01c-2.171 11.385-11.283 58.233-17.179 74.276a2.047 2.047 0 0 1-2.409 1.277l-105.435-25.905Z"/>
  <path fill="#fff" d="M171.091 134.414a2.333 2.333 0 0 1-1.608-3.135c3.507-8.734 15.141-38.876 19.654-65.085a2.157 2.157 0 0 1 2.54-1.755l97.668 19.217a2.482 2.482 0 0 1 1.96 2.9c-2.089 10.975-10.85 56.134-16.519 71.6a1.965 1.965 0 0 1-2.316 1.23l-101.379-24.972Z" opacity=".6"/>
  <path fill="#fff" d="m243.455 93.4-1.747 6.883a1.94 1.94 0 0 0 1.444 2.364l7.127 1.672a1.955 1.955 0 0 0 2.342-1.414l1.836-7.237a1.94 1.94 0 0 0-1.539-2.383l-7.218-1.318a1.952 1.952 0 0 0-2.245 1.433Zm-26.95 3.007 7.031 1.691c1.023.246 2.051-.39 2.309-1.43l1.542-6.227c.272-1.093-.415-2.194-1.503-2.408l-7.104-1.394c-1.002-.197-1.981.439-2.231 1.447l-1.468 5.93c-.265 1.062.377 2.14 1.424 2.39Zm-.928 32.746-6.901-1.628c-1.155-.272-2.32.419-2.611 1.55l-1.627 6.327c-.289 1.124.391 2.269 1.529 2.576l6.844 1.847c1.174.316 2.383-.374 2.68-1.532l1.683-6.547c.297-1.152-.422-2.317-1.597-2.593Zm-13.704 5.615 1.547-6.173a2.09 2.09 0 0 0-1.527-2.542l-6.783-1.64a2.074 2.074 0 0 0-2.497 1.52l-1.491 5.951a2.09 2.09 0 0 0 1.462 2.526l6.729 1.862a2.075 2.075 0 0 0 2.56-1.504Zm7.343-28.108 1.297-5.089a2.258 2.258 0 0 0-1.702-2.754l-6.629-1.498a2.28 2.28 0 0 0-2.716 1.649l-1.239 4.863a2.256 2.256 0 0 0 1.627 2.735l6.571 1.723a2.278 2.278 0 0 0 2.791-1.629Zm-3.74 14.775 1.939-7.794c.278-1.116-.381-2.251-1.478-2.545l-6.577-1.765c-1.2-.322-2.428.411-2.732 1.633l-1.955 7.86c-.284 1.142.412 2.298 1.543 2.561l6.786 1.585a2.072 2.072 0 0 0 2.474-1.535Z" opacity=".6"/>
  <path fill="url(#j)" d="m229.854 99.53 7.203 1.676a1.975 1.975 0 0 0 2.366-1.417l1.72-6.72c.278-1.083-.426-2.174-1.539-2.386l-7.278-1.38a1.973 1.973 0 0 0-2.285 1.433l-1.645 6.425a1.94 1.94 0 0 0 1.458 2.37Z" opacity=".58"/>
  <path fill="url(#k)" d="m218.893 124.519 1.831-7.272a2.132 2.132 0 0 0-1.518-2.583l-6.726-1.785a2.127 2.127 0 0 0-2.608 1.54l-1.886 7.494a2.133 2.133 0 0 0 1.585 2.601l6.782 1.563a2.127 2.127 0 0 0 2.54-1.558Z" opacity=".58"/>
  <path fill="#fff" d="m236.39 104.881-7.844-1.803a1.627 1.627 0 0 0-1.938 1.196l-1.774 7.085a1.639 1.639 0 0 0 1.16 1.984l7.775 2.075a1.624 1.624 0 0 0 1.992-1.183l1.842-7.356a1.639 1.639 0 0 0-1.213-1.998Zm3.468 2.785-1.697 6.593c-.276 1.069.378 2.155 1.464 2.438l7.004 1.817c1.105.288 2.236-.367 2.515-1.453l1.76-6.83c.282-1.095-.41-2.203-1.535-2.454l-7.065-1.58c-1.086-.244-2.173.409-2.446 1.469Zm-27.167 2.566 7.847 2.078a1.64 1.64 0 0 0 2.01-1.185l1.741-6.901a1.642 1.642 0 0 0-1.225-2.003l-7.916-1.806a1.64 1.64 0 0 0-1.955 1.198l-1.673 6.629a1.645 1.645 0 0 0 1.171 1.99Zm19.815 7.984-6.784-1.783a2.149 2.149 0 0 0-2.63 1.539l-1.792 7.054a2.13 2.13 0 0 0 1.599 2.599l6.84 1.562a2.147 2.147 0 0 0 2.562-1.555l1.736-6.835a2.13 2.13 0 0 0-1.531-2.581Zm13.496 3.651-7.262-1.89c-1.023-.267-2.07.341-2.33 1.351l-1.805 7.037c-.261 1.017.379 2.045 1.418 2.28l7.32 1.657c1.007.228 2.016-.379 2.269-1.365l1.746-6.804a1.869 1.869 0 0 0-1.356-2.266Zm-42.04-28.173 5.342 1.275c1.421.34 2.849-.538 3.206-1.97l1.108-4.444c.336-1.343-.514-2.694-1.858-2.956l-6.003-1.168a2.616 2.616 0 0 0-3.031 1.952l-.927 3.712c-.399 1.599.576 3.219 2.163 3.6Zm-13.418 31.88c.313-1.224-.447-2.465-1.69-2.759l-2.401-.568c-1.824-.433-3.597.421-3.979 1.915l-1.105 4.323c-.379 1.483.749 3.052 2.544 3.539l2.557.693c1.153.314 2.342-.371 2.634-1.514l1.44-5.629Z" opacity=".6"/>
  <path fill="url(#l)" d="m266.913 141.525-4.628-1.122a2.13 2.13 0 0 0-2.564 1.565l-2.032 8.128a2.154 2.154 0 0 0 1.501 2.601l4.572 1.268c1.823.507 3.644-.347 4.029-1.887l1.742-6.97c.383-1.529-.796-3.141-2.62-3.583Z" opacity=".58"/>
  <path fill="#fff" d="m187.127 119.314 2.297.54c1.192.281 2.384-.464 2.684-1.677l1.988-8.048c.301-1.22-.415-2.46-1.604-2.782l-2.295-.621c-1.811-.489-3.602.373-3.984 1.917l-1.739 7.042c-.385 1.557.815 3.197 2.653 3.629Z" opacity=".6"/>
  <path fill="url(#m)" d="m190.63 104 2.959.756c.944.241 1.908-.308 2.148-1.222l1.481-5.665c.24-.921-.351-1.853-1.31-2.064l-3.013-.663c-1.827-.402-3.585.44-3.967 1.901l-.902 3.453c-.385 1.475.775 3.036 2.604 3.504Z" opacity=".58"/>
  <path fill="#fff" d="m277.382 98.21-4.689-.91a2.03 2.03 0 0 0-2.351 1.51l-2.007 8.032a2.05 2.05 0 0 0 1.502 2.496l4.782 1.139c1.784.426 3.512-.431 3.885-1.925l1.678-6.718c.397-1.589-.889-3.252-2.8-3.623Zm-48.477 34.051-6.842-1.629a2.153 2.153 0 0 0-2.588 1.551l-1.724 6.766a2.131 2.131 0 0 0 1.516 2.578l6.785 1.849c1.163.316 2.362-.375 2.656-1.534l1.78-6.985a2.13 2.13 0 0 0-1.583-2.596Z" opacity=".6"/>
  <path fill="url(#n)" d="m273.933 113.486-4.77-1.071c-1.088-.244-2.174.411-2.447 1.476l-1.931 7.533c-.275 1.073.379 2.164 1.465 2.448l4.752 1.238c1.834.478 3.65-.364 4.037-1.872l1.592-6.207c.39-1.524-.831-3.126-2.698-3.545Z" opacity=".58"/>
  <path fill="#fff" d="m270.085 127.92-4.931-1.282c-1.025-.267-2.074.341-2.334 1.351l-1.588 6.178c-.261 1.017.38 2.046 1.42 2.281l4.992 1.128c1.794.407 3.525-.435 3.9-1.896l1.095-4.26c.379-1.476-.759-3.032-2.554-3.5Zm-20.458-3.04-1.71 6.6c-.263 1.015.382 2.043 1.429 2.278l7.384 1.654c1.016.228 2.033-.378 2.289-1.363l1.649-6.367c.258-.993-.352-2.001-1.368-2.263l-7.324-1.888c-1.031-.266-2.087.342-2.349 1.349Zm5.93 14.043-6.723-1.63a2.118 2.118 0 0 0-2.548 1.556l-1.911 7.641a2.14 2.14 0 0 0 1.491 2.583l6.668 1.852a2.116 2.116 0 0 0 2.615-1.538l1.965-7.861a2.138 2.138 0 0 0-1.557-2.603Zm-61.398-47.716 2.781.68c.889.217 1.781-.345 2.004-1.262l1.381-5.67c.235-.966-.362-1.938-1.305-2.125l-2.974-.594c-1.702-.34-3.298.524-3.651 1.975l-.824 3.382c-.376 1.544.791 3.173 2.588 3.614Zm48.069 44.142-6.666-1.604a2.253 2.253 0 0 0-2.712 1.643l-1.788 7.101a2.14 2.14 0 0 0 1.504 2.586l6.725 1.853a2.134 2.134 0 0 0 2.636-1.539l1.874-7.435a2.143 2.143 0 0 0-1.573-2.605Zm14.646-39.191-1.853 7.524c-.276 1.117.396 2.249 1.49 2.513l6.916 1.672c1.071.259 2.146-.41 2.414-1.503l1.926-7.819c.283-1.15-.436-2.306-1.572-2.53l-6.986-1.38c-1.051-.205-2.074.463-2.335 1.523Zm-3.603 14.616-1.798 7.042a2.01 2.01 0 0 0 1.452 2.436l6.94 1.816a2.037 2.037 0 0 0 2.493-1.453l1.859-7.279a2.008 2.008 0 0 0-1.52-2.452l-7.002-1.578a2.035 2.035 0 0 0-2.424 1.468Z" opacity=".6"/>
  <path fill="#fff" d="m196.615 76.094-.226 2.49a1.627 1.627 0 0 0 1.223 1.724l.114.028a1.63 1.63 0 0 0 1.979-1.18l.621-2.459c.24-.954-.413-1.9-1.39-2.014l-.509-.06a1.633 1.633 0 0 0-1.812 1.471Zm11.095 2.22-.225 2.49a1.627 1.627 0 0 0 1.223 1.724l.114.029a1.63 1.63 0 0 0 1.979-1.18l.621-2.46a1.627 1.627 0 0 0-1.39-2.013l-.509-.06a1.63 1.63 0 0 0-1.813 1.47Zm13.755 3.109-.225 2.49a1.629 1.629 0 0 0 1.224 1.724l.114.029a1.628 1.628 0 0 0 1.978-1.18l.622-2.46a1.627 1.627 0 0 0-1.39-2.013l-.509-.06a1.63 1.63 0 0 0-1.814 1.47Zm13.315 2.221-.226 2.49a1.627 1.627 0 0 0 1.223 1.724l.114.028a1.63 1.63 0 0 0 1.979-1.18l.621-2.459c.24-.954-.413-1.9-1.39-2.014l-.509-.06a1.632 1.632 0 0 0-1.812 1.471Zm13.757 1.776-.226 2.49a1.627 1.627 0 0 0 1.224 1.725l.114.029a1.63 1.63 0 0 0 1.978-1.18l.622-2.46c.24-.953-.413-1.9-1.39-2.013l-.509-.06a1.628 1.628 0 0 0-1.813 1.47Zm14.201 3.554-.226 2.489a1.626 1.626 0 0 0 1.223 1.724l.114.029a1.628 1.628 0 0 0 1.978-1.18l.622-2.46c.24-.953-.413-1.9-1.39-2.013l-.509-.06a1.63 1.63 0 0 0-1.812 1.47Zm12.425 2.22-.227 2.49a1.627 1.627 0 0 0 1.223 1.724l.115.028a1.628 1.628 0 0 0 1.978-1.18l.621-2.46a1.626 1.626 0 0 0-1.39-2.013l-.508-.06c-.91-.103-1.73.56-1.812 1.47Z"/>
  <path fill="url(#o)" d="M200.599 72.834a3.33 3.33 0 0 0 3.328-3.33 3.33 3.33 0 0 0-3.328-3.332 3.33 3.33 0 0 0-3.328 3.331 3.33 3.33 0 0 0 3.328 3.331Z"/>
  <path fill="url(#p)" d="M219.681 76.832a3.33 3.33 0 0 0 3.328-3.331 3.33 3.33 0 1 0-6.657 0 3.33 3.33 0 0 0 3.329 3.33Z"/>
  <path fill="url(#q)" d="M239.65 80.83a3.33 3.33 0 0 0 3.329-3.332 3.33 3.33 0 1 0-6.657 0 3.33 3.33 0 0 0 3.328 3.331Z"/>
  <path fill="url(#r)" d="M260.063 84.382a3.33 3.33 0 0 0 3.328-3.331 3.33 3.33 0 0 0-3.328-3.331 3.33 3.33 0 0 0-3.328 3.33 3.33 3.33 0 0 0 3.328 3.332Z"/>
  <path fill="url(#s)" d="M280.033 87.936a3.33 3.33 0 0 0 3.328-3.331 3.33 3.33 0 0 0-3.328-3.331 3.33 3.33 0 0 0-3.328 3.331 3.33 3.33 0 0 0 3.328 3.331Z"/>
  <path fill="url(#t)" d="m200.999 70.55-.929-.232c-1.009-.253-1.647-1.169-1.424-2.046l3-11.787c.162-.64.753-1.107 1.495-1.184l2.129-.22c1.372-.141 2.525 1.054 2.128 2.21l-4.2 12.24c-.28.815-1.24 1.259-2.199 1.018Z"/>
  <path fill="url(#u)" d="m220.082 74.547-.928-.231c-1.009-.253-1.647-1.17-1.424-2.046l2.999-11.787c.162-.641.753-1.107 1.496-1.184l2.129-.22c1.371-.142 2.524 1.054 2.127 2.21l-4.2 12.24c-.28.813-1.239 1.259-2.199 1.018Z"/>
  <path fill="url(#v)" d="m239.608 78.988-.929-.231c-1.01-.253-1.647-1.17-1.423-2.046l2.999-11.788c.162-.64.753-1.107 1.495-1.183l2.129-.22c1.372-.142 2.525 1.053 2.128 2.209l-4.2 12.24c-.28.814-1.24 1.26-2.199 1.02Z"/>
  <path fill="url(#w)" d="m260.464 82.543-.928-.232c-1.009-.253-1.647-1.169-1.424-2.046l3-11.787c.162-.64.752-1.107 1.495-1.184l2.129-.22c1.372-.141 2.525 1.054 2.127 2.21l-4.2 12.24c-.279.813-1.239 1.259-2.199 1.019Z"/>
  <path fill="url(#x)" d="m280.432 86.538-.928-.231c-1.009-.252-1.647-1.169-1.424-2.046l3-11.788c.162-.64.751-1.107 1.495-1.183l2.129-.22c1.372-.142 2.525 1.053 2.128 2.209l-4.201 12.241c-.279.813-1.239 1.258-2.199 1.019Z"/>
  <path fill="url(#y)" d="M217.897 95.932a.9.9 0 0 1-.835-.551l-1.532-3.7a.88.88 0 0 1 .493-1.154.904.904 0 0 1 1.173.486l1.138 2.744 8.193-4.806a.907.907 0 0 1 1.234.308.877.877 0 0 1-.312 1.214l-9.092 5.334a.918.918 0 0 1-.46.125Z"/>
  <path fill="url(#z)" d="M259.168 104.817a.905.905 0 0 1-.835-.551l-1.532-3.699a.88.88 0 0 1 .493-1.154.904.904 0 0 1 1.173.485l1.138 2.744 8.193-4.806a.907.907 0 0 1 1.234.308.877.877 0 0 1-.312 1.215l-9.092 5.334a.91.91 0 0 1-.46.124Z"/>
  <path fill="url(#A)" d="M237.423 129.687a.9.9 0 0 1-.835-.552l-1.532-3.698a.88.88 0 0 1 .493-1.155.905.905 0 0 1 1.173.486l1.137 2.744 8.194-4.806a.907.907 0 0 1 1.234.308.877.877 0 0 1-.312 1.214l-9.092 5.334a.916.916 0 0 1-.46.125Z"/>
  <path fill="url(#B)" d="M245.412 147.007a.897.897 0 0 1-.834-.552l-1.533-3.698a.881.881 0 0 1 .494-1.155.906.906 0 0 1 1.173.486l1.137 2.744 8.193-4.806a.908.908 0 0 1 1.235.308.879.879 0 0 1-.312 1.214l-9.092 5.334a.914.914 0 0 1-.461.125Z"/>
  <path fill="url(#C)" d="M193.047 133.682a.9.9 0 0 1-.835-.551l-1.532-3.699a.88.88 0 0 1 .493-1.154.903.903 0 0 1 1.173.486l1.137 2.744 8.194-4.807a.909.909 0 0 1 1.234.308.878.878 0 0 1-.312 1.215l-9.092 5.334a.9.9 0 0 1-.46.124Z"/>
  <path fill="url(#D)" d="M197.039 119.915a.897.897 0 0 1-.834-.551l-1.533-3.699a.88.88 0 0 1 .494-1.154.904.904 0 0 1 1.173.485l1.137 2.744 8.193-4.806a.908.908 0 0 1 1.235.308.878.878 0 0 1-.312 1.214l-9.092 5.334a.904.904 0 0 1-.461.125Z"/>
  <path fill="url(#E)" d="M219.555 111.474a.788.788 0 0 1-.676-.38L213.358 102a.776.776 0 0 1 .27-1.073.791.791 0 0 1 1.082.267l5.521 9.095a.777.777 0 0 1-.27 1.073.79.79 0 0 1-.406.112Z"/>
  <path fill="url(#F)" d="M212.374 109.625a.82.82 0 0 0 .789-.059l9.045-5.973a.78.78 0 0 0 .218-1.094.809.809 0 0 0-1.113-.215l-9.045 5.973a.779.779 0 0 0-.219 1.094.815.815 0 0 0 .325.274Z"/>
  <path fill="url(#G)" d="M226.212 142.121a.79.79 0 0 1-.676-.38l-5.521-9.095a.775.775 0 0 1 .27-1.072.791.791 0 0 1 1.082.267l5.521 9.095a.775.775 0 0 1-.27 1.072.782.782 0 0 1-.406.113Z"/>
  <path fill="url(#H)" d="M219.031 140.27c.247.113.547.1.789-.06l9.045-5.972a.78.78 0 0 0 .218-1.095.81.81 0 0 0-1.113-.215l-9.045 5.973a.78.78 0 0 0-.218 1.094.767.767 0 0 0 .324.275Z"/>
  <path fill="#fff" d="M270.589 118.141a.545.545 0 0 0 .375-.152l7.392-7.11a3.406 3.406 0 0 1 2.371-.959h25.162a.549.549 0 0 0 .545-.553.549.549 0 0 0-.545-.553h-25.162a4.48 4.48 0 0 0-3.119 1.262l-7.393 7.11a.558.558 0 0 0-.02.781.53.53 0 0 0 .394.174Zm14.196-11.548h21.109c.298 0 .54-.198.54-.444s-.242-.444-.54-.444h-21.109c-.298 0-.54.198-.54.444s.242.444.54.444Zm3.116-3.552h17.983c.304 0 .549-.199.549-.444 0-.246-.245-.444-.549-.444h-17.983c-.304 0-.549.198-.549.444 0 .244.245.444.549.444Z"/>
  <path fill="url(#I)" d="m11.801 24.77 8.013 86.801c.297 3.217 3.748 5.703 7.889 5.681l129.877-.688c4.219-.023 7.663-2.638 7.799-5.924l3.489-84.82c.142-3.428-3.358-6.277-7.759-6.317L19.729 18.21c-4.597-.04-8.258 2.989-7.928 6.56Z"/>
  <path fill="#fff" d="m18.007 36.495 7.1 72.721c.175 1.782 2.233 3.161 4.704 3.151l127.804-.481c2.565-.01 4.644-1.506 4.667-3.361l.823-70.201c.022-1.856-2.026-3.379-4.593-3.417l-135.728-2.04c-2.76-.041-4.972 1.638-4.777 3.628Z" opacity=".9"/>
  <path fill="url(#J)" d="M53.506 37.752h.569c.491 0 .892.412.9.926l1.18 70.953c.008.528-.398.96-.9.96-.49 0-.888-.407-.9-.919l-1.75-70.953c-.014-.529.394-.967.9-.967Z"/>
  <path fill="url(#K)" d="m24.927 42.192 20.776.183c.875.007 1.58.759 1.58 1.685 0 .935-.72 1.692-1.604 1.685L24.911 45.6c-.736-.004-1.373-.543-1.54-1.302l-.009-.039c-.235-1.062.534-2.076 1.565-2.067Z"/>
  <path fill="url(#L)" d="M30.256 47.968c3.95.097 12.074.214 15.475.262.86.013 1.55.695 1.55 1.534v.223c0 .847-.705 1.533-1.575 1.533H30.38a1.57 1.57 0 0 1-1.498-1.063l-.161-.487c-.334-1.004.45-2.029 1.535-2.002Z"/>
  <path fill="url(#M)" d="M29.534 54.987v.272c0 .878.68 1.59 1.517 1.59h14.317c.814 0 1.473-.69 1.473-1.544 0-.864-.67-1.565-1.494-1.565H30.726c-.66 0-1.192.558-1.192 1.247Z"/>
  <g opacity=".9">
    <path fill="#fff" d="M136.408 30.858a3.975 3.975 0 0 0 1.914-5.304 4.016 4.016 0 0 0-5.325-1.926 3.975 3.975 0 0 0-1.914 5.304 4.016 4.016 0 0 0 5.325 1.926Zm10.277.677a3.995 3.995 0 0 0 3.994-3.997 3.996 3.996 0 0 0-3.994-3.997 3.996 3.996 0 0 0-3.994 3.997 3.995 3.995 0 0 0 3.994 3.997Zm15.581-1.567a3.973 3.973 0 0 0-1.377-5.467 4.017 4.017 0 0 0-5.491 1.386 3.973 3.973 0 0 0 1.377 5.466 4.017 4.017 0 0 0 5.491-1.386Z" opacity=".75"/>
  </g>
  <path fill="url(#N)" d="m86.409 42.32-21.055-.127a1.202 1.202 0 0 0-1.21 1.262l.593 12.2c.034.69.605 1.194 1.298 1.194h22.55c.693 0 1.264-.502 1.296-1.193l.443-9.043-3.915-4.292Z"/>
  <path fill="url(#O)" d="M87.434 46.52c-.652-.025-1.153-.641-1.101-1.353l.214-2.974 3.776 4.441-2.89-.115Z"/>
  <path fill="#fff" d="M85.002 46.635h-16.87c-.49 0-.884.298-.884.666 0 .367.395.667.883.667h16.871c.489 0 .884-.298.884-.667 0-.368-.397-.666-.884-.666Zm0 3.553h-16.87c-.49 0-.884.297-.884.666 0 .367.395.666.883.666h16.871c.489 0 .884-.298.884-.666 0-.369-.397-.666-.884-.666Z" opacity=".58"/>
  <path fill="url(#P)" d="m117.474 42.32-21.056-.127a1.202 1.202 0 0 0-1.21 1.262l.594 12.2c.034.69.604 1.194 1.296 1.194h22.551c.693 0 1.264-.502 1.296-1.193l.443-9.043-3.914-4.292Z"/>
  <path fill="url(#Q)" d="M118.498 46.52c-.652-.025-1.153-.641-1.101-1.353l.214-2.974 3.776 4.441-2.889-.115Z"/>
  <path fill="#fff" d="M116.067 46.635H99.196c-.489 0-.884.298-.884.666 0 .367.395.667.884.667h16.871c.488 0 .883-.298.883-.667 0-.368-.396-.666-.883-.666Zm0 3.553H99.196c-.489 0-.884.297-.884.666 0 .367.395.666.884.666h16.871c.488 0 .883-.298.883-.666 0-.369-.396-.666-.883-.666Z" opacity=".58"/>
  <path fill="url(#R)" d="m148.538 42.32-21.056-.127a1.202 1.202 0 0 0-1.21 1.262l.594 12.2c.034.69.605 1.194 1.296 1.194h22.551c.694 0 1.264-.502 1.297-1.193l.442-9.043-3.914-4.292Z"/>
  <path fill="url(#S)" d="M149.562 46.52c-.651-.025-1.153-.641-1.101-1.353l.214-2.974 3.776 4.441-2.889-.115Z"/>
  <path fill="#fff" d="M147.134 46.635h-16.871c-.489 0-.884.298-.884.666 0 .367.395.667.884.667h16.871c.488 0 .883-.298.883-.667.002-.368-.395-.666-.883-.666Zm0 3.553h-16.871c-.489 0-.884.297-.884.666 0 .367.395.666.884.666h16.871c.488 0 .883-.298.883-.666.002-.369-.395-.666-.883-.666Z" opacity=".58"/>
  <path fill="url(#T)" d="m117.474 61.862-21.056-.13a1.207 1.207 0 0 0-1.21 1.27l.594 12.234c.034.694.604 1.152 1.296 1.152h22.551c.693 0 1.264-.458 1.296-1.152l.443-9.08-3.914-4.294Z"/>
  <path fill="url(#U)" d="M118.498 66.058c-.652-.025-1.153-.64-1.101-1.353l.214-2.974 3.776 4.442-2.889-.115Z"/>
  <path fill="#fff" d="M116.067 66.171H99.196c-.489 0-.884.298-.884.667 0 .367.395.666.884.666h16.871c.488 0 .883-.298.883-.666 0-.369-.396-.666-.883-.666Zm0 3.553H99.196c-.489 0-.884.297-.884.666 0 .367.395.666.884.666h16.871c.488 0 .883-.297.883-.666 0-.369-.396-.666-.883-.666Z" opacity=".58"/>
  <path fill="url(#V)" d="m148.538 61.862-21.056-.13a1.206 1.206 0 0 0-1.21 1.27l.594 12.234c.034.694.605 1.152 1.296 1.152h22.551c.694 0 1.264-.458 1.297-1.152l.442-9.08-3.914-4.294Z"/>
  <path fill="url(#W)" d="M149.562 66.058c-.651-.025-1.153-.64-1.101-1.353l.214-2.974 3.776 4.442-2.889-.115Z"/>
  <path fill="#fff" d="M147.134 66.171h-16.871c-.489 0-.884.298-.884.667 0 .367.395.666.884.666h16.871c.488 0 .883-.298.883-.666.002-.369-.395-.666-.883-.666Zm0 3.553h-16.871c-.489 0-.884.297-.884.666 0 .367.395.666.884.666h16.871c.488 0 .883-.297.883-.666.002-.369-.395-.666-.883-.666Z" opacity=".58"/>
  <path fill="url(#X)" d="m117.474 80.96-21.056-.129a1.205 1.205 0 0 0-1.21 1.267l.594 12.218c.034.692.604 1.172 1.296 1.172h22.551c.693 0 1.264-.48 1.296-1.172l.443-9.062-3.914-4.294Z"/>
  <path fill="url(#Y)" d="M118.498 85.158c-.652-.025-1.153-.64-1.101-1.353l.214-2.974 3.776 4.442-2.889-.115Z"/>
  <path fill="#fff" d="M116.067 85.274H99.196c-.489 0-.884.298-.884.666 0 .368.395.667.884.667h16.871c.488 0 .883-.298.883-.666 0-.37-.396-.667-.883-.667Zm0 3.553H99.196c-.489 0-.884.297-.884.666 0 .367.395.666.884.666h16.871c.488 0 .883-.297.883-.666 0-.367-.396-.666-.883-.666Z" opacity=".58"/>
  <path fill="url(#Z)" d="m148.538 80.96-21.056-.128a1.204 1.204 0 0 0-1.21 1.266l.594 12.218c.034.692.605 1.172 1.296 1.172h22.551c.694 0 1.264-.48 1.297-1.172l.442-9.062-3.914-4.294Z"/>
  <path fill="url(#aa)" d="M149.562 85.158c-.651-.025-1.153-.64-1.101-1.353l.214-2.974 3.776 4.442-2.889-.115Z"/>
  <path fill="#fff" d="M147.134 85.274h-16.871c-.489 0-.884.298-.884.666 0 .368.395.667.884.667h16.871c.488 0 .883-.298.883-.666.002-.37-.395-.667-.883-.667Zm0 3.553h-16.871c-.489 0-.884.297-.884.666 0 .367.395.666.884.666h16.871c.488 0 .883-.297.883-.666.002-.367-.395-.666-.883-.666Z" opacity=".58"/>
  <path fill="url(#ab)" d="M75.744 74.02s3.45 15.053-10.498 23.688l-3.325-1.7s11.483-9.83 12.338-20.842l-5.076-1.465-1.923-3.085 8.484 3.403Z"/>
  <path fill="url(#ac)" d="m84.516 59.956-20.71 3.602c-.68.118-1.12.779-.964 1.445l2.767 11.78c.156.667.804 1.038 1.484.915l22.155-3.991c.68-.122 1.155-.696 1.065-1.374l-1.184-8.89-4.613-3.487Z"/>
  <path fill="url(#ad)" d="M86.289 63.94c-.71.1-1.361-.394-1.434-1.088l-.301-2.896 4.881 3.542-3.146.442Z"/>
  <path fill="#fff" d="m84.448 64.418-16.86 2.86c-.487.082-.835.396-.775.698.059.303.502.482.99.399l16.859-2.86c.487-.083.835-.396.775-.698-.058-.303-.502-.482-.99-.399Zm.444 3.552-16.86 2.86c-.487.083-.835.396-.775.698.06.303.502.482.99.399l16.86-2.86c.486-.083.834-.396.775-.698-.058-.303-.503-.482-.99-.399Z" opacity=".58"/>
  <path fill="url(#ae)" d="M58.815 129.074s-6.884 15.36-10.496 21.723c0 0-.717 4.003 0 5.262l.611.277-2.853-.087s-.254-5.384-.055-5.686c.198-.301.595-.28.595-.28s1.223-9.923 4.766-12.041l3.433-12.107 4 2.939Z"/>
  <path fill="url(#af)" d="M49.94 156.738c.005.069-2.24.038-3.459.016a.966.966 0 0 1-.93-.754l-.92-4.769a.86.86 0 0 1 .66-.997l.513-.116s.732.991.502 1.925c-.231.934-.437 3.353.146 3.634.583.282 2.261.331 2.261.331s1.19.115 1.227.73Z"/>
  <path fill="url(#ag)" d="M65.342 157.177c.23.134.135.494-.129.491-2.065-.021-6.691-.089-7.102-.263-.531-.226.194-2.183.955-2.846l4.208 1.409 2.068 1.209Z"/>
  <path fill="url(#ah)" d="M66.803 128.355s-4.504 21.828-5.778 26.086l3.015 1.895s-1.51-.258-2.63-.338c-1.121-.082-2.15-1.37-2.15-1.37l.36-.576s1.13-21.708.855-24.174l6.328-1.523Z"/>
  <path fill="url(#ai)" d="M77.748 77.064s.616 11.371-9.615 17.18l2.464 5.685s9.263-5.669 8.92-21.13a1.8 1.8 0 0 1 .434-1.21l1.97-2.31a3.605 3.605 0 0 0 .75-3.203l-.259-1.048a.535.535 0 0 0-.79-.338l-.206.121a3.64 3.64 0 0 0-1.484 1.67l-.967 2.185a2.073 2.073 0 0 1-2.075 1.235l-.598-.053 1.456 1.216Z"/>
  <path fill="url(#aj)" d="M68.744 93.29c-1.732.484-7.598 2.04-11.26 1.976l2.248 12.794-.178 2.087 7.33-.033s2.065-4.833 3.692-7.242c.47-.695.12-1.525-.146-2.323l.366-.245c.372-.25.534-.72.395-1.15l-1.785-5.507a.543.543 0 0 0-.662-.357Z"/>
  <path fill="url(#ak)" d="m67.166 109.069-.142 1.257s2.04 6.218-1.02 20.743c0 0-6.625 1.912-12.07-2.662 0 0 1.535-13.709 1.955-14.348 2.09-3.18 3.482-3.871 3.482-3.871l.064-1.373c-.002 0 5.823 1.072 7.73.254Z"/>
  <path fill="url(#al)" d="M64.139 94.508c.025-.034-1.467-4.793-1.467-4.793l-2.137.206-.834 5.399s3.348.72 4.438-.812Z"/>
  <path fill="url(#am)" d="M61.133 82.393c.148.094 4.745 2.024 3.757 6.875a.907.907 0 0 1-.51.648c-.673.305-2.126.829-3.862.65-2.407-.25-3.986-4.52-3.919-5.763.068-1.241 3.068-3.338 4.535-2.41Z"/>
  <path fill="url(#an)" d="M61.077 82.273s-3.042 2.65-2.056 4.413c.986 1.762.649 1.586.649 1.586s-1.318.036-.297.916c1.022.88 1.646.317 1.704 1.339.059 1.021 11.1 19.417 4.522 24.022-6.578 4.606-15.413 3.289-17.855-3.664-2.443-6.954 5.498-14.519 5.216-20.486-.128-2.695 1.008-5.502 2.66-7.595.768-.974 1.735-2.08 2.879-2.615.553-.258 1.213-.38 1.752-.015.452.304 1.054 1.559.826 2.099Z"/>
  <path fill="#fff" d="M56.117 115.917c-1.436-.053-2.966-.645-4.306-1.671-1.325-1.013-2.32-2.328-2.803-3.705-1.084-3.089.255-6.294 1.435-9.122l.198-.474c.492-1.185 1.032-2.37 1.555-3.515.354-.774.72-1.574 1.065-2.366a.036.036 0 0 1 .048-.019c.018.009.026.03.018.048-.346.793-.712 1.594-1.066 2.368a106.441 106.441 0 0 0-1.752 3.986c-1.175 2.815-2.508 6.005-1.433 9.068.993 2.832 4.152 5.222 7.042 5.327.02 0 .036.018.035.038a.035.035 0 0 1-.036.037Zm4.434-33.309a.041.041 0 0 1-.04-.034c-.17-1.16-1.218-1.66-1.227-1.665a.04.04 0 0 1-.02-.054.039.039 0 0 1 .053-.02c.012.005 1.1.525 1.274 1.727a.04.04 0 0 1-.033.046h-.007Z" opacity=".8"/>
  <path fill="url(#ao)" d="M66.805 199.862c-.245 0-.444-.155-.444-.348v-41.497c0-.192.199-.348.444-.348.246 0 .444.156.444.348v41.497c0 .193-.2.348-.444.348Z"/>
  <path fill="url(#ap)" d="M53.05 199.862c-.246 0-.445-.155-.445-.348v-41.497c0-.192.199-.348.445-.348.245 0 .444.156.444.348v41.497c0 .193-.199.348-.444.348Z"/>
  <path fill="url(#aq)" d="M18.944 199.862a.703.703 0 0 1-.199-.028c-.258-.074-.38-.277-.268-.452l26.05-41.503c.11-.175.409-.257.668-.182.258.074.38.277.269.452l-26.05 41.503c-.083.131-.271.21-.47.21Z"/>
  <path fill="url(#ar)" d="M35.364 199.862a.703.703 0 0 1-.199-.028c-.259-.074-.38-.277-.269-.452l26.05-41.503c.11-.175.41-.257.668-.182.26.074.38.277.27.452l-26.051 41.503c-.083.131-.272.21-.47.21Z"/>
  <path fill="url(#as)" d="M68.095 158.112H43.773c-.268 0-.486-.199-.486-.444 0-.246.218-.444.486-.444h24.322c.269 0 .486.198.486.444 0 .245-.217.444-.486.444Z"/>
  <path fill="url(#at)" d="M57.415 164.773H41.137c-.284 0-.514-.198-.514-.444 0-.245.23-.444.514-.444h16.278c.285 0 .515.199.515.444 0 .246-.232.444-.515.444Z"/>
  <path fill="url(#au)" d="M52.605 171.88h-16.42v.888h16.42v-.888Z"/>
  <path fill="url(#av)" d="M47.724 179.43h-16.42v.888h16.42v-.888Z"/>
  <path fill="url(#aw)" d="M42.77 188.314H26.494c-.284 0-.514-.199-.514-.445 0-.245.23-.444.514-.444h16.278c.284 0 .514.199.514.444 0 .246-.23.445-.514.445Z"/>
  <path fill="url(#ax)" d="M37.89 196.307H21.611c-.285 0-.515-.199-.515-.445 0-.245.23-.444.515-.444h16.277c.285 0 .515.199.515.444-.002.246-.232.445-.515.445Z"/>
  <path fill="#fff" d="m284.214 125.571.454-.885a.227.227 0 0 0-.091-.302.215.215 0 0 0-.293.094l-.005.009-.445.868-.004.009a.227.227 0 0 0 .091.302.216.216 0 0 0 .293-.095Zm1.436-2.691.363-.904c.045-.112-.031-.234-.169-.27-.137-.037-.286.025-.331.137l-.006.012-.351.88-.005.012c-.046.112.03.233.168.269.139.038.288-.024.331-.136Zm.739-3.144a14.3 14.3 0 0 0 .079-.927c.006-.116-.072-.216-.172-.223-.102-.007-.188.082-.195.198-.016.299-.041.598-.075.896-.014.115.058.22.158.236.099.016.191-.065.205-.18Zm.078-3.165a14.179 14.179 0 0 0-.114-.923c-.018-.115-.106-.19-.195-.167-.09.023-.149.136-.131.251.046.295.083.591.111.889.012.117.094.201.184.187.091-.015.156-.12.145-.237Zm-.903-3.18a13.272 13.272 0 0 0-.418-.898.245.245 0 0 0-.318-.105.221.221 0 0 0-.111.302c.146.284.282.574.405.866a.242.242 0 0 0 .309.126.219.219 0 0 0 .133-.291Zm-1.351-2.747-.5-.843c-.065-.109-.187-.131-.272-.051-.087.082-.104.235-.04.345l.006.011.487.819.007.011c.065.108.187.131.273.049.084-.08.102-.231.039-.341Zm-1.822-2.587-.808-.525a.348.348 0 0 0-.37.01c-.098.073-.093.188.014.257l.008.006.791.513.009.006c.105.068.27.063.368-.01.1-.073.093-.188-.012-.257Zm-2.684-1.83-.841-.487c-.111-.063-.265-.041-.341.051-.077.091-.05.218.06.282l.008.004.828.476.008.003c.11.064.262.042.341-.05.075-.09.048-.216-.063-.279Zm-2.682-1.827-.86-.443a.241.241 0 0 0-.32.09.22.22 0 0 0 .095.304l.006.002.85.435.006.003a.243.243 0 0 0 .319-.092.217.217 0 0 0-.096-.299Zm-2.678-1.386-.871-.396a.224.224 0 0 0-.302.129.25.25 0 0 0 .121.322l.006.003.86.391.005.003c.117.054.252-.005.302-.13a.252.252 0 0 0-.121-.322Zm-3.123-.942-.877-.349c-.119-.048-.248.029-.288.171-.041.141.025.294.143.342l.005.002.868.344.004.001c.119.047.248-.029.287-.17.04-.141-.023-.294-.142-.341Zm-3.118-.945-.881-.299c-.121-.041-.244.054-.275.21-.031.158.041.318.161.359l.004.002.872.296.005.002c.119.041.243-.054.275-.21.031-.159-.04-.319-.161-.36Zm-3.119-1.069-.883-.123c-.122-.017-.239.04-.263.127-.024.087.056.171.177.188l.004.001.875.121.004.001c.121.017.239-.04.263-.127.023-.088-.056-.171-.177-.188Zm-3.122-.473-.883-.095c-.122-.013-.235.055-.252.15-.017.097.07.185.192.198h.005l.874.093h.004c.123.013.236-.055.252-.15.017-.095-.069-.183-.192-.196Zm-3.119-.033-.881-.063c-.123-.008-.233.07-.242.175-.01.105.082.198.205.207h.004l.874.06h.004c.124.01.232-.069.243-.174.008-.105-.083-.197-.207-.205Zm-3.113-.483-.881-.026c-.125-.004-.23.088-.234.203-.004.116.094.213.219.217h.002l.875.024h.003c.124.004.228-.087.232-.203.007-.115-.091-.211-.216-.215Zm-3.122-.026-.878.015c-.126.002-.226.1-.223.218a.222.222 0 0 0 .231.211h.003l.871-.015h.003a.222.222 0 0 0 .223-.22c-.001-.116-.105-.211-.23-.209Zm-3.118.001-.876.05c-.126.007-.221.1-.213.21.008.108.117.19.243.183h.003l.87-.05h.002c.125-.007.222-.1.212-.21-.007-.109-.114-.19-.241-.183Zm-3.117.446-.872.072c-.127.011-.219.102-.205.204.014.102.126.176.253.165h.001l.868-.073h.002c.126-.01.217-.102.205-.204-.013-.102-.126-.175-.252-.165Zm-3.114.443-.87.087c-.126.013-.215.103-.199.201.017.097.133.166.26.153h.001l.866-.088h.001c.126-.012.216-.102.199-.2-.016-.096-.132-.165-.258-.153Zm-3.115.444-.865.099c-.128.015-.214.103-.194.198.019.094.139.158.267.143h.001l.862-.101h.002c.126-.015.214-.102.193-.197-.02-.092-.14-.156-.266-.142Zm-2.666.447-.864.222c-.128.033-.212.207-.19.386.023.182.146.301.273.269h.001l.86-.222h.001c.128-.033.212-.207.189-.386-.02-.184-.142-.303-.27-.269Zm-3.116.446-.859.241c-.128.036-.21.207-.184.382.026.175.151.288.279.252h.002l.856-.241h.001c.128-.035.21-.207.183-.382-.024-.175-.15-.288-.278-.252Zm-3.116.89-.855.258c-.128.039-.208.208-.179.378.028.169.157.275.285.236h.001l.853-.258h.001c.128-.039.208-.208.179-.377-.03-.17-.157-.275-.285-.237Zm-3.112.447-.853.274c-.128.041-.207.208-.174.373.032.164.163.264.291.222h.002l.849-.274h.001c.128-.04.206-.208.174-.372s-.162-.265-.29-.223Zm-3.112.889-.848.288c-.129.043-.205.21-.17.369.034.16.168.254.297.211h.001l.845-.288c.129-.043.206-.208.171-.367-.034-.161-.168-.255-.296-.213Zm-3.116.888-.844.299c-.129.045-.203.209-.164.366.037.156.172.246.302.199h.002l.841-.299c.129-.045.203-.207.166-.364-.039-.156-.174-.246-.303-.201Zm-2.668.89-.841.311c-.129.047-.201.21-.16.362.04.152.178.237.307.189h.001l.839-.31c.129-.047.202-.209.162-.361-.04-.153-.179-.238-.308-.191Zm-3.112.89-.837.319c-.129.05-.2.211-.157.36.043.149.183.23.312.181h.001l.835-.32c.129-.05.2-.21.159-.36-.042-.147-.182-.228-.313-.18Zm-3.113.889-.833.329c-.131.052-.198.211-.153.356.046.148.187.224.318.173h.001l.831-.329c.13-.05.198-.209.154-.356-.046-.144-.189-.223-.318-.173Zm-2.667 1.334-.832.334c-.13.053-.197.212-.15.355.048.144.192.218.321.166h.002l.828-.335c.131-.052.198-.21.15-.354-.046-.145-.19-.218-.319-.166Zm-3.113.889-.827.341c-.131.054-.196.213-.146.353.05.142.196.213.325.159h.002l.824-.341c.131-.053.196-.212.147-.353-.048-.141-.194-.212-.325-.159Zm-2.668 1.333-.823.347a.276.276 0 0 0-.143.351.249.249 0 0 0 .329.153h.002l.821-.347a.276.276 0 0 0 .144-.35c-.052-.139-.199-.209-.33-.154Zm-3.11.89-.821.351a.273.273 0 0 0-.14.35.253.253 0 0 0 .333.148h.001l.819-.352a.272.272 0 0 0 .14-.349.25.25 0 0 0-.332-.148Zm-2.67 1.332-.816.355a.272.272 0 0 0-.138.35.256.256 0 0 0 .337.143h.001l.815-.355a.269.269 0 0 0 .138-.348.256.256 0 0 0-.337-.145Zm-3.11 1.335-.814.358a.267.267 0 0 0-.135.348.257.257 0 0 0 .34.14h.001l.812-.358a.269.269 0 0 0 .137-.348.26.26 0 0 0-.341-.14Zm-2.665.89-.811.36a.265.265 0 0 0-.134.348.258.258 0 0 0 .343.135h.001l.81-.361a.265.265 0 0 0 .133-.348.258.258 0 0 0-.342-.134Zm-3.109 1.33-.809.363a.262.262 0 0 0 .213.48l.808-.363a.263.263 0 0 0-.212-.48Zm-2.665 1.335-.807.363a.263.263 0 0 0-.131.347c.06.132.216.191.348.131l.806-.365a.261.261 0 1 0-.216-.476Zm-3.112 1.333-.803.365a.26.26 0 0 0-.13.347c.061.132.218.19.35.129l.803-.364a.262.262 0 0 0 .13-.347.267.267 0 0 0-.35-.13Zm-2.663 1.331-.802.364a.261.261 0 0 0-.13.348.267.267 0 0 0 .352.128l.801-.365a.26.26 0 0 0 .129-.347.265.265 0 0 0-.35-.128Zm-2.664 1.334-.799.364a.262.262 0 0 0-.131.348.27.27 0 0 0 .354.128l.799-.364a.262.262 0 0 0 .13-.348.268.268 0 0 0-.353-.128Zm-3.107 1.332-.798.362a.262.262 0 0 0-.131.349.27.27 0 0 0 .355.129l.797-.362a.26.26 0 0 0 .13-.348.266.266 0 0 0-.353-.13Zm-2.663 1.332-.796.36a.263.263 0 0 0-.132.35.27.27 0 0 0 .356.13l.796-.36a.263.263 0 0 0 .131-.35.269.269 0 0 0-.355-.13Zm-2.664 1.334-.794.357a.264.264 0 0 0-.134.351.271.271 0 0 0 .356.132l.795-.359a.264.264 0 0 0 .132-.351.268.268 0 0 0-.355-.13Zm-3.106 1.331-.793.355a.267.267 0 0 0-.136.353.271.271 0 0 0 .357.133l.793-.357a.264.264 0 0 0 .134-.352.269.269 0 0 0-.355-.132Zm-2.662 1.331-.791.352a.267.267 0 0 0-.138.354c.06.136.22.197.356.136l.793-.353a.268.268 0 1 0-.22-.489Zm-3.105.888-.791.347a.27.27 0 0 0-.139.356c.059.137.218.2.355.14h.002l.79-.348a.272.272 0 0 0 .139-.356.272.272 0 0 0-.356-.139Zm-2.662 1.332-.79.343a.272.272 0 0 0 .212.5h.001l.79-.344a.272.272 0 0 0-.213-.499Zm-3.106 1.331-.789.337a.277.277 0 0 0-.145.36.268.268 0 0 0 .354.148h.001l.79-.338a.278.278 0 0 0 .144-.361.27.27 0 0 0-.355-.146Zm-2.659 1.333-.789.331a.282.282 0 0 0-.15.362.27.27 0 0 0 .353.154h.001l.79-.332a.28.28 0 0 0 .148-.362.267.267 0 0 0-.353-.153Zm-3.104.888-.788.323a.287.287 0 0 0-.154.366.267.267 0 0 0 .351.159h.002l.789-.325a.285.285 0 0 0 .152-.365.267.267 0 0 0-.352-.158Zm-2.66 1.33-.787.317a.29.29 0 0 0-.158.368c.053.148.21.222.349.166h.002l.789-.317a.29.29 0 0 0 .156-.368.269.269 0 0 0-.351-.166Zm-3.104.886-.787.307c-.141.054-.213.221-.163.371.05.151.206.229.347.175h.001l.79-.309a.297.297 0 0 0 .161-.371c-.052-.151-.208-.228-.349-.173Zm-2.659 1.333-.786.298c-.142.053-.217.22-.168.374.048.155.202.236.344.183h.001l.789-.3c.141-.054.216-.221.167-.375-.05-.153-.206-.234-.347-.18Zm-3.1.887-.788.288c-.142.05-.221.22-.174.378.046.157.2.244.343.192h.001l.789-.29c.142-.052.218-.221.171-.379-.046-.157-.2-.241-.342-.189Zm-3.103.887-.787.277h-.001c-.143.05-.223.222-.178.383.044.161.196.251.339.201l.789-.279c.143-.05.223-.221.178-.382-.045-.16-.197-.25-.34-.2Zm-3.104.886-.787.264h-.001c-.144.048-.226.222-.184.387.042.165.193.26.336.211l.79-.266c.144-.049.225-.222.184-.387-.043-.163-.193-.258-.338-.209Zm-2.658.887-.786.251h-.001c-.144.045-.23.22-.19.391.04.169.187.27.333.223l.789-.254c.144-.046.229-.22.19-.389-.041-.169-.19-.269-.335-.222Zm-3.099.888-.787.236h-.002c-.144.043-.234.22-.197.395.036.175.183.281.329.236l.79-.238c.144-.043.232-.219.196-.394-.035-.173-.182-.279-.328-.236l-.001.001Zm-3.101.444-.787.221h-.002c-.146.041-.236.219-.203.399.033.18.178.291.324.25l.79-.222c.145-.041.237-.219.203-.399-.033-.178-.178-.291-.324-.25l-.001.001Zm-3.099.886-.788.203h-.001c-.147.039-.242.22-.211.404.03.185.173.305.319.267l.79-.205c.147-.038.241-.219.211-.403-.031-.186-.174-.304-.32-.266Zm-2.763.443-1.048.183h-.003a.353.353 0 0 0-.293.409.362.362 0 0 0 .42.284l1.053-.186a.353.353 0 0 0 .291-.409.359.359 0 0 0-.42-.282v.001Zm-3.096.886-1.049.162h-.004a.362.362 0 0 0-.302.414c.03.198.214.334.411.304l1.054-.163a.36.36 0 0 0 .301-.414.36.36 0 0 0-.411-.303Zm-3.098.442-1.047.135h-.003a.374.374 0 0 0-.315.42.365.365 0 0 0 .403.327l1.054-.137a.373.373 0 0 0 .313-.419.364.364 0 0 0-.403-.326h-.002Zm-3.097-.001-1.046.107h-.003c-.199.02-.345.211-.326.426.018.214.195.371.394.352l1.053-.109c.198-.022.344-.211.324-.426-.02-.214-.195-.371-.394-.35h-.002Zm-3.097.444-1.045.078h-.003c-.2.015-.35.209-.337.432.013.223.186.391.386.377l1.05-.08c.2-.014.35-.208.337-.43-.013-.223-.186-.392-.385-.377h-.003Zm-3.099 0-1.043.046h-.003c-.201.009-.357.204-.349.437.008.232.176.414.377.404l1.05-.047c.199-.01.356-.205.347-.438-.008-.231-.176-.412-.377-.402h-.002Zm-3.097.444-1.041.005h-.004c-.2.001-.363.1-.36.222.002.12.166.218.368.216l1.048-.007c.2-.001.361-.1.36-.221-.002-.121-.166-.217-.368-.216l-.004.001Zm-3.093-.421-1.04-.024h-.003c-.202-.003-.37.185-.372.424-.004.239.156.437.357.441l1.047.024c.202.003.367-.185.37-.424.004-.239-.155-.435-.357-.439l-.002-.002Zm-3.1.035-1.037-.058h-.003c-.201-.011-.373.165-.383.394-.01.229.145.424.347.435l1.044.058c.2.011.373-.165.383-.394.01-.229-.146-.424-.348-.435h-.003Zm-3.096.033-1.034-.09h-.003c-.203-.018-.38.146-.396.366-.016.221.134.413.337.43l1.04.089c.203.018.38-.146.396-.366.016-.221-.134-.413-.337-.43l-.003.001Zm-3.095-.414-1.03-.121h-.004a.374.374 0 0 0-.409.339.38.38 0 0 0 .326.424l1.037.121a.372.372 0 0 0 .407-.338.38.38 0 0 0-.325-.423l-.002-.002Zm-3.099-.414-1.025-.148h-.003a.37.37 0 1 0-.107.732l1.034.148a.37.37 0 1 0 .106-.732h-.005Zm-3.094-.416-1.021-.176h-.003a.373.373 0 0 0-.434.287.358.358 0 0 0 .301.414l1.03.176a.372.372 0 0 0 .432-.287.359.359 0 0 0-.302-.414h-.003Zm-3.095-.857-1.016-.202-.003-.001c-.203-.04-.403.076-.448.261-.044.185.084.368.287.408l1.024.203c.202.041.402-.076.447-.261.044-.184-.084-.366-.288-.407l-.003-.001Zm-2.648-.414-1.01-.228-.004-.002c-.203-.046-.41.061-.463.237-.053.176.069.357.271.402l1.018.228c.203.046.409-.06.461-.236.053-.176-.069-.356-.271-.401h-.002Zm-3.1-.865-1-.251-.006-.001c-.201-.051-.414.044-.475.213-.062.167.052.344.256.395l1.01.253c.202.05.415-.044.476-.213.06-.168-.053-.345-.256-.396h-.005Zm-3.091-.863-.994-.273-.005-.002c-.201-.055-.422.029-.492.189-.07.159.036.334.238.389l1.003.277c.201.055.42-.029.49-.189.07-.159-.036-.333-.237-.388l-.003-.003Zm-2.652-1.304-.982-.297-.005-.001c-.201-.061-.429.012-.507.164-.08.151.016.323.217.382l.994.3c.201.06.427-.014.507-.165.08-.151-.018-.321-.217-.382l-.007-.001Zm-3.475-1.306-.729-.318-.004-.001a.302.302 0 0 0-.394.14.278.278 0 0 0 .147.376l.738.32a.3.3 0 0 0 .392-.14.277.277 0 0 0-.147-.375l-.003-.002Zm-2.653-1.12-.72-.508-.003-.003c-.148-.104-.33-.026-.408.174-.077.2-.02.449.128.553l.729.513c.147.104.33.026.406-.176.077-.2.02-.447-.13-.551l-.002-.002Zm-2.651-1.295-.708-.537-.003-.004c-.147-.112-.336-.048-.422.139-.087.189-.037.431.108.541l.717.543c.145.11.334.048.421-.139.086-.187.038-.429-.108-.541l-.005-.002Zm-2.65-1.74-.693-.564-.005-.003c-.144-.117-.34-.07-.436.104-.097.175-.059.412.086.528l.703.572c.144.117.339.07.435-.104.097-.175.059-.41-.086-.527l-.004-.006Zm-2.648-1.737-.677-.591-.005-.005c-.142-.123-.345-.092-.453.068a.403.403 0 0 0 .06.515l.687.599c.142.123.343.092.452-.069a.4.4 0 0 0-.061-.514l-.003-.003Zm-2.208-2.186-.657-.614-.005-.004a.318.318 0 0 0-.47.034.373.373 0 0 0 .033.501l.668.622a.316.316 0 0 0 .467-.034.371.371 0 0 0-.031-.5l-.005-.005Zm-2.207-1.743-.635-.635-.005-.004a.343.343 0 0 0-.485.485l.646.646a.342.342 0 1 0 .484-.484l-.005-.008Zm-2.203-2.629-.611-.655-.004-.005a.372.372 0 0 0-.503-.032.32.32 0 0 0-.034.471l.62.665c.13.138.355.153.502.032a.32.32 0 0 0 .034-.47l-.005-.006Zm-1.765-2.19-.582-.671-.005-.006a.404.404 0 0 0-.52-.061c-.162.108-.194.313-.07.456l.592.682a.405.405 0 0 0 .518.061c.163-.108.194-.313.07-.454l-.003-.007Zm-1.761-2.635-.551-.687-.005-.005c-.117-.148-.357-.188-.535-.09-.178.096-.228.294-.109.44l.559.696c.117.146.358.187.535.09.177-.096.226-.294.109-.44l-.003-.004Zm-1.764-2.641-.515-.697-.003-.005c-.11-.151-.358-.203-.553-.118-.195.086-.262.277-.152.427l.523.708c.111.15.359.201.552.116.195-.086.26-.277.15-.426l-.002-.005Zm-1.325-2.342-.475-.945-.003-.007a.432.432 0 0 0-.567-.189.404.404 0 0 0-.197.547l.484.958a.43.43 0 0 0 .567.188.402.402 0 0 0 .195-.547l-.004-.005Zm-1.748-3.081-.289-.955-.002-.006c-.063-.206-.237-.306-.389-.221-.151.085-.225.322-.162.528l.293.968c.063.206.237.305.389.22.151-.086.224-.323.161-.529l-.001-.005Zm-1.328-2.637-.258-.962v-.006c-.056-.209-.236-.32-.4-.25-.163.071-.25.3-.195.509l.262.976c.057.21.235.321.398.248.164-.07.25-.299.194-.507l-.001-.008Zm-.882-3.082-.224-.968v-.006c-.05-.212-.231-.336-.408-.277-.176.059-.28.277-.23.489l.228.982c.049.212.23.335.407.276.176-.059.278-.277.229-.489l-.002-.007Zm-.439-3.081-.187-.974-.001-.006c-.04-.213-.228-.349-.416-.303-.188.046-.308.257-.268.47l.19.987c.04.213.227.349.416.301.188-.046.308-.257.266-.47v-.005Zm-.44-3.087-.147-.978-.002-.006c-.032-.214-.222-.362-.423-.327-.201.034-.34.236-.307.451l.15.99c.032.214.222.36.423.325.201-.034.338-.236.306-.451v-.004Zm-.442-3.088-.102-.978v-.007a.392.392 0 1 0-.78.083l.105.99a.39.39 0 1 0 .779-.084l-.002-.004Zm-.442-3.09-.056-.978v-.006a.407.407 0 0 0-.437-.371.401.401 0 0 0-.393.413l.057.99a.409.409 0 0 0 .437.372.403.403 0 0 0 .393-.414l-.001-.006Zm0-3.088-.003-.977v-.006c0-.217-.2-.394-.444-.392-.244 0-.441.178-.44.395l.006.99c.001.217.199.391.443.391.244-.001.44-.177.44-.395v-.006h-.002Zm-.044-3.091.045-.974v-.006c.01-.218-.17-.403-.401-.413-.233-.009-.43.16-.44.377l-.046.987c-.01.218.17.403.402.412.232.01.43-.159.44-.377v-.006Zm.397-3.092.091-.972v-.006a.398.398 0 0 0-.793-.074l-.091.984a.397.397 0 0 0 .791.072l.002-.004Zm-.041-3.092.129-.968.001-.006a.396.396 0 0 0-.323-.451.383.383 0 0 0-.428.34l-.13.978a.396.396 0 0 0 .324.45.382.382 0 0 0 .427-.34v-.003Zm.405-3.09.163-.963.002-.006c.038-.219-.092-.428-.289-.47-.196-.042-.385.102-.422.321l-.165.974c-.036.218.092.427.289.468.196.04.385-.103.42-.321l.002-.003Zm.856-2.654.193-.956.002-.004c.044-.218-.072-.436-.259-.487-.186-.051-.373.084-.416.302l-.195.966c-.044.218.072.436.258.487.187.051.373-.084.417-.302v-.006Zm.413-3.093.221-.95.001-.004c.051-.217-.052-.443-.229-.504-.177-.063-.362.064-.412.28l-.221.96c-.05.218.052.443.229.505.177.061.36-.064.412-.28v-.007Zm1.304-3.094.245-.942v-.005c.057-.216-.035-.448-.202-.52-.17-.073-.35.045-.407.26l-.245.952c-.057.217.035.45.203.521.169.073.35-.045.406-.26v-.006Zm.861-2.649.266-.934.001-.004c.061-.215-.019-.457-.179-.538-.16-.082-.34.025-.4.24l-.268.944c-.061.215.019.455.18.537.16.083.339-.025.4-.24v-.005Zm1.152-3.095.427-.924.001-.005a.412.412 0 0 0-.235-.554.463.463 0 0 0-.592.22l-.43.934a.412.412 0 0 0 .235.553.463.463 0 0 0 .592-.22l.002-.004Zm1.301-2.652.452-.914.002-.005a.422.422 0 0 0-.204-.57.443.443 0 0 0-.584.2l-.456.924a.42.42 0 0 0 .204.568.44.44 0 0 0 .582-.2l.004-.003Zm1.298-3.096.476-.903.003-.005a.434.434 0 0 0-.174-.585.421.421 0 0 0-.576.177l-.48.913a.436.436 0 0 0 .175.585.424.424 0 0 0 .576-.179v-.003Zm1.748-2.65.497-.892.003-.005a.452.452 0 0 0-.147-.6.402.402 0 0 0-.568.155l-.502.901a.451.451 0 0 0 .148.6.402.402 0 0 0 .566-.156l.003-.003Zm1.304-2.653.516-.88.003-.004a.47.47 0 0 0-.12-.615c-.189-.134-.439-.075-.56.132l-.522.888a.473.473 0 0 0 .122.614c.189.133.439.073.56-.133v-.002Zm1.752-2.21.533-.866.003-.005a.491.491 0 0 0-.097-.628c-.18-.144-.427-.094-.552.11l-.538.874a.492.492 0 0 0 .096.628c.18.144.426.094.552-.11l.003-.003Zm1.752-3.05.548-.638.003-.004c.13-.151.098-.367-.073-.482a.423.423 0 0 0-.544.065l-.555.644c-.13.151-.096.367.075.482.17.116.414.085.544-.066h.002Zm2.194-2.661.564-.627.003-.003a.33.33 0 0 0-.052-.492.404.404 0 0 0-.536.048l-.569.633a.33.33 0 0 0 .052.492.406.406 0 0 0 .537-.047l.001-.004Zm1.757-2.21.577-.615.003-.002a.344.344 0 0 0-.03-.503.389.389 0 0 0-.53.029l-.582.621a.344.344 0 0 0 .032.503.39.39 0 0 0 .529-.03l.001-.003Zm2.197-2.215.59-.602.002-.002a.357.357 0 0 0-.01-.512.373.373 0 0 0-.522.01l-.593.608a.358.358 0 0 0 .01.512c.147.139.38.133.522-.01l.001-.004Zm2.201-2.211.6-.588.003-.003a.373.373 0 0 0 .009-.523.359.359 0 0 0-.514-.01l-.605.596a.373.373 0 0 0-.008.521c.14.146.369.15.513.008l.002-.001Zm2.203-2.21.609-.576.003-.002a.39.39 0 0 0 .027-.532.346.346 0 0 0-.506-.029l-.615.581a.389.389 0 0 0-.027.53.346.346 0 0 0 .505.03l.004-.002Zm2.2-1.774.619-.56.002-.003a.406.406 0 0 0 .045-.54.335.335 0 0 0-.498-.049l-.624.567a.406.406 0 0 0-.045.54.336.336 0 0 0 .498.048l.003-.003Zm2.836-2.211.836-.546.004-.003c.204-.133.24-.379.082-.548a.532.532 0 0 0-.655-.07l-.843.552c-.203.134-.24.38-.08.549.159.17.452.2.655.067l.001-.001Zm2.198-1.771.845-.53.004-.003c.206-.13.252-.379.102-.557a.511.511 0 0 0-.645-.088l-.852.536c-.206.13-.251.379-.1.557.15.178.438.216.645.087l.001-.002Zm2.642-1.771.855-.514.003-.003c.209-.126.264-.38.123-.565a.495.495 0 0 0-.636-.108l-.861.52c-.209.126-.263.38-.12.564a.495.495 0 0 0 .635.108l.002-.002Zm2.648-1.772.86-.499.004-.001c.212-.122.275-.38.14-.572a.478.478 0 0 0-.626-.128l-.868.503a.395.395 0 0 0-.14.572.48.48 0 0 0 .626.128l.004-.003Zm2.644-1.326.868-.481.003-.002a.41.41 0 0 0 .16-.58.468.468 0 0 0-.618-.15l-.874.486a.41.41 0 0 0-.158.58.468.468 0 0 0 .618.149l.001-.002Zm2.645-1.77.874-.465.004-.001a.424.424 0 0 0 .176-.587.457.457 0 0 0-.608-.17l-.88.47a.424.424 0 0 0-.175.586c.12.209.392.285.608.169l.001-.002Zm2.648-1.329.878-.446.003-.002a.44.44 0 0 0 .193-.593.447.447 0 0 0-.599-.192l-.885.451a.439.439 0 0 0-.192.594c.112.216.38.301.599.19l.003-.002Zm3.093-1.328.884-.43h.003a.453.453 0 0 0 .209-.601.44.44 0 0 0-.59-.212l-.89.432a.453.453 0 0 0-.209.6.44.44 0 0 0 .59.212l.003-.001Zm2.646-1.325.889-.41.003-.002a.468.468 0 0 0 .225-.606.435.435 0 0 0-.581-.235l-.895.414a.467.467 0 0 0-.224.606.434.434 0 0 0 .582.234l.001-.002Zm2.651-1.33.891-.39.003-.002a.481.481 0 0 0 .24-.612.43.43 0 0 0-.571-.257l-.898.394a.48.48 0 0 0-.24.612c.092.24.35.355.573.256h.002Zm3.09-.885.896-.37.003-.001c.226-.093.34-.371.255-.618-.085-.248-.339-.373-.564-.28l-.901.375c-.225.094-.34.37-.254.617.086.247.339.373.564.279l.001-.002Zm2.651-1.327.898-.349.003-.001c.228-.09.348-.368.27-.624-.08-.256-.327-.391-.555-.304l-.904.353c-.227.09-.347.367-.268.624.08.256.327.39.555.301h.001Zm3.094-.885.9-.328.003-.002c.23-.084.356-.366.283-.628-.073-.264-.316-.41-.545-.326l-.906.331c-.228.084-.355.364-.283.628.073.263.316.409.545.326l.003-.001Zm3.093-.884.902-.305.003-.002c.231-.079.364-.362.298-.634-.067-.273-.307-.43-.537-.351l-.908.308c-.23.079-.363.362-.296.633.067.272.307.43.536.35h.002Zm3.095-1.324.903-.188h.003c.231-.048.371-.24.312-.426-.059-.187-.296-.3-.527-.252l-.911.19c-.231.049-.369.239-.31.425.06.187.296.299.527.251h.003Zm2.652-.441.904-.171.003-.002c.233-.043.378-.236.325-.428-.053-.193-.286-.313-.517-.27l-.912.174c-.233.044-.378.237-.324.428.053.193.286.313.518.269h.003Zm3.095-.884.905-.154.003-.001c.233-.04.384-.233.338-.432-.047-.199-.274-.327-.509-.288l-.911.156c-.234.04-.385.233-.338.431.046.198.273.327.506.287h.006Zm3.094-.444.906-.137h.003c.235-.035.392-.23.351-.435-.041-.204-.264-.341-.498-.306l-.913.138c-.235.036-.392.23-.351.434.04.204.264.34.498.306h.004Zm3.095-.444.906-.117h.003c.235-.031.399-.226.364-.436-.035-.21-.253-.356-.488-.325l-.914.118c-.235.031-.398.226-.364.436.035.21.253.356.489.326l.004-.002Zm3.117-.444.864-.089h.003c.248-.025.427-.224.396-.443-.028-.218-.254-.376-.502-.349l-.87.09c-.248.026-.425.225-.396.443.029.219.254.375.502.35l.003-.002Z"/>
  <path fill="url(#ay)" d="m122.589 7.107-.314 5.33 4.438-2.018-4.124-3.312Z"/>
  <path fill="url(#az)" d="m150.233 5.632-17.105 11.855a1.627 1.627 0 0 1-1.16.26 1.62 1.62 0 0 1-1.036-.58L117.957.876a.518.518 0 0 1-.028-.623.632.632 0 0 1 .629-.241l31.675 5.621Z"/>
  <path fill="url(#aA)" d="m122.719 7.027 27.514-1.252-25.424 3.841-.156 1.489-1.934-4.078Z"/>
  <path fill="url(#aB)" d="m125.825 10.784-3.55 1.208 2.332-2.665 1.218 1.457Z"/>
  <path fill="url(#aC)" d="M194.218 128.49a.249.249 0 0 0-.46.05c-.223.804-.763 2.21-1.894 2.709a5.179 5.179 0 0 0-.164.076.579.579 0 0 1 .071-.523c.352-.539-.283-1.276-.283-1.276s-.042.649-.534 1.058c-.423.352-.627 1.135-.338 1.778.612 2.388 1.53 5.547-2.044 7.853-3.574 2.308-8.609-4.355-8.609-4.355l2.499 7.946s3.858 2.855 8.343-1.16c4.486-4.014 1.513-9.856 1.513-9.856s3.42-1.384 1.9-4.3Z"/>
  <path fill="url(#aD)" d="M159.374 132.335c1.6-2.119 4.136-2.868 6.41-4.003 1.699-.848 2.661-2.536 3.293-4.27.532-1.463.607-3.082 2.141-3.851.722-.363 1.516-.211 2.211-.469 1.003-.372 1.876-.588 2.637-.681a4.159 4.159 0 0 1 4.066 1.993 4.232 4.232 0 0 1-.124 4.557c-.921 1.358-1.502 3.933 2.508 7.689 6.228 5.836 1.493 9.846 1.493 9.846 1.208 7.864-10.059 7.794-10.059 7.794-1.912 2.413-5.068 3.137-7.948 2.528-3.89-.822-4.487-4.579-5.907-7.724-1.007-2.232-2.784-4.128-2.764-6.722.017-2.323.628-4.813 2.043-6.687Z"/>
  <path fill="url(#aE)" d="M179.325 135.307c-1.077-.324-4.214-.923-7.197 1.842a1.86 1.86 0 0 0-.532 1.849c.801 2.962 2.915 11.715 1.062 15.502 0 0 3.268 3.617 6.832.701 0 0 1.599-6.998 3.695-10.07 1.447-2.122-2.306-7.965-3.256-9.376a1.123 1.123 0 0 0-.604-.448Z"/>
  <path fill="url(#aF)" d="M176.417 129.244s-1.655 4.461-1.78 6.429c0 0 1.83.792 3.553-.546 0 0 .18-4.455.441-5.254l-2.214-.629Z"/>
  <path fill="url(#aG)" d="M178.828 123.061s4.16 5.853 1.673 7.553c-2.486 1.7-5.447-2.459-5.447-2.459s-.966-3.203.044-4.29c1.009-1.087 3.73-.804 3.73-.804Z"/>
  <path fill="url(#aH)" d="M176.821 121.772s1.961.458 2.237 1.332c.276.875-2.783 1.684-3.639 1.724l-.691 3.528s-2.04-3.318-1.232-5.236c.808-1.915 3.325-1.348 3.325-1.348Z"/>
  <path fill="url(#aI)" d="M175.525 127.685s-1.507-1.943-2.106-.676c-.6 1.267 1.357 2.218 2.034 1.596l.072-.92Z"/>
  <path fill="url(#aJ)" d="M183.944 169.661c-.012.316.545 2.815.848 4.148a2.193 2.193 0 0 1-.238 1.575l-10.492 17.551c-.128.213-.22.443-.275.683-.192.824-.592 2.843-.383 4.679l.544 1.121-2.348-.53-.511-6.266.665-.403a3.141 3.141 0 0 0 1.277-1.486c.949-2.291 3.305-8.121 3.913-10.962.69-3.23 4.298-5.853 4.298-5.853l-.634-1.489 3.336-2.768Z"/>
  <path fill="url(#aK)" d="M168.869 196.946s1.292-2.016 1.444-2.802c.153-.785.575-2.172 1.371-1.755 0 0 .376 3.813.246 5.303-.129 1.491 1.71 1.442 1.71 1.442s.507.071.879.436c.256.253.073.691-.29.715a10.52 10.52 0 0 1-2.561-.143.776.776 0 0 1-.633-.713l-.265-4.389-1.629 2.027-.272-.121Z"/>
  <path fill="url(#aL)" d="M177.735 172.753s-.378 15.847-.428 18.098c-.051 2.25.361 7.238 2.655 8.729l-.998.727s-1.247-1.043-2.465-3.05c-1.37-2.255-1.783-2.666-1.783-2.666l.454-.915c.198-.401.257-.854.166-1.29-.495-2.359-2.149-10.209-2.6-11.9-.533-1.995-.571-4.659 1.281-6.889 1.853-2.232 3.718-.844 3.718-.844Z"/>
  <path fill="url(#aM)" d="M175.575 200.752a.137.137 0 0 1-.137-.117c-.073-.517-.38-2.588-.631-3.125-.286-.615-1.225-3.2 0-3.42 0 0 3.048 4.443 3.635 5.042.584.6 1.323.21 1.323.21s.571.168 1 .716a.402.402 0 0 1-.318.646l-2.053.021a1.447 1.447 0 0 1-1.354-.909c-.361-.901-.982-2.221-1.705-2.808l.376 3.592a.138.138 0 0 1-.136.152Z"/>
  <path fill="url(#aN)" d="M180.131 153.37s-.466 1.493.25 3.951l4.446 15.585a.485.485 0 0 1-.301.588c-1.33.48-5.702 1.834-11.671 1.42a.677.677 0 0 1-.617-.529l-2.012-9.085c-1.053-4.745-2.228-9.864 2.943-12.959 2.383 1.023 4.606 1.628 6.962 1.029Z"/>
  <path fill="url(#aO)" d="M171.74 137.606s-5.046 4.258-6.297 10.074c-1.252 5.817 7.373 6.436 7.373 6.436s1.17-1.328 2.561-.854c1.39.473.107-2.317-1.518-2.309-1.627.007-.874 1.313-3.174.254-2.241-1.031-3.627-4.218 2.092-9.051.331-.279.595-.636.754-1.044 1.11-2.838.229-4.7-1.791-3.506Z"/>
  <path fill="#fff" d="M160.58 144.348c.01 0 .019-.002.029-.006a.07.07 0 0 0 .032-.091c-1.441-3.091-1.771-5.718-.982-7.809.675-1.785 2.166-3.19 4.433-4.173 4.457-1.931 5.479-3.912 5.806-6.89.326-2.973 2.015-3.547 2.031-3.551a.068.068 0 0 0 .044-.084c-.012-.035-.049-.056-.084-.044-.073.023-1.788.598-2.126 3.665-.328 2.993-1.303 4.865-5.724 6.78-2.302.998-3.818 2.429-4.506 4.249-.802 2.126-.471 4.788.986 7.914.012.025.035.04.061.04Zm19.754-21.322h.003c.042 0 .072-.046.071-.084a3.298 3.298 0 0 0-2.121-3.021c-.038-.013-.08.004-.094.04-.013.035.008.071.046.085a3.174 3.174 0 0 1 2.02 2.903c.003.036.037.077.075.077Z" opacity=".8"/>
  <path fill="url(#aP)" d="M129.375 136.567s-7.96 9.765-10.887 7.411c-2.928-2.352 4.976-15.179 4.976-15.179l5.911 7.768Z"/>
  <path fill="url(#aQ)" d="M128.929 199.197c0-.047.003-.094.014-.142.7-2.788 4.173-4.525 4.173-4.525l1.376.108c.792 2.458.69 3.966.562 4.636a.37.37 0 0 1-.014.055c-1.136.103-3.471.169-6.111-.132Z"/>
  <path fill="url(#aR)" d="m135.143 192.312-.552 2.724c-.041.199-.19.349-.371.366a3.665 3.665 0 0 1-.856-.014c-.285-.043-.484-.34-.432-.658l.385-2.418h1.826Z"/>
  <path fill="url(#aS)" d="M116.504 199.17c.011-.022.02-.044.035-.065.768-1.056 2.724-3.16 6.589-4.073l1.854-.057s.825 1.413.841 4.03c-.422.171-1.243.355-2.825.397-2.45.07-5.353-.138-6.494-.232Z"/>
  <path fill="url(#aT)" d="M124.938 192.325c-.02.141-.254 2.292-.345 3.125-.022.199-.151.352-.315.374-.291.038-.763.073-1.176-.02-.222-.051-.383-.288-.383-.563v-3.375l2.219.459Z"/>
  <path fill="url(#aU)" d="M126.612 154.558s-4.418 16.786-4.336 37.911a.817.817 0 0 0 .649.797c.555.116 1.371.255 2.047.237a.758.758 0 0 0 .723-.633c.62-3.632 4.174-24.092 6.199-27.415 0 0 1.333 18.224.906 27.678a.449.449 0 0 0 .396.466c.354.042.922.073 1.644-.004a.6.6 0 0 0 .534-.509c.442-3.075 2.98-21.371 2.873-34.552-.006-.744-1.966-3.975-1.966-3.975h-9.669v-.001Z"/>
  <path fill="url(#aV)" d="M123.475 128.748c6.066-.878 12.729-.072 15.963.336a4.268 4.268 0 0 1 2.695 1.446c2.737 3.167 8.742 11.839 1.674 20.576-.905-.503-2.191-1.308-3.062-2.239.782-2.205.845-5.022-.793-8.476a8.037 8.037 0 0 1-.209.811c-2.259 7.156-2.379 13.112-2.374 14.485a.456.456 0 0 1-.284.424c-2.973 1.192-8.695.482-10.617.196a.646.646 0 0 1-.54-.734c.676-4.896-1.619-12.055-3.444-16.754-.72-1.857.614-9.55.991-10.071Z"/>
  <path fill="url(#aW)" d="m133.381 121.693.87 6.94a.65.65 0 0 1-.477.701c-.942.266-2.961.67-4.806-.064a.75.75 0 0 1-.463-.862l1.099-4.884 3.777-1.831Z"/>
  <path fill="url(#aX)" d="M129.656 116.649c-.075.079-2.944 6.634-2.944 6.634l3.877 1.516 3.667-5.818c0-.001-3.341-3.654-4.6-2.332Z"/>
  <path fill="url(#aY)" d="M132.663 119.261a.576.576 0 0 1-.01.518l-1.666 3.182a.516.516 0 0 1-.095.132c-.209.219-.934.859-1.582.095-.552-.652-1.069-1.243-1.596-1.467a.606.606 0 0 0-.792.313c-.268.619-.784 1.88-1.08 3.062a.582.582 0 0 0 .399.692c.785.251 2.331.697 3.683.788a.61.61 0 0 0 .552-.274c.522-.808 1.995-3.067 2.513-3.641.48-.534 1.444-.41 1.88-.317a.62.62 0 0 0 .477-.094c.416-.285 1.131-.969.361-1.999a.579.579 0 0 1 .13-.809c.464-.343.949-.962.382-1.874-.574-.924-1.487-.949-2.099-.835-.271.052-.558-.07-.68-.312a.396.396 0 0 0-.326-.217c-.328-.042-.561-.317-.519-.636.071-.549-.06-1.248-.981-1.665-1.687-.764-3.014.753-3.292 1.976-.278 1.223 1.6 1.95 2.754 2.016.845.047 1.368.91 1.587 1.366Z"/>
  <path fill="url(#aZ)" d="M132.482 123.847s.576-2.17 1.503-2.155c.927.016 1.716.889.643 2.007-1.333 1.389-2.146.148-2.146.148Z"/>
  <path fill="url(#ba)" d="M140.386 139.903c1.385-3.201.882-7.067.877-7.106l-.381.037c.005.038.497 3.83-.857 6.958l.361.111Z"/>
  <path fill="url(#bb)" d="M131.761 165.218a.169.169 0 0 0 .161-.131c.366-1.468 3.108-3.081 3.136-3.098a.177.177 0 0 0 .064-.236.164.164 0 0 0-.228-.066c-.118.069-2.894 1.702-3.295 3.313a.174.174 0 0 0 .162.218Z"/>
  <path fill="url(#bc)" d="M140.572 148.785c.857.935 2.116 1.741 3.003 2.245-1.324 1.674-3.117 3.35-5.49 4.991l-.287.658a1.601 1.601 0 0 1-1.387.967c-3.316.161-4.233-.558-1.181-2.734.001.001 3.905-1.985 5.342-6.127Z"/>
  <path fill="url(#bd)" d="M115.784 134.127s4.257 4.332 5.24 5.903c.983 1.573-.112 4.434-2.345 3.769-2.235-.664-4.836-8.181-4.836-8.181l1.941-1.491Z"/>
  <path fill="url(#be)" d="M121.387 129.614s-6.073 8.401-7.718 10.044c-1.91 1.908-5.315-.562-4.614-2.402.7-1.84 7.245-8.457 7.245-8.457l5.087.815Z"/>
  <path fill="url(#bf)" d="m118.28 121.338-20.286-13.856-5.453 21.119 24.141 1.087 1.598-8.35Z"/>
  <path fill="url(#bg)" d="M93.07 117.318c-1.566 6-1.88 11.134-.701 11.464 1.179.331 3.403-4.265 4.97-10.265 1.567-6 1.881-11.134.702-11.464-1.179-.332-3.404 4.264-4.971 10.265Z"/>
  <path fill="url(#bh)" d="M92.364 127.912c.263-.15.93-.819 1.883-2.754.92-1.869 1.835-4.369 2.577-7.036s1.247-5.273 1.422-7.339c.18-2.138-.05-3.044-.198-3.301-.263.149-.932.818-1.882 2.754-.92 1.869-1.836 4.368-2.578 7.035-.742 2.667-1.246 5.273-1.421 7.339-.183 2.137.047 3.044.197 3.302Z"/>
  <mask id="bi" width="9" height="21" x="90" y="107" maskUnits="userSpaceOnUse" style="mask-type:luminance">
    <path fill="#fff" d="M92.414 127.908c.26-.15.923-.818 1.867-2.754.912-1.869 1.82-4.369 2.556-7.036s1.236-5.273 1.41-7.339c.18-2.138-.048-3.044-.196-3.301-.261.149-.925.818-1.867 2.754-.912 1.869-4.53 3.648-5.265 6.315-.736 2.666 1.474 5.993 1.3 8.059-.182 2.137.046 3.044.195 3.302Z"/>
  </mask>
  <g mask="url(#bi)">
    <path fill="url(#bj)" d="M92.276 116.869c-.522 1.887.093 3.694 2.145 4.238 2.052.545 4.138-.543 4.66-2.432.521-1.888-.72-3.861-2.772-4.406-2.054-.543-3.512.712-4.033 2.6Z"/>
  </g>
  <path fill="url(#bk)" d="M122.132 121.749c-1.045-.415-2.579-.876-4.355-.945-.228 3.011-1.123 5.972-2.601 8.889l4.716 1.271a1.587 1.587 0 0 0 1.86-.875c.638-1.417 1.603-3.829 1.84-5.911a2.331 2.331 0 0 0-1.46-2.429Z"/>
  <path fill="#fff" d="m119.019 123.27 3.638 1.071a.38.38 0 0 0 .394-.119.465.465 0 0 0 .092-.433c-.025-.087-.112-.136-.193-.108-.081.027-.125.121-.1.21a.107.107 0 0 1-.021.101.088.088 0 0 1-.092.028l-3.638-1.071c-.05-.014-.078-.071-.065-.124l.07-.281c.013-.055.065-.088.114-.071l3.665 1.079c.082.024.165-.03.187-.118.022-.089-.027-.18-.107-.204l-3.665-1.079c-.212-.063-.432.074-.49.305l-.07.281c-.058.231.069.471.281.533Zm-.445 1.777 3.638 1.071a.377.377 0 0 0 .394-.119.462.462 0 0 0 .092-.433c-.025-.087-.111-.136-.191-.108-.081.027-.125.121-.1.21a.108.108 0 0 1-.021.101.088.088 0 0 1-.092.028l-3.638-1.071c-.05-.014-.08-.071-.065-.124l.07-.281c.013-.055.065-.087.114-.071l3.665 1.078c.081.025.165-.029.187-.117.022-.089-.027-.18-.109-.204l-3.664-1.079c-.213-.063-.433.075-.491.305l-.069.282c-.058.232.068.471.28.532Zm-3.149-5.58a.156.156 0 0 0 .169-.064.148.148 0 0 0-.046-.207l-15.67-9.915a.152.152 0 0 0-.211.045.146.146 0 0 0 .046.206l15.67 9.916a.146.146 0 0 0 .042.019Zm1.81 1.777c.047.016.1-.005.132-.054.042-.066.031-.16-.023-.209l-.64-.589c-.054-.051-.133-.038-.174.027a.171.171 0 0 0 .023.21l.64.588a.115.115 0 0 0 .042.027Zm.454 5.581 3.637 1.071a.38.38 0 0 0 .394-.12.465.465 0 0 0 .092-.433.152.152 0 0 0-.193-.108c-.081.028-.125.121-.1.21a.11.11 0 0 1-.021.102.086.086 0 0 1-.092.027l-3.637-1.071c-.05-.014-.079-.071-.065-.124l.07-.281c.013-.055.065-.086.114-.071l3.664 1.079c.082.024.165-.029.187-.118a.17.17 0 0 0-.108-.204l-3.664-1.079c-.213-.063-.433.075-.491.306l-.069.281c-.057.231.069.47.282.533Zm-.889 1.778 3.637 1.07a.38.38 0 0 0 .394-.12.46.46 0 0 0 .092-.432c-.025-.087-.111-.136-.193-.108-.08.027-.125.121-.1.208a.113.113 0 0 1-.02.102c-.012.012-.043.042-.092.027l-3.638-1.07c-.05-.015-.078-.071-.065-.124l.07-.281c.013-.055.065-.086.114-.071l3.664 1.078c.082.024.167-.029.187-.118.021-.089-.026-.179-.108-.203l-3.664-1.078c-.212-.063-.432.074-.49.305l-.07.28c-.057.234.07.473.282.535Zm-5.971 10.327a2.38 2.38 0 0 0 2.497-.805l4.477-5.527a.15.15 0 0 0-.02-.21.146.146 0 0 0-.207.02l-4.478 5.526a2.08 2.08 0 0 1-1.74.779 2.04 2.04 0 0 1-1.621-.93l-.06-.093a.146.146 0 0 0-.203-.046.15.15 0 0 0-.046.206l.063.098c.32.491.792.833 1.338.982Zm7.571-7.027a.185.185 0 0 0 .172-.048l.558-.599a.132.132 0 0 0-.022-.203.18.18 0 0 0-.232.019l-.559.599c-.058.062-.048.153.023.204a.158.158 0 0 0 .06.028Zm-25.745-15.101c.078.02.158-.02.185-.094.308-.839.798-1.397 1.46-1.657 1.147-.449 2.444.139 2.457.145a.157.157 0 0 0 .206-.067.144.144 0 0 0-.07-.196c-.058-.027-1.431-.654-2.708-.154-.747.293-1.297.909-1.635 1.832-.028.077.015.159.094.187l.01.004Z"/>
  <path fill="url(#bl)" d="M115.469 131.314s-.918-1.221-2.121-.526c-1.205.696-1.866 2.267-1.7 2.393.166.125 6.307.244 3.821-1.867Z"/>
  <path fill="url(#bm)" d="M285.59 193.199s.286 1.556.428 3.095c.055.602-.429 1.124-1.059 1.149-2.139.085-6.715.251-8.357.181a.346.346 0 0 1-.317-.473.787.787 0 0 1 .412-.416l7.559-3.33 1.334-.206Z"/>
  <path fill="url(#bn)" d="m285.579 192.634-.208 2.074s-1.195.659-2.011-.083l.495-2.312 1.724.321Z"/>
  <path fill="url(#bo)" d="M285.45 156.34c.098.501.525 25.01-2.08 35.994a.374.374 0 0 0 .217.433 6.43 6.43 0 0 0 2.12.434.636.636 0 0 0 .634-.46c.745-2.549 4.311-15.316 4.776-27.514.519-13.628 0-.463 0-.463l-.304-8.425-5.363.001Z"/>
  <path fill="url(#bp)" d="M294.418 194.088s.462.827.909 3.025a.681.681 0 0 1-.601.817c-.715.071-1.816.161-2.698.155a.68.68 0 0 1-.675-.758c.097-.803.402-2.119 1.341-3.144l1.724-.095Z"/>
  <path fill="url(#bq)" d="m294.453 191.533-.562 2.797s-.556.377-1.657.104l.268-3.01 1.951.109Z"/>
  <path fill="url(#br)" d="M296.282 157.239c2.166 12.85-.471 31.761-1.359 35.463a.587.587 0 0 1-.475.439c-.398.064-1.05.117-1.694-.066a.531.531 0 0 1-.387-.487c-.119-2.993.095-21.363-1.923-28.622a1.648 1.648 0 0 0-.648-.91l-3.918-2.738-.3-4.425 10.704 1.346Z"/>
  <path fill="url(#bs)" d="M282.343 132.954c6.366-.106 13.39 1.678 13.39 1.678 1.898 11.119.332 23.945.332 23.945-4.928 1.297-10.488-.793-10.488-.793-.819-4.647-4.641-17.728-4.641-17.728-3.111-.387-5.672-1.288-7.783-2.48 1.61-1.873 2.368-4.257 2.697-5.667 2.251.703 4.529 1.079 6.493 1.045Z"/>
  <path fill="url(#bt)" d="M263.39 123.514c.63-.765 1.43-.404 1.43-.404.946 4.011 5.903 7.263 10.995 8.852-.333 1.422-1.099 3.829-2.722 5.72-8.452-4.773-9.703-14.168-9.703-14.168Z"/>
  <path fill="url(#bu)" d="M263.499 123.679c-.063.211.669.529 1.101-.329.016-.412.255-2.177.02-2.513-1.255-1.788-3.688-4.028-3.688-4.028-.41.423-.072.841-.072.841l1.18 1.284c-.247.466-.547.86-.689 1.423-.107.428-.041.884.165 1.272.208.389.49.896.757 1.293.505.752 1.226.757 1.226.757Z"/>
  <path fill="url(#bv)" d="m262.76 119.918 1.156.983.363.978-1.03 1.148s-.347-1.942-.605-2.362c-.258-.421-.124-.624.116-.747Z"/>
  <path fill="url(#bw)" d="m293.123 140.803 2.43-6.23s5.916 4.083 6.889 9.26c-1.118.084-3.152.379-5.143 1.4-.439-2.443-4.176-4.43-4.176-4.43Z"/>
  <path fill="url(#bx)" d="M288.233 146.716s6.654 3.792 8.901.554c.466-.672.578-1.341.463-1.977 1.995-1.016 4.032-1.309 5.152-1.393.294 1.553.139 3.203-.765 4.871-3.933 7.255-14.631-.4-14.631-.4l.88-1.655Z"/>
  <path fill="url(#by)" d="m289.116 151.349-3.681-12.617a.373.373 0 0 0-.317-.265c-.666-.077-2.6-.291-4.831-.476-2.686-.223-5.808-.404-7.673-.25a.368.368 0 0 0-.307.531c1.06 2.106 5.422 10.673 7.607 13.478a.385.385 0 0 0 .304.146l8.539-.078a.37.37 0 0 0 .359-.469Z"/>
  <path fill="url(#bz)" d="m279.944 136.74-2.579-.388c-.137-.021-.25.098-.207.217l.255.699c.023.06.081.104.151.113l2.481.299c.128.016.234-.09.205-.203l-.158-.609a.177.177 0 0 0-.148-.128Z"/>
  <path fill="url(#bA)" d="m282.026 139.146-.223-1.146a.267.267 0 0 0-.235-.214l-5.455-.546a.265.265 0 0 0-.288.324l.347 1.427a.268.268 0 0 0 .247.202l5.331.265a.263.263 0 0 0 .276-.312Z"/>
  <path fill="url(#bB)" d="M288.334 148.317s.51-2.126.303-2.879c-.205-.753-.604-1.722-1.934-1.508-1.33.215-2.898.783-2.898.783s.08.982 1.09.666l-.627.49s.089.786.942.366l-.583.651s.367.644.996.231c.628-.414.929 1.455 2.711 1.2Z"/>
  <path fill="url(#bC)" d="m288.849 127.469 2.043 5.873a.21.21 0 0 1-.097.255c-.557.306-2.563 1.191-4.981-.334a.996.996 0 0 1-.462-.711l-.661-5.083h4.158Z"/>
  <path fill="url(#bD)" d="M284.42 122.138s-2.207 4.175-1.923 5.862c.283 1.687 3.018 1.565 5.407.195l1.668-4.508-5.152-1.549Z"/>
  <path fill="url(#bE)" d="M287.867 125.938a.174.174 0 0 1-.075-.253c.177-.271.508-.828.614-1.315 0 0 .397-.256-1.01-.597-1.406-.339-3.504-.867-3.946-2.076-.43-1.178.7-4.141 2.502-1.78a.17.17 0 0 0 .271.001c.295-.387 1.072-1.192 2.151-.704 1.01.457 1.123 1.203 1.11 1.579a.17.17 0 0 0 .201.175c.51-.098 1.735-.183 2.307 1.085.471 1.043.165 1.634-.114 1.924a.173.173 0 0 0 .072.286c.335.104.768.39.724 1.183-.059 1.096-1.275 1-1.619.948a.171.171 0 0 0-.152.055c-.297.33-1.633 1.736-3.078 1.906-.124.014-.221-.11-.181-.231l.626-1.835a.175.175 0 0 0-.093-.215l-.31-.136Z"/>
  <path fill="url(#bF)" d="M287.405 126.178s1.6-.985 1.717-.156c.116.829-1.442 1.202-2.213.893l.496-.737Z"/>
  <defs>
    <linearGradient id="a" x1="289.414" x2="243.917" y1="237.237" y2="135.194" gradientUnits="userSpaceOnUse">
      <stop stop-color="#A737D5"/>
      <stop offset="1" stop-color="#EF497A"/>
    </linearGradient>
    <linearGradient id="b" x1="157.944" x2="155.162" y1="210.674" y2="155.77" gradientUnits="userSpaceOnUse">
      <stop stop-color="#2B3582"/>
      <stop offset="1" stop-color="#150E42"/>
    </linearGradient>
    <linearGradient id="c" x1="45.058" x2="258.064" y1="97.267" y2="97.267" gradientUnits="userSpaceOnUse">
      <stop stop-color="#2B3582"/>
      <stop offset="1" stop-color="#150E42"/>
    </linearGradient>
    <linearGradient id="d" x1="67.841" x2="292.593" y1="18.821" y2="221.27" gradientUnits="userSpaceOnUse">
      <stop stop-color="#5AB6FF"/>
      <stop offset="1" stop-color="#2F68E3"/>
    </linearGradient>
    <linearGradient id="e" x1="157.884" x2="132.45" y1="189.967" y2="245.837" gradientUnits="userSpaceOnUse">
      <stop stop-color="#2B3582"/>
      <stop offset="1" stop-color="#150E42"/>
    </linearGradient>
    <linearGradient id="f" x1="40.51" x2="27.384" y1="146.173" y2="93.604" gradientUnits="userSpaceOnUse">
      <stop stop-color="#A737D5"/>
      <stop offset="1" stop-color="#EF497A"/>
    </linearGradient>
    <linearGradient id="g" x1="1.283" x2="70.453" y1="123.501" y2="246.074" gradientUnits="userSpaceOnUse">
      <stop stop-color="#B37CFF"/>
      <stop offset="1" stop-color="#F895E7"/>
    </linearGradient>
    <linearGradient id="h" x1="189.61" x2="305.001" y1="54.409" y2="199.357" gradientUnits="userSpaceOnUse">
      <stop stop-color="#2C50FF"/>
      <stop offset=".996" stop-color="#1A1B80"/>
    </linearGradient>
    <linearGradient id="i" x1="180.138" x2="310.57" y1="49.175" y2="204.703" gradientUnits="userSpaceOnUse">
      <stop stop-color="#53D8FF"/>
      <stop offset="1" stop-color="#3840F7"/>
    </linearGradient>
    <linearGradient id="j" x1="228.334" x2="241.203" y1="95.263" y2="95.263" gradientUnits="userSpaceOnUse">
      <stop stop-color="#A737D5"/>
      <stop offset="1" stop-color="#EF497A"/>
    </linearGradient>
    <linearGradient id="k" x1="207.922" x2="220.79" y1="119.468" y2="119.468" gradientUnits="userSpaceOnUse">
      <stop stop-color="#A737D5"/>
      <stop offset="1" stop-color="#EF497A"/>
    </linearGradient>
    <linearGradient id="l" x1="257.624" x2="269.606" y1="147.228" y2="147.228" gradientUnits="userSpaceOnUse">
      <stop stop-color="#A737D5"/>
      <stop offset="1" stop-color="#EF497A"/>
    </linearGradient>
    <linearGradient id="m" x1="187.952" x2="197.272" y1="99.928" y2="99.928" gradientUnits="userSpaceOnUse">
      <stop stop-color="#A737D5"/>
      <stop offset="1" stop-color="#EF497A"/>
    </linearGradient>
    <linearGradient id="n" x1="264.721" x2="276.702" y1="118.804" y2="118.804" gradientUnits="userSpaceOnUse">
      <stop stop-color="#A737D5"/>
      <stop offset="1" stop-color="#EF497A"/>
    </linearGradient>
    <linearGradient id="o" x1="205.096" x2="197.06" y1="60.773" y2="76.347" gradientUnits="userSpaceOnUse">
      <stop stop-color="#2B3582"/>
      <stop offset="1" stop-color="#150E42"/>
    </linearGradient>
    <linearGradient id="p" x1="224.178" x2="216.143" y1="64.77" y2="80.345" gradientUnits="userSpaceOnUse">
      <stop stop-color="#2B3582"/>
      <stop offset="1" stop-color="#150E42"/>
    </linearGradient>
    <linearGradient id="q" x1="244.148" x2="236.113" y1="68.768" y2="84.343" gradientUnits="userSpaceOnUse">
      <stop stop-color="#2B3582"/>
      <stop offset="1" stop-color="#150E42"/>
    </linearGradient>
    <linearGradient id="r" x1="264.56" x2="256.525" y1="72.32" y2="87.894" gradientUnits="userSpaceOnUse">
      <stop stop-color="#2B3582"/>
      <stop offset="1" stop-color="#150E42"/>
    </linearGradient>
    <linearGradient id="s" x1="284.53" x2="276.495" y1="75.874" y2="91.449" gradientUnits="userSpaceOnUse">
      <stop stop-color="#2B3582"/>
      <stop offset="1" stop-color="#150E42"/>
    </linearGradient>
    <linearGradient id="t" x1="219.564" x2="193.558" y1="45.764" y2="78.778" gradientUnits="userSpaceOnUse">
      <stop stop-color="#FDF53F"/>
      <stop offset="1" stop-color="#D93C65"/>
    </linearGradient>
    <linearGradient id="u" x1="238.647" x2="212.642" y1="49.762" y2="82.775" gradientUnits="userSpaceOnUse">
      <stop stop-color="#FDF53F"/>
      <stop offset="1" stop-color="#D93C65"/>
    </linearGradient>
    <linearGradient id="v" x1="258.173" x2="232.167" y1="54.203" y2="87.216" gradientUnits="userSpaceOnUse">
      <stop stop-color="#FDF53F"/>
      <stop offset="1" stop-color="#D93C65"/>
    </linearGradient>
    <linearGradient id="w" x1="279.03" x2="253.025" y1="57.757" y2="90.77" gradientUnits="userSpaceOnUse">
      <stop stop-color="#FDF53F"/>
      <stop offset="1" stop-color="#D93C65"/>
    </linearGradient>
    <linearGradient id="x" x1="298.997" x2="272.991" y1="61.752" y2="94.765" gradientUnits="userSpaceOnUse">
      <stop stop-color="#FDF53F"/>
      <stop offset="1" stop-color="#D93C65"/>
    </linearGradient>
    <linearGradient id="y" x1="221.466" x2="221.739" y1="96.063" y2="88.632" gradientUnits="userSpaceOnUse">
      <stop stop-color="#C32B78"/>
      <stop offset="1" stop-color="#593092"/>
    </linearGradient>
    <linearGradient id="z" x1="262.738" x2="263.01" y1="104.949" y2="97.518" gradientUnits="userSpaceOnUse">
      <stop stop-color="#C32B78"/>
      <stop offset="1" stop-color="#593092"/>
    </linearGradient>
    <linearGradient id="A" x1="240.993" x2="241.265" y1="129.818" y2="122.387" gradientUnits="userSpaceOnUse">
      <stop stop-color="#C32B78"/>
      <stop offset="1" stop-color="#593092"/>
    </linearGradient>
    <linearGradient id="B" x1="248.983" x2="249.256" y1="147.138" y2="139.707" gradientUnits="userSpaceOnUse">
      <stop stop-color="#C32B78"/>
      <stop offset="1" stop-color="#593092"/>
    </linearGradient>
    <linearGradient id="C" x1="196.617" x2="196.889" y1="133.815" y2="126.384" gradientUnits="userSpaceOnUse">
      <stop stop-color="#C32B78"/>
      <stop offset="1" stop-color="#593092"/>
    </linearGradient>
    <linearGradient id="D" x1="200.61" x2="200.883" y1="120.046" y2="112.615" gradientUnits="userSpaceOnUse">
      <stop stop-color="#C32B78"/>
      <stop offset="1" stop-color="#593092"/>
    </linearGradient>
    <linearGradient id="E" x1="216.597" x2="216.983" y1="111.365" y2="100.924" gradientUnits="userSpaceOnUse">
      <stop stop-color="#C32B78"/>
      <stop offset="1" stop-color="#593092"/>
    </linearGradient>
    <linearGradient id="F" x1="215.147" x2="219.21" y1="110.779" y2="101.018" gradientUnits="userSpaceOnUse">
      <stop stop-color="#C32B78"/>
      <stop offset="1" stop-color="#593092"/>
    </linearGradient>
    <linearGradient id="G" x1="223.255" x2="223.64" y1="142.012" y2="131.57" gradientUnits="userSpaceOnUse">
      <stop stop-color="#C32B78"/>
      <stop offset="1" stop-color="#593092"/>
    </linearGradient>
    <linearGradient id="H" x1="221.803" x2="225.866" y1="141.425" y2="131.664" gradientUnits="userSpaceOnUse">
      <stop stop-color="#C32B78"/>
      <stop offset="1" stop-color="#593092"/>
    </linearGradient>
    <linearGradient id="I" x1="209.468" x2="81.594" y1="-87.503" y2="76.536" gradientUnits="userSpaceOnUse">
      <stop stop-color="#53D8FF"/>
      <stop offset="1" stop-color="#3840F7"/>
    </linearGradient>
    <linearGradient id="J" x1="76.917" x2="51.221" y1="30.479" y2="75.997" gradientUnits="userSpaceOnUse">
      <stop stop-color="#53D8FF"/>
      <stop offset="1" stop-color="#3840F7"/>
    </linearGradient>
    <linearGradient id="K" x1="50.403" x2="23.259" y1="14.363" y2="61.911" gradientUnits="userSpaceOnUse">
      <stop stop-color="#53D8FF"/>
      <stop offset="1" stop-color="#3840F7"/>
    </linearGradient>
    <linearGradient id="L" x1="54.856" x2="31.24" y1="19.261" y2="64.209" gradientUnits="userSpaceOnUse">
      <stop stop-color="#53D8FF"/>
      <stop offset="1" stop-color="#3840F7"/>
    </linearGradient>
    <linearGradient id="M" x1="57.448" x2="30.591" y1="17.777" y2="65.27" gradientUnits="userSpaceOnUse">
      <stop stop-color="#53D8FF"/>
      <stop offset="1" stop-color="#3840F7"/>
    </linearGradient>
    <linearGradient id="N" x1="77.999" x2="75.135" y1="43.074" y2="61.807" gradientUnits="userSpaceOnUse">
      <stop stop-color="#FDF53F"/>
      <stop offset="1" stop-color="#D93C65"/>
    </linearGradient>
    <linearGradient id="O" x1="81.275" x2="93.381" y1="51.529" y2="41.517" gradientUnits="userSpaceOnUse">
      <stop stop-color="#FDF53F"/>
      <stop offset="1" stop-color="#D93C65"/>
    </linearGradient>
    <linearGradient id="P" x1="109.064" x2="106.2" y1="43.074" y2="61.807" gradientUnits="userSpaceOnUse">
      <stop stop-color="#FDF53F"/>
      <stop offset="1" stop-color="#D93C65"/>
    </linearGradient>
    <linearGradient id="Q" x1="112.338" x2="124.445" y1="51.529" y2="41.517" gradientUnits="userSpaceOnUse">
      <stop stop-color="#FDF53F"/>
      <stop offset="1" stop-color="#D93C65"/>
    </linearGradient>
    <linearGradient id="R" x1="140.128" x2="137.264" y1="43.074" y2="61.807" gradientUnits="userSpaceOnUse">
      <stop stop-color="#FDF53F"/>
      <stop offset="1" stop-color="#D93C65"/>
    </linearGradient>
    <linearGradient id="S" x1="143.403" x2="155.509" y1="51.529" y2="41.517" gradientUnits="userSpaceOnUse">
      <stop stop-color="#FDF53F"/>
      <stop offset="1" stop-color="#D93C65"/>
    </linearGradient>
    <linearGradient id="T" x1="109.062" x2="106.176" y1="62.608" y2="81.359" gradientUnits="userSpaceOnUse">
      <stop stop-color="#FDF53F"/>
      <stop offset="1" stop-color="#D93C65"/>
    </linearGradient>
    <linearGradient id="U" x1="112.338" x2="124.445" y1="71.067" y2="61.055" gradientUnits="userSpaceOnUse">
      <stop stop-color="#FDF53F"/>
      <stop offset="1" stop-color="#D93C65"/>
    </linearGradient>
    <linearGradient id="V" x1="140.126" x2="137.24" y1="62.608" y2="81.359" gradientUnits="userSpaceOnUse">
      <stop stop-color="#FDF53F"/>
      <stop offset="1" stop-color="#D93C65"/>
    </linearGradient>
    <linearGradient id="W" x1="143.403" x2="155.509" y1="71.067" y2="61.055" gradientUnits="userSpaceOnUse">
      <stop stop-color="#FDF53F"/>
      <stop offset="1" stop-color="#D93C65"/>
    </linearGradient>
    <linearGradient id="X" x1="109.063" x2="106.187" y1="81.71" y2="100.452" gradientUnits="userSpaceOnUse">
      <stop stop-color="#FDF53F"/>
      <stop offset="1" stop-color="#D93C65"/>
    </linearGradient>
    <linearGradient id="Y" x1="112.338" x2="124.445" y1="90.167" y2="80.155" gradientUnits="userSpaceOnUse">
      <stop stop-color="#FDF53F"/>
      <stop offset="1" stop-color="#D93C65"/>
    </linearGradient>
    <linearGradient id="Z" x1="140.127" x2="137.251" y1="81.71" y2="100.452" gradientUnits="userSpaceOnUse">
      <stop stop-color="#FDF53F"/>
      <stop offset="1" stop-color="#D93C65"/>
    </linearGradient>
    <linearGradient id="aa" x1="143.403" x2="155.509" y1="90.167" y2="80.155" gradientUnits="userSpaceOnUse">
      <stop stop-color="#FDF53F"/>
      <stop offset="1" stop-color="#D93C65"/>
    </linearGradient>
    <linearGradient id="ab" x1="70.674" x2="70.561" y1="70.332" y2="93.148" gradientUnits="userSpaceOnUse">
      <stop stop-color="#F9B776"/>
      <stop offset="1" stop-color="#F47960"/>
    </linearGradient>
    <linearGradient id="ac" x1="76.387" x2="76.904" y1="62.175" y2="80.918" gradientUnits="userSpaceOnUse">
      <stop stop-color="#FDF53F"/>
      <stop offset="1" stop-color="#D93C65"/>
    </linearGradient>
    <linearGradient id="ad" x1="80.527" x2="90.292" y1="69.929" y2="56.854" gradientUnits="userSpaceOnUse">
      <stop stop-color="#FDF53F"/>
      <stop offset="1" stop-color="#D93C65"/>
    </linearGradient>
    <linearGradient id="ae" x1="58.814" x2="45.945" y1="141.236" y2="141.236" gradientUnits="userSpaceOnUse">
      <stop stop-color="#F9B776"/>
      <stop offset="1" stop-color="#F47960"/>
    </linearGradient>
    <linearGradient id="af" x1="40.869" x2="47.103" y1="112.853" y2="153.948" gradientUnits="userSpaceOnUse">
      <stop stop-color="#53D8FF"/>
      <stop offset="1" stop-color="#3840F7"/>
    </linearGradient>
    <linearGradient id="ag" x1="54.426" x2="61.24" y1="108.723" y2="151.904" gradientUnits="userSpaceOnUse">
      <stop stop-color="#53D8FF"/>
      <stop offset="1" stop-color="#3840F7"/>
    </linearGradient>
    <linearGradient id="ah" x1="66.803" x2="59.258" y1="142.346" y2="142.346" gradientUnits="userSpaceOnUse">
      <stop stop-color="#F9B776"/>
      <stop offset="1" stop-color="#F47960"/>
    </linearGradient>
    <linearGradient id="ai" x1="82.778" x2="68.133" y1="85.272" y2="85.272" gradientUnits="userSpaceOnUse">
      <stop stop-color="#F9B776"/>
      <stop offset="1" stop-color="#F47960"/>
    </linearGradient>
    <linearGradient id="aj" x1="66.963" x2="38.821" y1="93.223" y2="148.5" gradientUnits="userSpaceOnUse">
      <stop stop-color="#FDF53F"/>
      <stop offset="1" stop-color="#D93C65"/>
    </linearGradient>
    <linearGradient id="ak" x1="73.177" x2="48.803" y1="107.934" y2="134.931" gradientUnits="userSpaceOnUse">
      <stop stop-color="#CB236D"/>
      <stop offset="1" stop-color="#4C246D"/>
    </linearGradient>
    <linearGradient id="al" x1="64.14" x2="59.702" y1="92.602" y2="92.602" gradientUnits="userSpaceOnUse">
      <stop stop-color="#F9B776"/>
      <stop offset="1" stop-color="#F47960"/>
    </linearGradient>
    <linearGradient id="am" x1="57.017" x2="23.445" y1="86.646" y2="88.892" gradientUnits="userSpaceOnUse">
      <stop stop-color="#F9B776"/>
      <stop offset="1" stop-color="#F47960"/>
    </linearGradient>
    <linearGradient id="an" x1="67.178" x2="49.007" y1="85.829" y2="122.17" gradientUnits="userSpaceOnUse">
      <stop stop-color="#2B3582"/>
      <stop offset="1" stop-color="#150E42"/>
    </linearGradient>
    <linearGradient id="ao" x1="75.538" x2="18.685" y1="167.298" y2="223.426" gradientUnits="userSpaceOnUse">
      <stop stop-color="#2B3582"/>
      <stop offset="1" stop-color="#150E42"/>
    </linearGradient>
    <linearGradient id="ap" x1="65.353" x2="8.5" y1="162.61" y2="218.738" gradientUnits="userSpaceOnUse">
      <stop stop-color="#2B3582"/>
      <stop offset="1" stop-color="#150E42"/>
    </linearGradient>
    <linearGradient id="aq" x1="18.435" x2="45.504" y1="178.765" y2="178.765" gradientUnits="userSpaceOnUse">
      <stop stop-color="#9CFFFB"/>
      <stop offset="1" stop-color="#9BFFFA"/>
    </linearGradient>
    <linearGradient id="ar" x1="34.854" x2="61.923" y1="178.765" y2="178.765" gradientUnits="userSpaceOnUse">
      <stop stop-color="#9CFFFB"/>
      <stop offset="1" stop-color="#9BFFFA"/>
    </linearGradient>
    <linearGradient id="as" x1="43.287" x2="68.582" y1="157.667" y2="157.667" gradientUnits="userSpaceOnUse">
      <stop stop-color="#9CFFFB"/>
      <stop offset="1" stop-color="#9BFFFA"/>
    </linearGradient>
    <linearGradient id="at" x1="40.623" x2="57.929" y1="164.33" y2="164.33" gradientUnits="userSpaceOnUse">
      <stop stop-color="#9CFFFB"/>
      <stop offset="1" stop-color="#9BFFFA"/>
    </linearGradient>
    <linearGradient id="au" x1="36.185" x2="52.605" y1="172.323" y2="172.323" gradientUnits="userSpaceOnUse">
      <stop stop-color="#9CFFFB"/>
      <stop offset="1" stop-color="#9BFFFA"/>
    </linearGradient>
    <linearGradient id="av" x1="31.304" x2="47.723" y1="179.875" y2="179.875" gradientUnits="userSpaceOnUse">
      <stop stop-color="#9CFFFB"/>
      <stop offset="1" stop-color="#9BFFFA"/>
    </linearGradient>
    <linearGradient id="aw" x1="25.979" x2="43.285" y1="187.871" y2="187.871" gradientUnits="userSpaceOnUse">
      <stop stop-color="#9CFFFB"/>
      <stop offset="1" stop-color="#9BFFFA"/>
    </linearGradient>
    <linearGradient id="ax" x1="21.097" x2="38.403" y1="195.864" y2="195.864" gradientUnits="userSpaceOnUse">
      <stop stop-color="#9CFFFB"/>
      <stop offset="1" stop-color="#9BFFFA"/>
    </linearGradient>
    <linearGradient id="ay" x1="103.994" x2="128.092" y1="15.641" y2="1.921" gradientUnits="userSpaceOnUse">
      <stop stop-color="#A737D5"/>
      <stop offset="1" stop-color="#EF497A"/>
    </linearGradient>
    <linearGradient id="az" x1="119.825" x2="149.39" y1="9.029" y2="2.057" gradientUnits="userSpaceOnUse">
      <stop stop-color="#A737D5"/>
      <stop offset="1" stop-color="#EF497A"/>
    </linearGradient>
    <linearGradient id="aA" x1="106.802" x2="129.184" y1="16.37" y2="4.294" gradientUnits="userSpaceOnUse">
      <stop stop-color="#A737D5"/>
      <stop offset="1" stop-color="#EF497A"/>
    </linearGradient>
    <linearGradient id="aB" x1="118.452" x2="130.004" y1="10.935" y2="10.242" gradientUnits="userSpaceOnUse">
      <stop stop-color="#A737D5"/>
      <stop offset="1" stop-color="#EF497A"/>
    </linearGradient>
    <linearGradient id="aC" x1="195.744" x2="182.244" y1="122.896" y2="144.465" gradientUnits="userSpaceOnUse">
      <stop stop-color="#F9B776"/>
      <stop offset="1" stop-color="#F47960"/>
    </linearGradient>
    <linearGradient id="aD" x1="183.941" x2="152.794" y1="114.5" y2="175.589" gradientUnits="userSpaceOnUse">
      <stop stop-color="#CB236D"/>
      <stop offset="1" stop-color="#4C246D"/>
    </linearGradient>
    <linearGradient id="aE" x1="179.865" x2="170.407" y1="134.216" y2="162.476" gradientUnits="userSpaceOnUse">
      <stop stop-color="#FDF53F"/>
      <stop offset="1" stop-color="#D93C65"/>
    </linearGradient>
    <linearGradient id="aF" x1="179.05" x2="176.617" y1="137.885" y2="132.216" gradientUnits="userSpaceOnUse">
      <stop stop-color="#F9B776"/>
      <stop offset="1" stop-color="#F47960"/>
    </linearGradient>
    <linearGradient id="aG" x1="179.279" x2="174.09" y1="124.239" y2="135.41" gradientUnits="userSpaceOnUse">
      <stop stop-color="#F9B776"/>
      <stop offset="1" stop-color="#F47960"/>
    </linearGradient>
    <linearGradient id="aH" x1="181.466" x2="150.746" y1="113.12" y2="174.812" gradientUnits="userSpaceOnUse">
      <stop stop-color="#CB236D"/>
      <stop offset="1" stop-color="#4C246D"/>
    </linearGradient>
    <linearGradient id="aI" x1="176.456" x2="170.762" y1="122.933" y2="134.005" gradientUnits="userSpaceOnUse">
      <stop stop-color="#F9B776"/>
      <stop offset="1" stop-color="#F47960"/>
    </linearGradient>
    <linearGradient id="aJ" x1="164.895" x2="183.67" y1="208.133" y2="174.035" gradientUnits="userSpaceOnUse">
      <stop stop-color="#F9B776"/>
      <stop offset="1" stop-color="#F47960"/>
    </linearGradient>
    <linearGradient id="aK" x1="168.864" x2="174.603" y1="196.344" y2="196.288" gradientUnits="userSpaceOnUse">
      <stop stop-color="#2B3582"/>
      <stop offset="1" stop-color="#150E42"/>
    </linearGradient>
    <linearGradient id="aL" x1="186.734" x2="157.523" y1="183.303" y2="193.109" gradientUnits="userSpaceOnUse">
      <stop stop-color="#F9B776"/>
      <stop offset="1" stop-color="#F47960"/>
    </linearGradient>
    <linearGradient id="aM" x1="174.216" x2="180.822" y1="197.431" y2="197.368" gradientUnits="userSpaceOnUse">
      <stop stop-color="#2B3582"/>
      <stop offset="1" stop-color="#150E42"/>
    </linearGradient>
    <linearGradient id="aN" x1="186.366" x2="160.114" y1="176.979" y2="143.585" gradientUnits="userSpaceOnUse">
      <stop stop-color="#FDF53F"/>
      <stop offset="1" stop-color="#D93C65"/>
    </linearGradient>
    <linearGradient id="aO" x1="166.542" x2="193.978" y1="155.705" y2="115.641" gradientUnits="userSpaceOnUse">
      <stop stop-color="#F9B776"/>
      <stop offset="1" stop-color="#F47960"/>
    </linearGradient>
    <linearGradient id="aP" x1="117.13" x2="138.514" y1="134.274" y2="145.935" gradientUnits="userSpaceOnUse">
      <stop stop-color="#ED539F"/>
      <stop offset="1" stop-color="#A061C2"/>
    </linearGradient>
    <linearGradient id="aQ" x1="135.141" x2="128.929" y1="196.972" y2="196.972" gradientUnits="userSpaceOnUse">
      <stop stop-color="#CB236D"/>
      <stop offset="1" stop-color="#4C246D"/>
    </linearGradient>
    <linearGradient id="aR" x1="133.597" x2="134.777" y1="189.69" y2="199.736" gradientUnits="userSpaceOnUse">
      <stop stop-color="#F9B776"/>
      <stop offset="1" stop-color="#F47960"/>
    </linearGradient>
    <linearGradient id="aS" x1="125.823" x2="116.504" y1="197.196" y2="197.196" gradientUnits="userSpaceOnUse">
      <stop stop-color="#CB236D"/>
      <stop offset="1" stop-color="#4C246D"/>
    </linearGradient>
    <linearGradient id="aT" x1="123.536" x2="124.935" y1="190.971" y2="201.986" gradientUnits="userSpaceOnUse">
      <stop stop-color="#F9B776"/>
      <stop offset="1" stop-color="#F47960"/>
    </linearGradient>
    <linearGradient id="aU" x1="109.133" x2="148.197" y1="142.371" y2="202.986" gradientUnits="userSpaceOnUse">
      <stop stop-color="#53D8FF"/>
      <stop offset="1" stop-color="#3840F7"/>
    </linearGradient>
    <linearGradient id="aV" x1="123.16" x2="157.514" y1="118.17" y2="193.548" gradientUnits="userSpaceOnUse">
      <stop stop-color="#ED539F"/>
      <stop offset="1" stop-color="#A061C2"/>
    </linearGradient>
    <linearGradient id="aW" x1="134.455" x2="130.838" y1="118.645" y2="130.182" gradientUnits="userSpaceOnUse">
      <stop stop-color="#F9B776"/>
      <stop offset="1" stop-color="#F47960"/>
    </linearGradient>
    <linearGradient id="aX" x1="130.831" x2="129.508" y1="117.774" y2="131.267" gradientUnits="userSpaceOnUse">
      <stop stop-color="#F9B776"/>
      <stop offset="1" stop-color="#F47960"/>
    </linearGradient>
    <linearGradient id="aY" x1="133.78" x2="126.569" y1="123.967" y2="117.109" gradientUnits="userSpaceOnUse">
      <stop stop-color="#2B3582"/>
      <stop offset="1" stop-color="#150E42"/>
    </linearGradient>
    <linearGradient id="aZ" x1="-69.891" x2="-81.088" y1="213.779" y2="218.709" gradientUnits="userSpaceOnUse">
      <stop stop-color="#F9B776"/>
      <stop offset="1" stop-color="#F47960"/>
    </linearGradient>
    <linearGradient id="ba" x1="133.97" x2="142.47" y1="125.94" y2="144.435" gradientUnits="userSpaceOnUse">
      <stop stop-color="#ED539F"/>
      <stop offset="1" stop-color="#A061C2"/>
    </linearGradient>
    <linearGradient id="bb" x1="130.745" x2="134.216" y1="158.589" y2="164.533" gradientUnits="userSpaceOnUse">
      <stop stop-color="#53D8FF"/>
      <stop offset="1" stop-color="#3840F7"/>
    </linearGradient>
    <linearGradient id="bc" x1="143.575" x2="133.369" y1="153.227" y2="153.227" gradientUnits="userSpaceOnUse">
      <stop stop-color="#F9B776"/>
      <stop offset="1" stop-color="#F47960"/>
    </linearGradient>
    <linearGradient id="bd" x1="119.337" x2="115.724" y1="136.505" y2="141.904" gradientUnits="userSpaceOnUse">
      <stop stop-color="#F9B776"/>
      <stop offset="1" stop-color="#F47960"/>
    </linearGradient>
    <linearGradient id="be" x1="118.646" x2="113.7" y1="142.66" y2="130.162" gradientUnits="userSpaceOnUse">
      <stop stop-color="#2B3582"/>
      <stop offset="1" stop-color="#150E42"/>
    </linearGradient>
    <linearGradient id="bf" x1="112.145" x2="90.859" y1="113.675" y2="135.314" gradientUnits="userSpaceOnUse">
      <stop stop-color="#CB236D"/>
      <stop offset="1" stop-color="#4C246D"/>
    </linearGradient>
    <linearGradient id="bg" x1="84.642" x2="97.544" y1="109.429" y2="119.067" gradientUnits="userSpaceOnUse">
      <stop stop-color="#A737D5"/>
      <stop offset="1" stop-color="#EF497A"/>
    </linearGradient>
    <linearGradient id="bh" x1="97.834" x2="92.016" y1="118.646" y2="116.429" gradientUnits="userSpaceOnUse">
      <stop stop-color="#A737D5"/>
      <stop offset="1" stop-color="#EF497A"/>
    </linearGradient>
    <linearGradient id="bj" x1="90.374" x2="106.443" y1="116.058" y2="121.517" gradientUnits="userSpaceOnUse">
      <stop stop-color="#2B3582"/>
      <stop offset="1" stop-color="#150E42"/>
    </linearGradient>
    <linearGradient id="bk" x1="118.462" x2="123.025" y1="129.924" y2="115.306" gradientUnits="userSpaceOnUse">
      <stop stop-color="#2B3582"/>
      <stop offset="1" stop-color="#150E42"/>
    </linearGradient>
    <linearGradient id="bl" x1="115.956" x2="112.079" y1="132.623" y2="131.477" gradientUnits="userSpaceOnUse">
      <stop stop-color="#F9B776"/>
      <stop offset="1" stop-color="#F47960"/>
    </linearGradient>
    <linearGradient id="bm" x1="276.842" x2="303.252" y1="191.05" y2="221.022" gradientUnits="userSpaceOnUse">
      <stop stop-color="#CB236D"/>
      <stop offset="1" stop-color="#4C246D"/>
    </linearGradient>
    <linearGradient id="bn" x1="285.579" x2="283.36" y1="193.645" y2="193.645" gradientUnits="userSpaceOnUse">
      <stop stop-color="#C4421B"/>
      <stop offset="1" stop-color="#5C0E16"/>
    </linearGradient>
    <linearGradient id="bo" x1="296.312" x2="256.995" y1="185.919" y2="137.634" gradientUnits="userSpaceOnUse">
      <stop stop-color="#2C50FF"/>
      <stop offset=".996" stop-color="#1A1B80"/>
    </linearGradient>
    <linearGradient id="bp" x1="283.047" x2="310.991" y1="185.205" y2="215.673" gradientUnits="userSpaceOnUse">
      <stop stop-color="#CB236D"/>
      <stop offset="1" stop-color="#4C246D"/>
    </linearGradient>
    <linearGradient id="bq" x1="294.453" x2="292.234" y1="192.979" y2="192.979" gradientUnits="userSpaceOnUse">
      <stop stop-color="#C4421B"/>
      <stop offset="1" stop-color="#5C0E16"/>
    </linearGradient>
    <linearGradient id="br" x1="300.742" x2="261.866" y1="182.792" y2="133.917" gradientUnits="userSpaceOnUse">
      <stop stop-color="#2C50FF"/>
      <stop offset=".996" stop-color="#1A1B80"/>
    </linearGradient>
    <linearGradient id="bs" x1="299.913" x2="261.883" y1="152.9" y2="125.646" gradientUnits="userSpaceOnUse">
      <stop stop-color="#FDF53F"/>
      <stop offset="1" stop-color="#D93C65"/>
    </linearGradient>
    <linearGradient id="bt" x1="275.814" x2="263.39" y1="130.353" y2="130.353" gradientUnits="userSpaceOnUse">
      <stop stop-color="#C4421B"/>
      <stop offset="1" stop-color="#5C0E16"/>
    </linearGradient>
    <linearGradient id="bu" x1="266.004" x2="274.599" y1="128.218" y2="146.93" gradientUnits="userSpaceOnUse">
      <stop stop-color="#C4421B"/>
      <stop offset="1" stop-color="#5C0E16"/>
    </linearGradient>
    <linearGradient id="bv" x1="263.679" x2="260.081" y1="122.111" y2="116.594" gradientUnits="userSpaceOnUse">
      <stop stop-color="#C4421B"/>
      <stop offset="1" stop-color="#5C0E16"/>
    </linearGradient>
    <linearGradient id="bw" x1="304.684" x2="266.555" y1="145.939" y2="118.92" gradientUnits="userSpaceOnUse">
      <stop stop-color="#FDF53F"/>
      <stop offset="1" stop-color="#D93C65"/>
    </linearGradient>
    <linearGradient id="bx" x1="302.884" x2="287.352" y1="147.897" y2="147.897" gradientUnits="userSpaceOnUse">
      <stop stop-color="#C4421B"/>
      <stop offset="1" stop-color="#5C0E16"/>
    </linearGradient>
    <linearGradient id="by" x1="284.768" x2="276.413" y1="128.137" y2="163.603" gradientUnits="userSpaceOnUse">
      <stop stop-color="#2B3582"/>
      <stop offset="1" stop-color="#150E42"/>
    </linearGradient>
    <linearGradient id="bz" x1="277.36" x2="278.824" y1="131.694" y2="138.819" gradientUnits="userSpaceOnUse">
      <stop stop-color="#53D8FF"/>
      <stop offset="1" stop-color="#3840F7"/>
    </linearGradient>
    <linearGradient id="bA" x1="278.274" x2="279.145" y1="134.497" y2="139.789" gradientUnits="userSpaceOnUse">
      <stop stop-color="#53D8FF"/>
      <stop offset="1" stop-color="#3840F7"/>
    </linearGradient>
    <linearGradient id="bB" x1="288.686" x2="283.805" y1="146.12" y2="146.12" gradientUnits="userSpaceOnUse">
      <stop stop-color="#C4421B"/>
      <stop offset="1" stop-color="#5C0E16"/>
    </linearGradient>
    <linearGradient id="bC" x1="290.903" x2="284.69" y1="130.8" y2="130.8" gradientUnits="userSpaceOnUse">
      <stop stop-color="#C4421B"/>
      <stop offset="1" stop-color="#5C0E16"/>
    </linearGradient>
    <linearGradient id="bD" x1="283.248" x2="289.987" y1="126.952" y2="122.863" gradientUnits="userSpaceOnUse">
      <stop stop-color="#C4421B"/>
      <stop offset="1" stop-color="#5C0E16"/>
    </linearGradient>
    <linearGradient id="bE" x1="293.599" x2="284.854" y1="118.415" y2="125.26" gradientUnits="userSpaceOnUse">
      <stop stop-color="#2B3582"/>
      <stop offset="1" stop-color="#150E42"/>
    </linearGradient>
    <linearGradient id="bF" x1="284.825" x2="290.606" y1="128.223" y2="124.296" gradientUnits="userSpaceOnUse">
      <stop stop-color="#C4421B"/>
      <stop offset="1" stop-color="#5C0E16"/>
    </linearGradient>
  </defs>
</svg>
