<svg xmlns="http://www.w3.org/2000/svg" width="294" height="265" fill="none" viewBox="0 0 294 265">
  <path fill="#EF456E" d="M284.988 192.825c-3.935-4.56-8.759-8.359-13.875-11.518-5.658-3.494-12.892-5.369-17.864-9.811-5.72-5.11-5.484-14.084-3.469-20.856 2.051-6.891 6.21-13.009 10.682-18.559 8.259-10.249 18.402-19.275 23.5-31.694 4.548-11.079 2.951-22.977-5.043-32.013-8.289-9.372-20.591-13.463-32.859-13.642-15.36-.225-29.285 5.773-44.219 8.084-8.039 1.244-16.023.584-23.186-3.494-6.104-3.474-11.07-8.575-15.763-13.714-8.992-9.846-17.908-19.636-28.569-27.747-19.356-14.726-44.83-23.27-68.539-14.019C55.36 7.91 45.37 15.888 41.574 26.711c-4.81 13.712 4.12 27.617 11.1 38.81 7.737 12.41 16.807 26.41 13.823 41.781-2.472 12.729-13.416 19.068-24.605 23.356-9.683 3.711-20.135 6.527-28.39 13.077-9.495 7.533-14.682 19.93-13.273 31.963 1.496 12.779 9.599 23.616 18.492 32.433 8.764 8.689 21.907 19.287 18.708 33.275-1.6 7.003-6.908 12.681-13.723 14.878-.204.066-.207.302-.092.417-.297-.108-.57.139-.672.388-.136.333-.022.795.073 1.138.052.19.137.357.242.51h247.377c1.19-2.683 3.448-4.607 5.596-6.669a64.942 64.942 0 0 0 6.504-7.236c4.215-5.477 7.675-11.685 9.685-18.313 3.687-12.159.811-24.143-7.431-33.694Z" opacity=".1"/>
  <path fill="#C2BEDB" d="M146.802 265.002c76.532 0 138.572-2.717 138.572-6.067 0-3.351-62.04-6.068-138.572-6.068-76.53 0-138.572 2.717-138.572 6.068 0 3.35 62.041 6.067 138.572 6.067Z"/>
  <path fill="#EF456E" d="M236.896 77.716c-2.11 1.596-4.221 2.892-6.706 3.86-1.526.595-3.209.925-4.68 1.655-1.693.84-2.567 1.939-3.03 3.417-.064-4.3-.387-8.595-.933-12.865 1.521 1.264 4.4.235 5.909-.636 2.369-1.367 3.843-3.705 3.734-6.462-.009-.227-.267-.395-.47-.26-1.353.895-2.772 1.603-4.33 2.07-1.02.306-2.066.494-3.011 1.01-1.044.57-1.773 1.355-2.012 2.444a.655.655 0 0 0-.057.024c-.409-2.843-.934-5.67-1.55-8.479 3.456 1.293 6.33-2.382 5.557-5.688-.059-.25-.451-.375-.616-.151-1.263 1.715-4.623 1.992-5.326 4.093a114.76 114.76 0 0 0-.893-3.556c-.066-.245-.429-.136-.375.109.52 2.364.976 4.745 1.372 7.137-.524-.539-1.25-.89-2.06-.99-1.206-.147-2.122.321-3.269.47-1.172.151-2.034-.663-3.187-.33-.372.108-.52.47-.456.826.346 1.938 1.766 3.775 3.644 4.465 2.085.766 4.095-.344 5.781-1.515.485 3.39.84 6.798 1.056 10.214-1.33-2.177-3.875-2.728-6.382-3.237-1.156-.234-1.981-.653-2.942-1.314-.31-.213-.517-.457-.888-.454-1.64.012-1.106 2.423-.879 3.392.262 1.119.634 2.261 1.242 3.242a5.33 5.33 0 0 0 3.489 2.444c2.313.464 5.124-.212 6.46-2.3.181 3.688.197 7.382.041 11.067-.063-.07-.126-.138-.186-.206-.466-.825-1.383-.939-2.335-.83-.942.108-1.631.158-2.554-.173-.503-.18-1.007-.423-1.538-.28-.116.031-.178.137-.186.25-.124 1.697 1.494 3.495 3.012 3.997 1.454.48 2.673.035 3.687-.828a111.503 111.503 0 0 1-.401 4.968c-.679-.896-1.725-1.295-2.96-1.384-1.49-.107-2.875.097-4.34-.346-1.466-.443-2.888-1.152-4.311-1.72-.28-.112-.633.09-.534.427.673 2.279 1.778 6.153 4.143 7.231 1.321.602 3.056.299 4.316-.298 1.349-.64 2.213-2.123 3.56-2.673a104.858 104.858 0 0 1-2.578 14.036c-.023.089-.05.176-.072.263-.245-1.015-.87-1.926-1.804-2.467-.93-.539-2.041-.738-3.015-1.189-.954-.442-1.819-1.018-2.819-1.36-.214-.073-.438.097-.496.295-.641 2.199-1.092 5.811 1.428 7.081 1.554.783 4.57.91 6.149-.328a97.085 97.085 0 0 1-2.929 8.693c-.506-1.529-1.62-2.72-3.069-3.744-1.53-1.081-3.284-1.765-4.75-2.948-2.476-1.997-3.439-4.634-4.397-7.577-.099-.307-.518-.362-.682-.077-2.709 4.664-4.048 11.354-.775 16.145 2.606 3.816 9.129 2.344 12.902.136a101.799 101.799 0 0 1-6.424 12.823c-1.34 2.265-2.777 4.454-4.266 6.603.452-2.73-1.967-4.086-4.202-5.292-2.466-1.33-4.086-2.967-5.329-5.529-.997-2.056-1.453-4.663-2.791-6.525-.088-.123-.242-.249-.406-.226-2.497.356-4.106 5.008-4.852 7.094-1.049 2.94-.934 5.97.548 8.744 2.8 5.243 9.374 6.809 14.732 4.977-3.429 4.731-7.028 9.334-10.359 14.157-.463.67.613 1.45 1.144.842 6.206-7.092 11.943-14.789 16.734-23.005.211 5.515 6.336 9.442 11.517 8.545 5.37-.929 11.226-7.209 12.315-12.466.068-.328-.222-.648-.562-.546-2.281.686-4.625 1.517-6.968 1.953-3.383.63-5.165-.58-8.314-1.041-2.337-.342-4.559-.057-6.532.983 3.267-5.928 6.033-12.112 8.104-18.534 4.018 1.83 8.734 1.702 12.45-.848 3.496-2.399 7.183-8.078 6.76-12.422-.03-.31-.341-.519-.629-.349-4.352 2.578-8.976 3.172-13.492 5.141-1.399.609-2.539 1.417-3.387 2.51.057-.226.123-.449.178-.675a104.128 104.128 0 0 0 1.855-9.775c5.434 6.048 13.361.243 14.781-6.333.072-.334-.302-.66-.612-.452-1.913 1.284-3.846 2.17-6.186 1.902-1.016-.117-1.86-.305-2.901-.144-1.985.307-3.609 1.374-4.804 2.901.533-4.4.798-8.825.797-13.253a.62.62 0 0 0 .179.148c3.033 1.627 6.769.757 9.606-1.034 2.904-1.834 4.276-6.074 5.259-9.197.103-.341-.343-.7-.642-.473Z"/>
  <path fill="#A39EC0" d="M239.559 109.683c-1.811 1.844-4.254 4.374-4.458 7.087-.199 2.65.575 5.589 2.826 7.112a.498.498 0 0 0 .169.071 86.333 86.333 0 0 0-8.927 5.461c.622-1.402.766-2.935.246-4.439-.273-.789-.715-1.311-1.171-1.98-1.051-1.54-1.147-3.222-.961-5.038.031-.293-.334-.435-.539-.261-4.052 3.427-5.164 11.128 1.049 12.698a81.835 81.835 0 0 0-6.116 4.916c-.138.122-.268.251-.405.374.448-.998.589-2.096.497-3.301-.298-3.893-1.591-7.353-1.404-11.355.013-.265-.248-.405-.475-.312-3.178 1.31-5.769 5.995-6.148 9.332-.402 3.546 1.249 6.898 4.006 9.036-3.703 3.827-6.985 8.053-9.903 12.535-.005-1.767-.628-3.43-1.727-4.94-1.483-2.036-2.983-2.837-3.793-5.44-.562-1.802-.849-3.752-1.213-5.605-.054-.276-.384-.361-.587-.191-3.256 2.707-5.464 9.134-4.128 13.24 1.289 3.962 6.282 6.799 10.197 4.907-3.949 6.396-7.185 13.263-9.829 20.235-.226.598.713 1.062 1.008.49 2.126-4.118 4.001-8.342 6.026-12.495.702 4.432 4.219 8.458 8.9 8.48 2.477.012 4.627-1.028 6.285-2.851 1.176-1.294 3.819-4.142 3.145-6.023-.044-.124-.189-.186-.307-.202-1.79-.248-3.772.397-5.57.459-2.242.077-3.979-.452-5.814-1.688-1.664-1.12-3.5-2.313-5.234-.986a86.672 86.672 0 0 1 3.02-5.432 80.449 80.449 0 0 1 6.55-9.245c-.143 3.461 1.241 8.575 4.857 8.99 4.541.521 8.701-2.893 10.946-6.516a.298.298 0 0 0-.306-.45c-2.401.417-4.591.718-6.894-.278-1.365-.589-2.487-1.565-3.804-2.236-1.247-.637-2.487-.976-3.738-.765a75.955 75.955 0 0 1 4.966-5.268c-.279 1.564.923 3.63 2.041 4.429 1.814 1.296 4.16-.357 5.453-1.62.117-.114.153-.334.023-.456-.607-.574-1.327-.967-1.987-1.473-.673-.515-1.222-1.22-1.94-1.672a3.039 3.039 0 0 0-2.382-.35l.156-.148a82.512 82.512 0 0 1 8.813-7c.115 1.148-.598 2.301-.545 3.483.049 1.105.48 2.431 1.387 3.134 1.623 1.259 4.726.6 6.559.228.271-.055.281-.377.1-.532-.92-.787-1.939-1.522-2.788-2.385-.849-.862-1.217-1.908-1.842-2.912-.518-.834-1.182-1.418-2.056-1.563a87.477 87.477 0 0 1 3.309-2.118c-.226 1.03-.086 2.048.785 2.89.909.878 2.757 1.345 3.892.632.076-.048.127-.13.106-.223-.097-.425-.452-.688-.763-.974-.57-.525-.79-1.025-1.063-1.725-.276-.708-.693-1.308-1.439-1.33-.069-.016-.14-.036-.212-.053a94.654 94.654 0 0 1 7.715-4.065c-.959 1.708-.391 3.927.785 5.376a4.2 4.2 0 0 0 2.988 1.54c.906.063 1.839-.099 2.713-.329.759-.199 2.633-.718 2.036-1.871-.134-.261-.381-.316-.643-.454-.815-.429-1.411-.852-2.001-1.575-1.278-1.569-2.602-3.148-4.607-3.274a102.427 102.427 0 0 1 7.496-3.039c-.192 1.615-.223 3.434 1.08 4.611 1.173 1.061 2.976 1.376 4.451.902.272-.087.47-.324.407-.625-.194-.931-1.078-1.234-1.406-2.111-.32-.859-.332-1.674-.88-2.464a2.718 2.718 0 0 0-1.449-1.077c1.81-.608 3.635-1.168 5.472-1.679.189-.053.131-.347-.063-.303-.938.215-1.873.446-2.804.69 1.203-1.27.155-3.727.882-5.246.095-.198-.137-.426-.332-.375-2.586.682-4.081 4.055-1.907 5.998a92.38 92.38 0 0 0-6.471 2.051.263.263 0 0 0-.005-.049c.67-.57.948-1.372.959-2.314.009-.853-.246-1.655-.409-2.483-.25-1.265-.282-2.521-.157-3.8.018-.192-.194-.311-.355-.233-1.958.944-3.04 2.841-3.117 5.007-.049 1.38.298 3.776 1.738 4.375a89.997 89.997 0 0 0-9.294 4.106c.857-.871 1.299-1.89 1.259-3.387-.036-1.3-.426-2.602-.576-3.892-.243-2.099-.121-4.056.21-6.126.047-.293-.367-.474-.564-.273Z"/>
  <path fill="#EFAC3F" d="M48.237 138.857c.983 3.124 2.355 7.363 5.26 9.197 2.836 1.791 6.571 2.661 9.604 1.035a.634.634 0 0 0 .18-.148c-.002 4.428.264 8.854.796 13.253-1.195-1.527-2.819-2.595-4.804-2.901-1.04-.161-1.886.027-2.9.144-2.341.268-4.273-.618-6.187-1.902-.31-.208-.684.117-.611.452 1.42 6.576 9.346 12.381 14.78 6.333.464 3.28 1.077 6.542 1.855 9.775.055.227.12.449.178.675-.847-1.094-1.988-1.901-3.387-2.51-4.515-1.969-9.14-2.563-13.492-5.141-.288-.17-.6.039-.629.349-.424 4.344 3.263 10.023 6.76 12.423 3.716 2.549 8.431 2.677 12.45.847 2.072 6.423 4.837 12.607 8.104 18.535-1.973-1.04-4.195-1.325-6.532-.983-3.149.461-4.931 1.67-8.314 1.041-2.343-.436-4.687-1.267-6.968-1.954-.34-.102-.63.218-.562.546 1.089 5.258 6.946 11.538 12.315 12.467 5.181.896 11.306-3.031 11.517-8.546 4.79 8.217 10.528 15.913 16.734 23.006.531.608 1.607-.173 1.144-.842-3.331-4.823-6.93-9.426-10.36-14.157 5.359 1.832 11.933.266 14.733-4.977 1.482-2.774 1.597-5.805.548-8.744-.745-2.087-2.355-6.738-4.852-7.094-.165-.024-.319.103-.406.225-1.338 1.862-1.794 4.47-2.79 6.525-1.244 2.562-2.864 4.199-5.33 5.53-2.235 1.205-4.654 2.561-4.202 5.293-1.489-2.15-2.926-4.339-4.266-6.603a101.962 101.962 0 0 1-6.424-12.824c3.773 2.208 10.296 3.68 12.902-.135 3.273-4.791 1.933-11.482-.775-16.146a.376.376 0 0 0-.682.078c-.959 2.942-1.922 5.58-4.397 7.577-1.466 1.182-3.22 1.867-4.75 2.947-1.448 1.024-2.563 2.216-3.069 3.744a96.881 96.881 0 0 1-2.93-8.692c1.58 1.239 4.596 1.111 6.15.328 2.52-1.27 2.068-4.883 1.427-7.081-.057-.198-.282-.369-.495-.296-1 .342-1.865.918-2.82 1.361-.974.45-2.084.649-3.014 1.188-.935.542-1.56 1.452-1.804 2.468-.023-.089-.05-.175-.072-.263a104.827 104.827 0 0 1-2.579-14.037c1.348.55 2.21 2.033 3.56 2.673 1.261.598 2.996.9 4.316.298 2.366-1.078 3.47-4.953 4.143-7.23.1-.337-.254-.539-.534-.427-1.422.568-2.846 1.276-4.31 1.72-1.466.443-2.85.238-4.34.345-1.236.089-2.282.488-2.96 1.384a112.028 112.028 0 0 1-.402-4.968c1.014.863 2.234 1.309 3.688.828 1.517-.502 3.135-2.299 3.012-3.997-.008-.113-.07-.218-.186-.25-.53-.143-1.035.1-1.538.281-.924.33-1.612.281-2.554.173-.953-.108-1.87.005-2.336.83l-.185.206c-.157-3.685-.14-7.379.04-11.067 1.337 2.088 4.148 2.764 6.46 2.3a5.335 5.335 0 0 0 3.49-2.444c.608-.981.98-2.124 1.242-3.242.227-.97.76-3.38-.88-3.393-.37-.002-.578.241-.887.455-.961.661-1.787 1.08-2.942 1.314-2.508.508-5.053 1.059-6.383 3.237.216-3.416.572-6.825 1.056-10.214 1.686 1.17 3.696 2.28 5.781 1.515 1.878-.69 3.299-2.527 3.645-4.465.064-.357-.084-.719-.456-.827-1.152-.333-2.015.482-3.187.33-1.147-.148-2.063-.617-3.268-.469-.81.1-1.536.45-2.06.989.395-2.392.852-4.772 1.371-7.137.054-.244-.31-.353-.375-.108a116.497 116.497 0 0 0-.893 3.556c-.703-2.101-4.063-2.379-5.326-4.095-.165-.224-.557-.098-.615.152-.773 3.307 2.1 6.981 5.556 5.688a118.617 118.617 0 0 0-1.55 8.479l-.058-.024c-.238-1.089-.968-1.875-2.011-2.444-.945-.516-1.992-.704-3.012-1.01-1.558-.468-2.977-1.175-4.33-2.071-.202-.134-.46.033-.47.261-.108 2.756 1.366 5.093 3.735 6.461 1.509.872 4.387 1.9 5.909.637a114.87 114.87 0 0 0-.933 12.864c-.463-1.478-1.337-2.577-3.03-3.417-1.471-.729-3.154-1.06-4.68-1.655-2.485-.969-4.596-2.264-6.707-3.86-.3-.226-.747.132-.64.472Z"/>
  <path fill="#EF456E" d="M55.447 177.672c.332 2.07.454 4.027.21 6.127-.149 1.289-.54 2.591-.575 3.891-.04 1.497.401 2.516 1.258 3.387a90.25 90.25 0 0 0-9.294-4.106c1.44-.598 1.787-2.995 1.738-4.375-.077-2.166-1.159-4.063-3.117-5.007-.161-.078-.373.041-.355.233.124 1.279.093 2.535-.157 3.8-.164.828-.42 1.63-.409 2.483.011.942.289 1.744.958 2.314a.389.389 0 0 0-.004.049 92.378 92.378 0 0 0-6.471-2.051c2.175-1.943.68-5.316-1.907-5.997-.195-.051-.428.176-.333.375.728 1.52-.32 3.977.882 5.246a92.699 92.699 0 0 0-2.803-.69c-.194-.045-.253.25-.063.303a107.15 107.15 0 0 1 5.471 1.679 2.725 2.725 0 0 0-1.448 1.077c-.547.79-.56 1.605-.88 2.464-.327.877-1.212 1.18-1.406 2.111-.063.3.135.537.406.624 1.476.475 3.278.16 4.451-.901 1.303-1.177 1.272-2.996 1.08-4.611 2.538.915 5.04 1.927 7.496 3.039-2.005.127-3.328 1.706-4.607 3.274-.59.723-1.186 1.147-2 1.575-.263.138-.51.193-.644.454-.597 1.153 1.277 1.672 2.036 1.871.875.23 1.807.392 2.713.329a4.2 4.2 0 0 0 2.988-1.54c1.176-1.448 1.745-3.668.785-5.376a94.626 94.626 0 0 1 7.714 4.065l-.211.054c-.746.021-1.164.622-1.44 1.329-.273.7-.493 1.201-1.063 1.725-.311.286-.666.549-.763.974-.02.092.03.175.106.222 1.135.714 2.983.246 3.892-.631.871-.841 1.01-1.86.785-2.891a89.814 89.814 0 0 1 3.309 2.119c-.874.144-1.538.729-2.056 1.562-.625 1.005-.993 2.05-1.842 2.913-.85.863-1.868 1.597-2.788 2.384-.181.155-.171.478.1.533 1.833.371 4.937 1.03 6.56-.228.906-.703 1.336-2.03 1.386-3.134.053-1.182-.66-2.335-.545-3.483a82.353 82.353 0 0 1 8.813 6.999l.157.148c-.797-.203-1.66-.103-2.382.351-.718.452-1.267 1.156-1.94 1.672-.66.505-1.38.898-1.987 1.472-.13.123-.095.343.023.457 1.293 1.262 3.64 2.914 5.453 1.619 1.118-.799 2.32-2.864 2.042-4.429a76.479 76.479 0 0 1 4.966 5.268c-1.25-.211-2.49.129-3.738.765-1.317.672-2.44 1.648-3.804 2.237-2.303.996-4.494.695-6.895.278a.298.298 0 0 0-.306.449c2.246 3.624 6.406 7.037 10.947 6.517 3.617-.415 5-5.529 4.857-8.99a80.516 80.516 0 0 1 6.55 9.245 87.126 87.126 0 0 1 3.02 5.431c-1.733-1.327-3.57-.134-5.234.987-1.836 1.236-3.572 1.764-5.814 1.688-1.798-.062-3.78-.707-5.57-.459-.118.016-.263.077-.307.201-.674 1.881 1.968 4.73 3.145 6.024 1.657 1.823 3.808 2.863 6.285 2.851 4.681-.022 8.198-4.049 8.9-8.48 2.026 4.153 3.9 8.377 6.026 12.495.295.572 1.234.107 1.008-.49-2.644-6.972-5.88-13.839-9.829-20.235 3.915 1.892 8.908-.946 10.197-4.907 1.335-4.106-.872-10.533-4.128-13.24-.203-.169-.532-.084-.587.191-.364 1.853-.65 3.802-1.213 5.605-.81 2.604-2.31 3.405-3.793 5.44-1.1 1.51-1.723 3.172-1.727 4.94-2.918-4.482-6.2-8.708-9.903-12.535 2.756-2.138 4.408-5.489 4.005-9.036-.378-3.337-2.969-8.022-6.147-9.332-.227-.093-.488.047-.475.312.186 4.002-1.106 7.462-1.404 11.354-.093 1.206.048 2.304.497 3.302-.137-.123-.267-.252-.405-.374a81.75 81.75 0 0 0-6.116-4.917c6.213-1.569 5.1-9.27 1.05-12.698-.207-.174-.571-.032-.54.262.186 1.816.09 3.497-.961 5.038-.456.669-.899 1.191-1.172 1.979-.52 1.505-.376 3.037.246 4.44a86.338 86.338 0 0 0-8.926-5.462.499.499 0 0 0 .17-.07c2.25-1.523 3.024-4.462 2.825-7.112-.204-2.714-2.647-5.244-4.458-7.088-.196-.2-.61-.02-.564.273Z"/>
  <path fill="#BAD7FF" d="M212.236 208.81c-.253-.961-.605-2.266-1.454-2.863-.828-.583-1.939-.9-2.874-.45a.177.177 0 0 0-.056.043 33.645 33.645 0 0 0-.054-4.029c.338.479.811.826 1.404.947.311.064.568.018.875-.002.707-.049 1.276.247 1.833.664.091.067.208-.027.191-.128-.335-2.014-2.638-3.886-4.357-2.13a31.62 31.62 0 0 0-.422-2.99c-.013-.07-.03-.138-.044-.208.239.344.571.605.983.81 1.331.661 2.713.906 3.986 1.749.084.056.181-.004.195-.097.188-1.31-.842-3.085-1.86-3.862-1.082-.825-2.498-.931-3.732-.433a32.204 32.204 0 0 0-2.178-5.734c.579.343 1.243.461 1.951.391.953-.096 1.506-.437 2.514-.198.699.165 1.392.45 2.068.691.101.035.193-.057.177-.158-.254-1.609-1.928-3.596-3.53-3.954-1.546-.345-3.442.759-3.583 2.428-1.326-2.558-2.944-4.973-4.711-7.211-.151-.192-.485.029-.355.239.934 1.509 1.952 2.956 2.918 4.438-1.586-.631-3.585-.249-4.5 1.3-.485.821-.562 1.738-.287 2.644.195.643.614 2.077 1.36 2.219.049.009.097-.027.125-.062.428-.546.602-1.33.93-1.939.41-.759.92-1.233 1.68-1.601.69-.334 1.436-.711 1.338-1.545.418.672.819 1.356 1.191 2.062a31.068 31.068 0 0 1 1.753 3.979c-1.104-.723-3.045-1.261-3.883-.142-1.051 1.406-.742 3.454.008 4.906.045.089.172.078.207-.014.329-.878.656-1.665 1.428-2.235.458-.338.995-.52 1.469-.827.45-.289.802-.635.976-1.091.294.878.548 1.77.759 2.676-.458-.397-1.367-.401-1.845-.186-.775.349-.69 1.45-.528 2.127.014.06.08.115.144.096.306-.09.574-.252.867-.372.299-.123.636-.167.923-.318.289-.151.489-.418.577-.723.005.028.012.054.018.081a32.11 32.11 0 0 1 .579 4.292c-.397-.186-.636-.648-1.033-.861-.37-.199-.888-.315-1.293-.151-.727.293-1.113 1.453-1.347 2.134-.035.101.069.167.155.137.435-.152.873-.347 1.32-.46.447-.114.86-.032 1.31-.043.373-.01.693-.116.91-.378.029.504.044 1.008.051 1.512-.293-.276-.654-.428-1.098-.303-.463.131-.975.653-.961 1.169 0 .034.017.068.052.079.158.051.313-.016.466-.063.283-.088.489-.063.771-.017.285.046.562.025.714-.219l.058-.06a36.85 36.85 0 0 1-.166 3.355c-.373-.652-1.209-.897-1.911-.789a1.608 1.608 0 0 0-1.083.692c-.196.288-.324.629-.419.965-.082.291-.276 1.014.217 1.041.112.006.177-.065.273-.125.298-.187.553-.302.903-.357.761-.119 1.534-.25 1.965-.891a40.031 40.031 0 0 1-.461 3.082c-.49-.379-1.08-.744-1.717-.541-.575.182-1.028.719-1.159 1.302-.024.108.016.219.126.257.342.117.613-.117.963-.055.343.061.612.216.976.189.245-.019.468-.115.633-.271a42.283 42.283 0 0 1-.512 2.144c-.019.073.089.112.111.038.112-.353.218-.708.319-1.065.182.647 1.188.779 1.544 1.317.046.07.166.038.187-.037.28-.992-.534-2.146-1.591-1.804.225-.842.422-1.693.585-2.548l.017.007c.056.334.265.582.57.77.278.17.59.241.892.349.463.163.879.398 1.274.689.059.044.139-.003.144-.072.071-.835-.339-1.564-1.033-2.012-.441-.286-1.292-.638-1.768-.277.224-1.287.381-2.584.46-3.887.119.455.366.8.864 1.079.432.242.934.366 1.384.568.734.329 1.35.751 1.963 1.265.088.073.228-.03.201-.134Z"/>
  <path fill="#EFAC3F" d="M268.311 132.326c-15.295 5.683-32.575 3.518-47.322 10.969-5.714 2.887-10.867 7.033-14.791 12.096-4.609 5.946-6.684 12.476-7.789 19.832a.297.297 0 0 0 .027.17 15.965 15.965 0 0 0-.865 3.942c-.047.5.502.798.927.705 9.173-2.016 18.528-2.319 27.852-3.148 7.719-.687 16.178-1.363 22.072-6.967a47.003 47.003 0 0 0 9.021-11.854c2.536-4.734 3.733-9.966 6.035-14.797 1.671-3.506 4.118-6.62 5.413-10.368.112-.325-.25-.703-.58-.58Z"/>
  <path fill="#A39EC0" d="M256.73 139.769c-13.339 6.046-25.985 13.534-38.025 21.851-5.368 3.709-10.625 7.656-15.561 11.925-1.459 1.262-2.921 2.522-4.342 3.827a74.66 74.66 0 0 0-2.174 2.074c-.6.598-1.47 1.168-.751 2.07.219.276.636.573 1.014.484.331-.078.407-.367.605-.616.656-.825 1.498-1.558 2.249-2.295a99.968 99.968 0 0 1 4.664-4.283c5.31-4.592 11.008-8.736 16.73-12.797 11.422-8.107 23.522-15.163 35.87-21.763.319-.171.039-.621-.279-.477Z"/>
  <path fill="#ED9A40" d="M268.83 132.696c-3.355 3.226-6.397 6.803-8.888 10.404-5.116 7.396-8.733 18.058-16.968 22.612-8.27 4.574-18.538 3.467-27.553 5.377-6.557 1.39-12.376 4.396-17.075 8.958a.78.78 0 0 0 .297-.003c9.153-2.009 18.489-2.311 27.793-3.138 7.702-.685 16.143-1.358 22.024-6.944a46.858 46.858 0 0 0 9.003-11.814c2.53-4.719 3.725-9.933 6.022-14.748 1.667-3.495 4.109-6.598 5.401-10.334a.43.43 0 0 0-.056-.37Z"/>
  <path fill="#EF456E" d="M249.188 196.071c-8.922-5.193-14.782-14.481-24.353-18.702-3.709-1.636-7.812-2.496-11.872-2.391-4.77.123-8.811 1.714-12.868 4.106a.188.188 0 0 0-.073.081c-.801.285-1.542.654-2.284 1.149-.264.177-.191.564.025.733 4.667 3.669 8.564 8.11 12.708 12.325 3.431 3.49 7.152 7.346 12.268 7.986 3.138.392 6.338.278 9.441-.326 3.343-.65 6.394-2.152 9.691-2.954 2.393-.583 4.904-.631 7.265-1.494.204-.074.245-.4.052-.513Z"/>
  <path fill="#424060" d="M240.979 193.412c-8.324-4.155-17.082-7.381-26.004-9.972-3.979-1.155-8.031-2.158-12.111-2.872-1.207-.211-2.413-.424-3.625-.598a46.403 46.403 0 0 0-1.894-.236c-.535-.054-1.164-.254-1.32.467-.048.22-.027.547.169.698.171.132.343.053.545.05.67-.009 1.368.11 2.032.184a62.77 62.77 0 0 1 3.979.573c4.39.767 8.715 1.91 13.009 3.097 8.572 2.37 16.897 5.501 25.098 8.941.211.087.32-.233.122-.332Z"/>
  <path fill="#DD3665" d="M249.317 196.396a43.891 43.891 0 0 0-8.648-.182c-5.669.459-12.34 2.963-17.86.752-5.544-2.219-9.101-7.695-13.636-11.348-3.298-2.656-7.095-4.302-11.208-4.775a.51.51 0 0 0 .12.144c4.639 3.68 8.515 8.135 12.634 12.363 3.411 3.5 7.111 7.367 12.197 8.009 3.12.394 6.301.279 9.387-.326 3.323-.653 6.357-2.159 9.634-2.964 2.379-.584 4.875-.632 7.223-1.497a.273.273 0 0 0 .157-.176Z"/>
  <path fill="#BAD7FF" d="M38.441 213.043c1.282 2.759 3.392 4.943 4.94 7.487 2.134 3.506 3.46 7.405 5.764 10.818a36.055 36.055 0 0 0 7.806 8.336c4.931 3.813 11.426 3.66 17.36 3.575 7.165-.102 14.313-.609 21.46.206.33.037.725-.233.65-.612a12.3 12.3 0 0 0-.97-2.941.224.224 0 0 0 .007-.131c-1.422-5.527-3.518-10.348-7.497-14.523-3.388-3.555-7.64-6.314-12.22-8.066-11.818-4.523-24.808-1.508-36.904-4.638-.261-.067-.507.25-.396.489Z"/>
  <path fill="#424060" d="M48.118 217.256c10.652 3.596 20.89 8.359 30.732 13.809 4.388 2.43 8.71 5.053 12.813 7.949 1.213.856 2.428 1.71 3.615 2.603a58.27 58.27 0 0 1 1.822 1.425c.506.413 1.214.783.737 1.536-.145.229-.44.491-.735.453-.259-.034-.34-.25-.51-.427-.565-.583-1.265-1.081-1.896-1.589a76.82 76.82 0 0 0-3.896-2.929c-4.413-3.115-9.087-5.854-13.773-8.528-9.354-5.336-19.14-9.81-29.081-13.913-.259-.107-.08-.475.172-.389Z"/>
  <path fill="#A4C8F4" d="M38.454 212.939a53.476 53.476 0 0 1 7.56 7.314c4.464 5.296 8.046 13.229 14.651 16.085 6.633 2.868 14.335 1.197 21.324 1.952 5.083.549 9.733 2.404 13.657 5.547a.56.56 0 0 1-.225.022c-7.102-.821-14.207-.31-21.33-.207-5.896.085-12.351.239-17.253-3.601a36.126 36.126 0 0 1-7.758-8.392c-2.291-3.438-3.608-7.363-5.73-10.893-1.54-2.562-3.636-4.761-4.91-7.539a.332.332 0 0 1 .014-.288Z"/>
  <path fill="#EF456E" d="M53.393 246.475c1.56 1.127 3.403 1.687 5.046 2.616 2.263 1.279 4.196 3.02 6.527 4.198a23.09 23.09 0 0 0 6.9 2.211c3.913.598 7.48-1.461 10.754-3.311 3.954-2.236 7.776-4.688 12-6.412.195-.08.332-.349.175-.534a7.753 7.753 0 0 0-1.442-1.322.14.14 0 0 0-.037-.075c-2.488-2.607-5.133-4.622-8.627-5.708-2.976-.925-6.187-1.15-9.273-.721-7.962 1.106-14.262 6.714-21.952 8.671-.167.04-.206.289-.071.387Z"/>
  <path fill="#424060" d="M60.094 245.537c7.014-1.186 14.153-1.66 21.28-1.674 3.179-.006 6.378.106 9.54.418.934.092 1.87.183 2.801.301.484.061.966.129 1.446.209.407.067.913.055.877.572-.01.158-.094.375-.27.439-.154.056-.265-.031-.413-.072-.493-.137-1.032-.192-1.538-.272a52.188 52.188 0 0 0-3.058-.388c-3.4-.336-6.832-.406-10.25-.44-6.822-.067-13.623.426-20.395 1.153-.174.02-.187-.218-.02-.246Z"/>
  <path fill="#DD3665" d="M53.311 246.266c2.229.36 4.43.944 6.42 1.692 4.085 1.535 8.48 4.788 13.017 4.325 4.558-.465 8.334-3.75 12.449-5.484 2.993-1.262 6.14-1.673 9.274-1.153a.405.405 0 0 1-.118.081c-4.198 1.732-7.994 4.197-11.923 6.443-3.254 1.86-6.797 3.928-10.685 3.327a22.711 22.711 0 0 1-6.856-2.222c-2.315-1.182-4.236-2.933-6.484-4.218-1.632-.933-3.464-1.496-5.014-2.629a.204.204 0 0 1-.08-.162Z"/>
  <path fill="#5E5C89" d="M186.232 259.134h-79.634c-7.778 0-14.083-6.303-14.083-14.078V63.403c0-7.775 6.305-14.077 14.083-14.077h79.634c7.778 0 14.083 6.302 14.083 14.078v181.653c0 7.774-6.305 14.077-14.083 14.077Z"/>
  <path fill="#55517A" d="M185.623 51.673H152.87v.05c0 .366-.319.803-.95.803h-10.243c-.68 0-1.013-.438-1.013-.804v-.05h-33.071c-6.815 0-12.338 5.324-12.338 11.89v181.333c0 6.566 5.524 11.889 12.338 11.889h78.029c6.814 0 12.337-5.323 12.337-11.889V63.562c.002-6.566-5.522-11.89-12.336-11.89Z"/>
  <path fill="#BAD7FF" d="M196.004 244.205V65.57c0-6.593-5.546-11.938-12.386-11.938h-28.895c-1.409 0-2.626 1.074-2.615 2.432.029 3.74-3.964 6.592-8.059 4.777-1.897-.841-2.899-2.767-2.934-4.779-.024-1.346-1.163-2.43-2.565-2.43h-29.835c-6.348 0-11.495 4.96-11.495 11.08V243.83c0 6.29 5.289 11.389 11.815 11.389h75.54c6.312 0 11.429-4.932 11.429-11.015Z"/>
  <path fill="#5E5C89" d="M146.222 59.501a2.35 2.35 0 0 0 2.352-2.348 2.35 2.35 0 0 0-2.352-2.349 2.35 2.35 0 0 0-2.352 2.349 2.35 2.35 0 0 0 2.352 2.348Z"/>
  <path fill="#55517A" d="M146.029 58.72a1.762 1.762 0 1 0 0-3.522 1.762 1.762 0 1 0 0 3.523Z"/>
  <path fill="#BAD7FF" d="M146.225 57.547a.392.392 0 1 0 0-.785.392.392 0 0 0 0 .785Z"/>
  <path fill="#EF456E" d="M144.259 183.584h-39.984v29.357h39.984v-29.357Z"/>
  <path fill="#fff" d="M132.889 195.562h-6.503v-6.493h-5.026v6.493h-6.503v5.019h6.503v6.494h5.026v-6.494h6.503v-5.019Zm57.234-11.977h-39.984v29.357h39.984v-29.357Z"/>
  <path fill="#A39EC0" d="M172.094 187.108h-18.032v2.74h18.032v-2.74Z"/>
  <path fill="#C2BEDB" d="M167.39 191.806h-13.328v1.957h13.328v-1.957Zm13.72 3.52h-27.048v1.957h27.048v-1.957Zm-18.424 3.525h-8.624v1.957h8.624v-1.957Zm13.719 0h-12.152v1.957h12.152v-1.957Zm9.802 0h-7.84v1.957h7.84v-1.957Zm-14.113 3.52h-18.032v1.957h18.032v-1.957Zm7.054 0h-5.096v1.957h5.096v-1.957Zm-11.758 3.527h-13.328v1.957h13.328v-1.957Zm18.818-14.092h-16.464v1.957h16.464v-1.957Z"/>
  <path fill="#A39EC0" d="M179.934 187.108h-6.272v2.74h6.272v-2.74Z"/>
  <path fill="#2B7AF0" d="M182.715 160.101h-72.206c-3.875 0-7.017-3.134-7.017-7.001v-52.149c0-3.867 3.142-7.002 7.017-7.002h72.206c3.875 0 7.017 3.135 7.017 7.002V153.1c0 3.867-3.142 7.001-7.017 7.001Z"/>
  <path fill="#F7F7F7" d="M110.44 158.535c-2.968 0-5.383-2.41-5.383-5.374v-52.272c0-2.964 2.415-5.374 5.383-5.374h72.338c2.969 0 5.383 2.41 5.383 5.374v52.272c0 2.964-2.414 5.374-5.383 5.374H110.44Z"/>
  <path fill="#0B57C7" d="M188.161 108.823v-7.998c0-2.928-2.414-5.31-5.383-5.31H110.44c-2.968 0-5.383 2.382-5.383 5.31v7.998h83.104Z"/>
  <path fill="#02214F" d="M117.992 98.058c0-.972-.79-1.761-1.764-1.761s-1.764.789-1.764 1.761a1.763 1.763 0 0 0 3.528 0Zm7.45 0c0-.972-.79-1.761-1.764-1.761a1.762 1.762 0 1 0 0 3.523c.974 0 1.764-.789 1.764-1.762Zm7.445 0c0-.972-.79-1.761-1.764-1.761s-1.764.789-1.764 1.761a1.763 1.763 0 0 0 3.528 0Zm7.84 0c0-.972-.79-1.761-1.764-1.761s-1.764.789-1.764 1.761a1.763 1.763 0 0 0 3.528 0Zm7.45 0c0-.972-.79-1.761-1.764-1.761a1.762 1.762 0 1 0 0 3.523c.974 0 1.764-.789 1.764-1.762Zm7.447 0c0-.972-.789-1.761-1.764-1.761-.974 0-1.764.789-1.764 1.761a1.763 1.763 0 0 0 3.528 0Zm7.45 0c0-.972-.79-1.761-1.764-1.761s-1.764.789-1.764 1.761a1.763 1.763 0 0 0 3.528 0Zm7.838 0c0-.972-.79-1.761-1.764-1.761s-1.764.789-1.764 1.761a1.763 1.763 0 0 0 3.528 0Zm7.447 0c0-.972-.789-1.761-1.764-1.761-.974 0-1.764.789-1.764 1.761a1.763 1.763 0 0 0 3.528 0Z"/>
  <path fill="#539EF9" d="M116.423 97.865c-.65 0-1.176-.485-1.176-1.084v-3.313c0-.598.526-1.083 1.176-1.083.649 0 1.176.485 1.176 1.083v3.313c0 .599-.527 1.084-1.176 1.084Zm7.447 0c-.649 0-1.176-.485-1.176-1.084v-3.313c0-.598.527-1.083 1.176-1.083.65 0 1.176.485 1.176 1.083v3.313c0 .599-.526 1.084-1.176 1.084Zm7.452 0c-.649 0-1.176-.485-1.176-1.084v-3.313c0-.598.527-1.083 1.176-1.083.649 0 1.176.485 1.176 1.083v3.313c0 .599-.527 1.084-1.176 1.084Zm7.448 0c-.65 0-1.176-.485-1.176-1.084v-3.313c0-.598.526-1.083 1.176-1.083.649 0 1.176.485 1.176 1.083v3.313c0 .599-.527 1.084-1.176 1.084Zm7.838 0c-.65 0-1.176-.485-1.176-1.084v-3.313c0-.598.526-1.083 1.176-1.083.649 0 1.176.485 1.176 1.083v3.313c0 .599-.527 1.084-1.176 1.084Zm7.449 0c-.649 0-1.176-.485-1.176-1.084v-3.313c0-.598.527-1.083 1.176-1.083.65 0 1.176.485 1.176 1.083v3.313c0 .599-.526 1.084-1.176 1.084Zm7.448 0c-.65 0-1.176-.485-1.176-1.084v-3.313c0-.598.526-1.083 1.176-1.083.649 0 1.176.485 1.176 1.083v3.313c0 .599-.527 1.084-1.176 1.084Zm7.447 0c-.649 0-1.176-.485-1.176-1.084v-3.313c0-.598.527-1.083 1.176-1.083.65 0 1.176.485 1.176 1.083v3.313c0 .599-.526 1.084-1.176 1.084Zm7.84 0c-.649 0-1.176-.485-1.176-1.084v-3.313c0-.598.527-1.083 1.176-1.083.65 0 1.176.485 1.176 1.083v3.313c.001.599-.526 1.084-1.176 1.084Z"/>
  <path fill="#B9DDFF" d="M117.214 124.477h-7.84v7.829h7.84v-7.829Zm0 10.18h-7.84v7.829h7.84v-7.829Zm0 9.786h-7.84v7.829h7.84v-7.829Zm10.978-19.966h-7.84v7.829h7.84v-7.829Zm0 10.18h-7.84v7.829h7.84v-7.829Zm0 9.786h-7.84v7.829h7.84v-7.829Z"/>
  <path fill="#FE769C" d="M139.167 114.302h-7.84v7.828h7.84v-7.828Z"/>
  <path fill="#B9DDFF" d="M139.167 124.477h-7.84v7.829h7.84v-7.829Zm0 10.18h-7.84v7.829h7.84v-7.829Z"/>
  <path fill="#FCBA06" d="M139.167 144.443h-7.84v7.829h7.84v-7.829Z"/>
  <path fill="#B9DDFF" d="M150.532 114.302h-7.84v7.828h7.84v-7.828Zm0 10.175h-7.84v7.829h7.84v-7.829Zm0 10.18h-7.84v7.829h7.84v-7.829Zm0 9.786h-7.84v7.829h7.84v-7.829Zm10.98-30.141h-7.84v7.828h7.84v-7.828Z"/>
  <path fill="#FCBA06" d="M161.512 124.477h-7.84v7.829h7.84v-7.829Z"/>
  <path fill="#B9DDFF" d="M161.512 134.657h-7.84v7.829h7.84v-7.829Z"/>
  <path fill="#01BEEE" d="M161.512 144.443h-7.84v7.829h7.84v-7.829Z"/>
  <path fill="#B9DDFF" d="M172.487 114.302h-7.84v7.828h7.84v-7.828Zm0 10.175h-7.84v7.829h7.84v-7.829Zm0 10.18h-7.84v7.829h7.84v-7.829Zm0 9.786h-7.84v7.829h7.84v-7.829Z"/>
  <path fill="#0B57C7" d="M183.462 114.302h-7.84v7.828h7.84v-7.828Zm0 10.175h-7.84v7.829h7.84v-7.829Zm0 10.18h-7.84v7.829h7.84v-7.829Zm0 9.786h-7.84v7.829h7.84v-7.829Z"/>
  <path fill="#fff" d="M136.814 103.341v2.74h-.661l-.907-1.245v1.245h-.784v-2.74h.662l.906 1.244v-1.244h.784Zm1.176 1.37c0-.794.58-1.37 1.372-1.37.792 0 1.372.576 1.372 1.37 0 .793-.58 1.37-1.372 1.37-.792 0-1.372-.577-1.372-1.37Zm1.917 0c0-.408-.243-.655-.545-.655-.302 0-.545.247-.545.655 0 .408.243.655.545.655.302 0 .545-.247.545-.655Zm5.141-1.37-1.127 2.74h-.882l-1.127-2.74h.967l.635 1.601.651-1.601h.883Zm2.742 2.043v.697h-1.96v-2.74h1.916v.697h-1.135v.321h.997v.665h-.997v.36h1.179Zm3.511.697-.007-1.249-.568 1.002h-.389l-.567-.959v1.206h-.803v-2.74h.724l.852 1.46.829-1.46h.724l.007 2.74h-.802Zm4.331-.756c0 .478-.351.756-1.01.756h-1.342v-2.74h1.274c.658 0 .965.301.965.716a.648.648 0 0 1-.331.591c.28.118.444.353.444.677Zm-1.561-1.338v.407h.375c.18 0 .262-.071.262-.203 0-.133-.082-.204-.262-.204h-.375Zm.75 1.233c0-.141-.089-.215-.266-.215h-.484v.43h.484c.177 0 .266-.074.266-.215Zm3.948.164v.697h-1.96v-2.74h1.916v.697h-1.135v.321h.997v.665h-.997v.36h1.179Zm2.617.008h-.224v.689h-.827v-2.74h1.181c.683 0 1.118.399 1.118 1.033 0 .396-.168.693-.463.861l.516.846h-.883l-.418-.689Zm.077-1.339h-.301v.642h.301c.228 0 .337-.121.337-.321 0-.199-.109-.321-.337-.321Z"/>
  <path fill="#1F75FE" d="M168.367 133.483c-3.35 0-6.076-2.722-6.076-6.067 0-3.346 2.726-6.067 6.076-6.067 3.35 0 6.076 2.721 6.076 6.067 0 3.345-2.726 6.067-6.076 6.067Zm0-11.787c-3.159 0-5.728 2.566-5.728 5.72s2.569 5.72 5.728 5.72c3.158 0 5.728-2.566 5.728-5.72s-2.569-5.72-5.728-5.72Z"/>
  <path fill="#1F75FE" d="M168.168 131.523a4.314 4.314 0 0 1-4.312-4.305 4.313 4.313 0 0 1 8.624 0 4.312 4.312 0 0 1-4.312 4.305Zm0-8.269a3.971 3.971 0 0 0-3.969 3.964 3.971 3.971 0 0 0 3.969 3.963 3.971 3.971 0 0 0 3.97-3.963 3.971 3.971 0 0 0-3.97-3.964Z"/>
  <path fill="#1F75FE" d="M168.368 130.353a2.941 2.941 0 0 1-2.94-2.936 2.941 2.941 0 0 1 2.94-2.936 2.941 2.941 0 0 1 2.94 2.936 2.941 2.941 0 0 1-2.94 2.936Zm0-5.526a2.594 2.594 0 0 0-2.593 2.59 2.594 2.594 0 0 0 5.187 0 2.595 2.595 0 0 0-2.594-2.59Z"/>
  <path fill="#0B57C7" d="M163.465 120.666v26.415c0 .92-.751 1.667-1.673 1.667h-23.705a1.67 1.67 0 0 1-1.67-1.667v-26.415c0-.92.748-1.667 1.67-1.667h23.705c.922 0 1.673.747 1.673 1.667Z"/>
  <path fill="#fff" d="m141.905 127.372.211-.472c.201.133.486.223.748.223.266 0 .369-.074.369-.184 0-.358-1.289-.097-1.289-.936 0-.403.331-.732 1.004-.732.295 0 .6.067.823.196l-.197.475a1.336 1.336 0 0 0-.629-.175c-.269 0-.366.091-.366.204 0 .345 1.286.087 1.286.919 0 .394-.33.729-1.004.729-.373.001-.742-.099-.956-.247Zm2.351-.825v-1.276h.589v1.256c0 .395.149.553.397.553.244 0 .393-.158.393-.553v-1.256h.581v1.276c0 .687-.364 1.072-.981 1.072-.616 0-.979-.385-.979-1.072Zm5.097-1.276v2.348h-.48l-.909-1.251v1.251h-.571v-2.348h.479l.91 1.251v-1.251h.571Zm.783 0h1.078c.756 0 1.274.452 1.274 1.174 0 .721-.518 1.174-1.274 1.174h-1.078v-2.348Zm1.052 1.818c.388 0 .648-.238.648-.644s-.26-.644-.648-.644h-.407v1.288h.407Zm2.9.074h-.855l-.159.456h-.584l.893-2.348h.563l.896 2.348h-.595l-.159-.456Zm-.168-.49-.26-.752-.26.752h.52Zm2.809.104v.842h-.635v-.852l-.857-1.496h.671l.533.933.532-.933h.616l-.86 1.506Z"/>
  <path fill="#FF654B" d="M156.909 145.228h-13.942c-1.237 0-2.241-.964-2.241-2.153s1.004-2.153 2.241-2.153h13.942c1.238 0 2.241.964 2.241 2.153s-1.003 2.153-2.241 2.153Z"/>
  <path fill="#fff" d="M144.64 143.355c0 .2-.177.314-.529.314h-.647v-1.174h.607c.314 0 .495.11.495.301 0 .134-.087.224-.215.267.18.034.289.133.289.292Zm-1.027-.758v.426h.448c.225 0 .356-.072.356-.213 0-.141-.131-.213-.356-.213h-.448Zm.878.748c0-.153-.134-.22-.382-.22h-.496v.442h.496c.248 0 .382-.067.382-.222Zm.538-.263c0-.337.25-.587.589-.587a.57.57 0 0 1 .587.587.571.571 0 0 1-.587.587.572.572 0 0 1-.589-.587Zm1.058 0c0-.276-.2-.479-.469-.479a.463.463 0 0 0-.472.479c0 .275.202.478.472.478a.46.46 0 0 0 .469-.478Zm.514 0c0-.337.25-.587.589-.587a.57.57 0 0 1 .587.587.571.571 0 0 1-.587.587.572.572 0 0 1-.589-.587Zm1.058 0c0-.276-.2-.479-.469-.479a.463.463 0 0 0-.472.479c0 .275.202.478.472.478a.46.46 0 0 0 .469-.478Zm1.332.035-.285.243v.309h-.147v-1.174h.147v.709l.818-.709h.169l-.603.531.645.643h-.175l-.569-.552Zm3.099-.622v1.174h-.123l-.905-.953v.953h-.148v-1.174h.122l.907.952v-.952h.147Zm.391.587c0-.337.25-.587.589-.587a.57.57 0 0 1 .587.587.571.571 0 0 1-.587.587.572.572 0 0 1-.589-.587Zm1.058 0c0-.276-.2-.479-.469-.479a.463.463 0 0 0-.472.479c0 .275.201.478.472.478a.46.46 0 0 0 .469-.478Zm2.47-.587-.446 1.174h-.147l-.387-1.002-.389 1.002h-.145l-.446-1.174h.144l.381 1.009.394-1.009h.131l.389 1.014.387-1.014h.134Z"/>
  <path fill="#1F75FE" d="M144.849 138.573h-4.308a1.373 1.373 0 0 1-1.374-1.372v-4.302c0-.757.615-1.372 1.374-1.372h4.308c.759 0 1.374.615 1.374 1.372v4.302c0 .758-.615 1.372-1.374 1.372Z"/>
  <path fill="#FF654B" d="M142.959 132.31c-.865-.032-1.638.604-1.8 1.457a1.71 1.71 0 0 0 .035.78c.261.767.763 1.748 1.699 3.242.856-1.51 1.564-2.47 1.7-3.242a1.767 1.767 0 0 0-1.634-2.237Zm-.066 2.627a.857.857 0 0 1-.855-.858.857.857 0 1 1 1.711 0 .857.857 0 0 1-.856.858Z"/>
  <path fill="#fff" d="M159.933 133.881h-10.959a.397.397 0 0 1-.401-.392c0-.216.18-.391.401-.391h10.959c.221 0 .4.175.4.391a.396.396 0 0 1-.4.392Zm0 1.563h-10.959a.396.396 0 0 1-.401-.392c0-.216.18-.391.401-.391h10.959c.221 0 .4.175.4.391a.396.396 0 0 1-.4.392Zm-3.135 1.569h-7.825a.395.395 0 0 1-.4-.391c0-.216.179-.392.4-.392h7.825c.22 0 .399.176.399.392a.395.395 0 0 1-.399.391Z"/>
  <path fill="#FE769C" d="M163.465 120.605v1.917h-27.048v-1.917c0-.886.748-1.606 1.67-1.606h23.704c.922 0 1.674.72 1.674 1.606Z"/>
  <path fill="#fff" d="M143.177 121.349h-4.511c-.377 0-.684-.263-.684-.588 0-.324.306-.587.684-.587h4.511c.378 0 .685.263.685.587 0 .325-.307.588-.685.588Zm1.081 97.858h-39.984v29.357h39.984v-29.357Z"/>
  <path fill="#A39EC0" d="M125.834 223.517h-18.032v2.74h18.032v-2.74Z"/>
  <path fill="#C2BEDB" d="M121.13 228.215h-13.328v1.957h13.328v-1.957Zm13.72 3.52h-27.048v1.957h27.048v-1.957Zm-18.424 3.525h-8.624v1.957h8.624v-1.957Zm13.718 0h-12.152v1.957h12.152v-1.957Zm9.803 0h-7.84v1.957h7.84v-1.957Zm-14.113 3.52h-18.032v1.957h18.032v-1.957Zm7.054 0h-5.096v1.957h5.096v-1.957Zm-11.758 3.527h-13.328v1.957h13.328v-1.957Zm18.818-14.092h-16.464v1.957h16.464v-1.957Z"/>
  <path fill="#A39EC0" d="M133.674 223.517h-6.272v2.74h6.272v-2.74Z"/>
  <path fill="#EFAC3F" d="M190.125 219.211h-39.984v29.357h39.984v-29.357Z"/>
  <path fill="#fff" d="M183.655 53.63h-28.907c-1.41 0-2.627 1.073-2.616 2.429.029 3.735-3.966 6.583-8.063 4.77-1.898-.84-2.901-2.763-2.935-4.772-.024-1.344-1.164-2.427-2.566-2.427h-25.736L97.221 69.195v94.037l98.784-98.487c-.434-6.206-5.789-11.115-12.35-11.115ZM97.22 177.394v21.458l98.785-98.712V78.682l-98.784 98.712Zm0 66.424c0 6.296 5.291 11.4 11.816 11.4h39.907l47.062-47.05v-94.257L97.221 212.67v31.148Zm87.219 11.4 11.569-11.551v-21.329l-32.928 32.88h21.359Z" opacity=".2"/>
  <path fill="#F4CBA2" d="M80.334 181.786c-.192-.223-.336-.401-.557-.589-.61-.521-.853-1.409-1.032-2.161-.223-.932-.337-1.897-.699-2.791-.057-.143-.125-.289-.246-.383a.95.95 0 0 0-.28-.136c-.492-.177-.918-.364-1.443-.361a5.875 5.875 0 0 0-1.246.143c-.702.158-1.632.495-1.837 1.276a.503.503 0 0 0-.08.246c-.043 1.279.398 2.507.576 3.759.153 1.08-.096 2.157-.127 3.236-.031 1.09.097 2.19.357 3.249.137.555.41 1.474 1.056 1.616a.552.552 0 0 0 .573-.2c.52.832 1.163 1.234 1.835.563.207.312.462.566.889.593.375.023.685-.147.848-.462.353.322.732.451 1.114.226.646-.38.47-1.284.325-1.874-.291-1.19-1.286-2.44-1.239-3.704.791.352 2.584.57 2.4-.702-.09-.629-.806-1.104-1.187-1.544Z"/>
  <path fill="#EDBB8E" d="M159.89 128.988c-.052-.062-.104-.123-.154-.186-.147-.181-.271-.382-.436-.549-.371-.436-.835-.63-1.401-.645a3.175 3.175 0 0 0-1.61.405c-.542.303-.974.808-1.483 1.165-.323.226-.817.445-1.016.809-.423.776.267 1.51.947 1.759 1.034.379 1.959-.001 2.97-.02.432.315.971-.038 1.043-.484.462.102.844-.179 1.242-.407a3.9 3.9 0 0 0 .395-.254c.099-.072.234-.14.295-.25.055-.1.038-.226-.009-.33-.072-.155-.192-.287-.294-.421-.155-.203-.325-.396-.489-.592Z"/>
  <path fill="#F4CBA2" d="M157.643 129.18c.296-.669 1.194-.644 1.8-.718a33.383 33.383 0 0 0 2.391-.379c.534-.105 1.242-.158 1.551-.684a.516.516 0 0 0 .059-.41c-.175-.573-.997-.597-1.464-.532-.765.104-1.531.204-2.296.3-1.953.242-3.879.679-5.802 1.091l-.555.12c-.965.21-1.934.409-2.907.578-1.053.183-2.106.383-3.13.699-.694.21-1.762.429-2.111 1.14-.384.78.041 3.046 1.127 2.907.045.03.096.054.154.066 1.788.377 3.575-.228 5.315-.581.438-.089.969-.24 1.405-.079.168.062.32.163.471.259.322.204.779.367 1.164.361.339-.006.656-.155.973-.279.584-.231 1.2-.38 1.823-.444.34-.036.683-.046 1.015-.124a2.576 2.576 0 0 0 1.297-.77c.165-.181.29-.338.309-.584.016-.199-.024-.469-.291-.451-.531.035-1.167.192-1.69.079-.654-.143-.837-.908-.638-1.489l.03-.076Z"/>
  <path fill="#424060" d="M107.526 85.05c-.465-.876-1.178-1.324-2.158-.996-.471.158-.937.36-1.399.584 1.366-2.11 2.157-5.115-.542-5.869-1.411-.393-2.601.557-3.412 1.605a27.15 27.15 0 0 1-2.004 2.342c-.15-.659-.42-1.464-1.166-1.61-1.124-.22-2.285.92-3.202 1.43-.85.426-1.659.924-2.497 1.372-.998.534-2.05 1.127-2.566 2.174-.157.32.02.284-.367.297-.868.03-1.557-.103-2.308.474-1.261.97-1.554 2.847-1.61 4.334-.14 3.682.692 7.424 1.567 10.977.206.838.386 1.697.623 2.522.331 1.152 1.145 2.115 2.042 2.879.762.649 2.143 1.551 3.189 1.158.932-.351 1.727-1.19 2.314-1.966 1.3-1.718 2.023-3.809 2.733-5.819.09-.253.178-.505.269-.757.138-.386-.041-.68-.318-.825.103-.444.205-.89.361-1.316a10.05 10.05 0 0 1 1.496-2.685.577.577 0 0 0 .202-.131c.578-.573 1.122-1.229 1.744-1.75.81-.68 1.806-1.023 2.729-1.505 1.005-.526 2.77-1.372 2.241-2.775 1.567-.908 2.909-2.501 2.039-4.144Z"/>
  <path fill="#F4CBA2" d="M102.705 255.886c0 .074.273 3.241.273 3.241h7.959v-3.915l-8.232.674Zm-19.991-.674-.426 3.915H74.09l.538-3.827 8.086-.088Z"/>
  <path fill="#55517A" d="M103.806 175.753H81.574l-7.484 80.243h8.546l12.987-49.225 2.716 10.987 3.982 38.238h9.009v-80.243h-7.524Z"/>
  <path fill="#424060" d="M90.052 178.517a.687.687 0 0 0-.847.476c-1.504 5.315-6.973 7.308-8.712 7.814l-.135 1.47c1.048-.244 8.255-2.155 10.165-8.904a.693.693 0 0 0-.47-.856Zm21.667 4.967c-1.988-1.24-4.024-3.159-4.867-6.049a.721.721 0 0 0-.885-.483.7.7 0 0 0-.492.867c1.086 3.722 3.809 5.99 6.244 7.327v-1.662Zm-13.377 11.06a.345.345 0 0 1-.337-.389c.008-.074.887-7.508.887-16.096 0-.191.152-.346.339-.346.187 0 .34.155.34.346 0 8.632-.884 16.106-.893 16.18a.343.343 0 0 1-.336.305Z"/>
  <path fill="#424060" d="M98.725 188.278a.335.335 0 0 1-.316-.245.357.357 0 0 1 .21-.442c.057-.021 1.21-.481 1.287-2.717.088-2.545.176-5.99.176-5.99l.663.019s-.088 3.448-.176 5.997c-.096 2.763-1.675 3.337-1.743 3.36a.3.3 0 0 1-.101.018Zm3.63 67.72h8.972c-2.451 0-3.73-2.687-4.562-4.587-4.581-10.468-2.724-21.911-4.557-32.872-.996-5.956-2.388-11.847-3.123-17.847-.033-.27-.363-.392-.527-.142-1.343 2.048-2.299 4.128-2.91 6.413l2.716 10.926 3.991 38.109Z"/>
  <path fill="#EF456E" d="m111.341 119.387 16.785 12.172 21.673-3.804s1.797 2.536.846 6.657c0 0-14.494 4.504-20.933 7.114-6.438 2.61-19.558-4.684-19.558-4.684l1.187-17.455Z"/>
  <path fill="#DD3665" d="M150.922 132.547c-6.333.993-12.412 3.812-18.527 5.451-4.059 1.088-8.674.564-12.22-1.814-.135-.09-.266-.186-.397-.281-1.128-.818-2.149-1.774-3.272-2.599-1.165-.856-2.491-1.453-3.666-2.294a63.7 63.7 0 0 1-.419-.302c-.512-.357-1.167-.8-1.822-.75-.129.336-.041.881-.065 1.246l-.38 5.606s13.127 7.337 19.569 4.711c6.441-2.625 20.943-7.155 20.943-7.155a10.7 10.7 0 0 0 .256-1.819Z"/>
  <path fill="#EF456E" d="M111.38 119.417c-20.03-9.865-33.481 1.884-33.481 1.884s-8.467 23.572-8.909 28.993l4.044 30.193s1.306.595 3.302.244c2.06-.362 3.205-1.16 3.205-1.16l-1.293-26.388 2.803-8.189 1.254 9.42-1.516 24.097s6.776 1.696 15.927 1.696c8.617 0 15.569-1.696 15.569-1.696s.258-22.283.895-33.942c.637-11.659-1.8-25.152-1.8-25.152Z"/>
  <path fill="#DD3665" d="M99.738 115.874a2.022 2.022 0 0 1-.296-.279c-.201-.227-.362-.487-.59-.689a2.153 2.153 0 0 0-.777-.443c-.382-.12-.788-.074-1.182-.089-.482-.019-.963-.058-1.445-.064-.523-.007-1.042-.009-1.564-.013-.668-.004-1.307.085-1.89.426-.555.324-1.02.781-1.442 1.26.871 3.483 7.845 2.008 8.771 1.35 1.011-.719.55-1.358.415-1.459Zm-2.942 64.187c8.682 0 15.685-1.692 15.685-1.692l.023-1.766c-3.719.413-7.408.801-11.211.788-4.47-.014-15.514 1.201-16.544-4.291-.432-2.3.146-5.033.148-7.368.002-2.619-.046-5.255-.216-7.869-.106-1.636-.36-3.26-.668-4.869-.32-1.676-.696-3.34-1.022-5.015a55.866 55.866 0 0 1-.438-2.523 49.244 49.244 0 0 1-.206-1.539 24.9 24.9 0 0 1-.078-.772c-.017-.199.008-.463-.127-.627-.014-.018-.033-.034-.055-.035-.031-.001-.054.025-.073.05-.572.76-.87 1.768-1.091 2.686l.093-.269 1.263 9.392-1.527 24.027s6.826 1.692 16.044 1.692Z"/>
  <path fill="#BAD7FF" d="M120.291 260.33a5.185 5.185 0 0 0-.648-.63c-1.008-.826-2.18-1.345-3.361-1.728a31.342 31.342 0 0 0-3.844-.991c-.219-.041-.439-.08-.659-.116-.157-.026-.358-.099-.516-.08-.127.015-.242.103-.359.168-.306.17-.604.357-.908.53-.836.477-1.738.733-2.661.862-.707.099-1.421.117-2.132.064-.62-.046-1.281-.16-1.796-.594-.144-.121-.997-.966-1.041-.402-.148 1.878.056 3.754.189 5.624.061.86.65.926 1.422.944 4.327.096 8.655.154 12.983.213.799.011 1.603.048 2.402.004.672-.036 1.461-.409 1.681-1.218.278-1.024-.143-1.943-.752-2.65Z"/>
  <path fill="#fff" d="m102.31 262.651.024.336c.061.894.646.964 1.415.982 4.306.1 8.612.16 12.919.222.796.011 1.595.05 2.39.004.67-.038 1.455-.426 1.674-1.268l.002-.012-18.424-.264Z"/>
  <path fill="#BAD7FF" d="M65.154 262.98c.211.808.967 1.182 1.612 1.218.765.044 1.535.007 2.302-.004 4.147-.059 8.295-.118 12.442-.213.74-.018 1.303-.085 1.361-.944.128-1.87.324-3.746.182-5.624-.043-.563-.86.281-.997.402-.494.434-1.128.548-1.722.594a9.189 9.189 0 0 1-2.043-.064c-.885-.129-1.749-.385-2.55-.862-.291-.173-.578-.36-.87-.53-.112-.065-.222-.153-.344-.168-.151-.019-.344.053-.495.08-.21.036-.422.075-.632.116a29.06 29.06 0 0 0-3.684.991c-1.132.383-2.255.903-3.22 1.728a5.028 5.028 0 0 0-.623.63c-.582.707-.986 1.626-.719 2.65Z"/>
  <path fill="#fff" d="m82.71 262.651-.023.336c-.058.895-.618.964-1.354.982-4.123.1-8.247.16-12.37.222-.762.012-1.527.05-2.288.004-.641-.038-1.393-.426-1.603-1.267l-.002-.013 17.64-.264Z"/>
  <path fill="#F4CBA2" d="M104.923 104.654c-.35-2.838-.373-6.065-1.045-8.827-.287-1.178-.902-3.7-2.097-4.526-1.476-1.019-5.95-.144-7.592-.07-1.401.062-3.58-.236-4.833.604-1.636 1.096-1.945 4.158-2.328 6.195-1.068-1.082-3.03-.314-3.135 1.428-.073 1.215.542 2.566 1.489 3.385.235.203.5.379.794.499.217.089.747.066.9.174 0 0-.007 1.184.085 1.846.365 2.625 1.15 4.746 3.006 6.736.16.171 1.12.857 1.12.857.162.632.196 1.287.183 1.935-.01.504-.172 1.2.127 1.655.237.361 1.421.389 1.842.431 1.449.142 2.91.016 4.348-.171.336-.044.902-.062 1.091-.386.194-.332-.432-3.202-.295-3.226 2.296-.404 4.381-1.393 5.542-3.16 1.073-1.632 1.025-3.541.798-5.379Z"/>
  <path fill="#EDBB8E" d="M103.88 110.593c-2.471.511-4.972.983-7.477.423-3.702-.827-5.27-3.447-5.886-6.949-.621-3.527-2.937-10.998 1.511-12.846l.21-.016c-1.035.013-2.092.113-2.83.604-1.653 1.097-1.965 4.163-2.35 6.203-1.078-1.084-3.059-.315-3.164 1.429-.075 1.217.546 2.569 1.502 3.389.238.203.505.38.801.5.22.089.754.065.908.173 0 0-.007 1.186.086 1.849.37 2.628 1.161 4.751 3.034 6.743.162.172 1.131.859 1.131.859.164.632.198 1.288.185 1.937-.01.504-.174 1.201.128 1.657.239.361 1.434.389 1.86.43 1.461.143 2.937.017 4.387-.171.34-.044.911-.062 1.102-.386.196-.333-.436-3.206-.298-3.23 2.056-.359 3.941-1.182 5.16-2.598Z"/>
  <path fill="#424060" d="M99.006 102.868c-3.232.268-5.187 2.458-6.482 5.357-2.364-.939-2.867-4.238-3.462-6.471-.549-2.058-1.278-4.22-1.484-6.352-.036-.37-.576-.384-.555 0 .034.614.108 1.237.202 1.863-.006.02-.021.032-.02.056.278 5.631-1.266 13.764 5.4 15.628 3.11.87 6.68.795 9.685-.61 2.246-1.051 3.157-3.622 3.157-6.018-.002 0-3.477-3.699-6.441-3.453Z"/>
  <path fill="#F4CBA2" d="M101.716 106.514a16.298 16.298 0 0 0-2.988.059c-.81.083-1.7.076-2.438.469a.462.462 0 0 0-.245.485c.203 1.502 1.1 2.906 2.754 2.857.894-.027 1.872-.281 2.464-1.014.606-.75.766-1.849.589-2.779-.004-.018-.008-.038-.021-.051-.016-.017-.042-.02-.066-.022l-.049-.004Z"/>
  <path fill="#BAD7FF" d="M59.978 63.805c-12.104 0-21.952 9.833-21.952 21.92 0 12.087 9.848 21.921 21.952 21.921 12.105 0 21.952-9.834 21.952-21.92 0-12.088-9.847-21.92-21.952-21.92Zm0 42.377c-11.295 0-20.484-9.177-20.484-20.456S48.683 65.27 59.978 65.27c11.296 0 20.486 9.177 20.486 20.456s-9.19 20.456-20.486 20.456Z"/>
  <path fill="#BAD7FF" d="M59.98 70.459a1.567 1.567 0 1 0-1.569-1.566c0 .865.702 1.566 1.568 1.566Zm0 33.668a1.567 1.567 0 1 0-1.569-1.566c0 .865.702 1.566 1.568 1.566Zm16.858-16.835a1.567 1.567 0 1 0-1.567-1.566c0 .865.701 1.566 1.567 1.566Zm-33.716 0a1.567 1.567 0 1 0-1.568-1.566c0 .865.702 1.566 1.568 1.566Zm25.892-2.682h-7.909V72.775c0-.632-.516-1.144-1.153-1.144s-1.153.511-1.153 1.144v12.977c0 .632.517 1.144 1.153 1.144h9.062c.638 0 1.153-.512 1.153-1.144 0-.632-.516-1.144-1.153-1.144Zm147.919-45.797a10.209 10.209 0 0 0 1.771-6.627c-.396-5.043-4.53-9.106-9.617-9.454-6.071-.417-11.127 4.346-11.127 10.28 0 2.151.666 4.149 1.803 5.801l7.739 12.008a1.008 1.008 0 0 0 1.692 0l7.739-12.008Zm-8.584-13.354c4.204 0 7.612 3.381 7.612 7.552 0 4.171-3.408 7.552-7.612 7.552-4.205 0-7.613-3.38-7.613-7.552 0-4.17 3.408-7.552 7.613-7.552Z"/>
</svg>
