<svg xmlns="http://www.w3.org/2000/svg" width="24" height="24" fill="none" viewBox="0 0 24 24">
  <path fill="#42ADE2" d="M6.037 18.187a2.762 2.762 0 0 1-.524-.15c-.188-.075-.338-.112-.488-.187a4.781 4.781 0 0 1-.938-.563c-.6-.412-1.087-.975-1.462-1.65a4.721 4.721 0 0 1-.637-2.1c-.038-.375 0-.712.037-1.087.038-.188.075-.338.113-.525.037-.188.112-.338.15-.525l.037.525c0 .187.037.337.075.525.038.337.113.675.188.975a6.22 6.22 0 0 0 .712 1.8A7.961 7.961 0 0 0 4.5 16.8c.225.225.487.45.75.675.112.112.263.225.412.337l.375.375Zm-.112 1.35c-.112.075-.263.113-.412.15-.15.038-.263.075-.413.075-.262.038-.563.075-.862.038-.563-.038-1.163-.188-1.65-.45a3.181 3.181 0 0 1-1.276-1.163c-.15-.225-.3-.487-.412-.75a6.153 6.153 0 0 1-.113-.412c0-.113-.037-.225-.037-.375.113.112.188.225.262.3.113.112.188.225.263.3.188.187.338.375.525.525.375.337.75.637 1.2.862.413.225.9.413 1.35.563.225.075.488.112.75.187.113.038.263.038.375.075.188.038.3.038.45.075ZM14.4 1.312c.188.038.338.113.525.188.188.075.337.15.487.225.338.187.638.375.938.6.6.45 1.087 1.05 1.425 1.725a4.85 4.85 0 0 1 .525 2.137c0 .375-.038.713-.113 1.088a2.762 2.762 0 0 1-.15.525c-.075.187-.112.337-.187.487l-.038-.525c0-.187 0-.337-.037-.525l-.112-1.012a6.93 6.93 0 0 0-.638-1.875c-.3-.6-.675-1.125-1.125-1.613-.225-.262-.488-.487-.713-.75a3.985 3.985 0 0 0-.412-.337l-.375-.338Zm3.263-.15c.15.038.262.075.375.15.112.038.262.113.375.188.224.15.45.3.674.487.413.375.75.825.938 1.35.225.525.3 1.088.225 1.65-.038.263-.113.525-.188.788-.037.112-.112.262-.15.375-.075.112-.112.225-.224.337v-.75c0-.262-.038-.487-.038-.712-.075-.488-.15-.938-.337-1.35-.188-.45-.413-.825-.675-1.238-.15-.187-.3-.412-.45-.6a1.878 1.878 0 0 0-.263-.3c-.075-.187-.188-.3-.262-.375Z"/>
  <path fill="#FFDD67" d="M3.75 6.75c-.75.337-1.012 1.237-.675 1.987L7.8 18.6l2.625-1.238-4.725-9.9c-.337-.75-1.2-1.087-1.95-.712Zm12.413 7.837 2.774-1.312-5.4-11.25a1.55 1.55 0 0 0-2.062-.713 1.55 1.55 0 0 0-.713 2.063l5.4 11.212Z"/>
  <path fill="#EBA352" d="M11.512 1.275c-.075.038-.15.075-.225.15a1.566 1.566 0 0 1 1.8.825l5.4 11.25.488-.225-5.4-11.25C13.2 1.238 12.3.9 11.512 1.275Z"/>
  <path fill="#FFDD67" d="m10.425 17.325 2.887-1.388L7.8 4.462c-.375-.787-1.35-1.162-2.138-.787-.787.375-1.125 1.35-.75 2.137l5.513 11.513Z"/>
  <path fill="#EBA352" d="M5.662 3.713a.77.77 0 0 0-.224.15c.712-.188 1.537.15 1.875.862l3.412 7.163.825.488L7.8 4.5c-.375-.825-1.313-1.162-2.138-.787Z"/>
  <path fill="#FFDD67" d="m12.863 15.038 2.887-1.388-5.512-11.475c-.376-.787-1.35-1.162-2.138-.75-.788.375-1.125 1.35-.75 2.138l5.513 11.475Z"/>
  <path fill="#EBA352" d="M8.1 1.388c-.075.037-.15.112-.225.15.713-.188 1.538.15 1.875.862l3.863 8.1.825.488-4.2-8.813A1.601 1.601 0 0 0 8.1 1.388ZM3.75 6.75a.784.784 0 0 0-.225.15c.675-.187 1.388.15 1.688.825l2.812 5.888.825.487L5.7 7.5c-.337-.787-1.2-1.125-1.95-.75Z"/>
  <path fill="#FFDD67" d="M22.8 5.625c-1.012-.787-2.663.075-3.488 2.775-.562 1.875-.637 2.438-1.837 3l-.675-1.387S6.15 15.15 6.563 15.975c0 0 1.275 3.975 3.45 5.813 3.225 2.775 10.762-.188 11.1-7.35.187-4.163 2.774-7.95 1.687-8.813Z"/>
  <path fill="#EBA352" d="M22.8 5.625a1.361 1.361 0 0 0-.637-.263c.037.038.112.038.15.075 1.125.863-.038 2.85-.675 4.65-.526 1.425-.976 2.888-.9 4.313.3 6.225-5.963 9.187-9.713 8.062 3.675 1.538 10.5-1.387 10.2-7.875-.075-1.425.337-2.812.9-4.312.6-1.8 1.762-3.788.675-4.65Z"/>
  <path fill="#EBA352" d="M17.813 11.25c-2.325.262-5.738 3.6-3.338 7.238-1.762-3.675 1.125-6.15 2.963-7.013.187-.15.375-.225.375-.225Z"/>
</svg>
